<svg class="main-svg" xmlns="http://www.w3.org/2000/svg" xmlns:xlink="http://www.w3.org/1999/xlink" width="700" height="500" viewBox="0 0 700 500"><rect x="0" y="0" width="700" height="500" style="fill: rgb(255, 255, 255); fill-opacity: 1;"/><defs id="defs-127995"><g class="clips"><clipPath id="clip127995xyplot" class="plotclip"><rect width="499" height="320"/></clipPath><clipPath class="axesclip" id="clip127995x"><rect x="80" y="0" width="499" height="500"/></clipPath><clipPath class="axesclip" id="clip127995y"><rect x="0" y="100" width="700" height="320"/></clipPath><clipPath class="axesclip" id="clip127995xy"><rect x="80" y="100" width="499" height="320"/></clipPath></g><g class="gradients"/></defs><g class="bglayer"/><g class="layer-below"><g class="imagelayer"/><g class="shapelayer"/></g><g class="cartesianlayer"><g class="subplot xy"><g class="layer-subplot"><g class="shapelayer"/><g class="imagelayer"/></g><g class="gridlayer"><g class="x"/><g class="y"><path class="ygrid crisp" transform="translate(0,390.49)" d="M80,0h499" style="stroke: rgb(238, 238, 238); stroke-opacity: 1; stroke-width: 1px;"/><path class="ygrid crisp" transform="translate(0,321.87)" d="M80,0h499" style="stroke: rgb(238, 238, 238); stroke-opacity: 1; stroke-width: 1px;"/><path class="ygrid crisp" transform="translate(0,253.25)" d="M80,0h499" style="stroke: rgb(238, 238, 238); stroke-opacity: 1; stroke-width: 1px;"/><path class="ygrid crisp" transform="translate(0,184.62)" d="M80,0h499" style="stroke: rgb(238, 238, 238); stroke-opacity: 1; stroke-width: 1px;"/><path class="ygrid crisp" transform="translate(0,116)" d="M80,0h499" style="stroke: rgb(238, 238, 238); stroke-opacity: 1; stroke-width: 1px;"/></g></g><g class="zerolinelayer"/><path class="xlines-below"/><path class="ylines-below"/><g class="overlines-below"/><g class="xaxislayer-below"/><g class="yaxislayer-below"/><g class="overaxes-below"/><g class="plot" transform="translate(80, 100)" clip-path="url(#clip127995xyplot)"><g class="violinlayer mlayer"><g class="trace violins" style="opacity: 0.6;"><path class="violin" d="M44.6,266.46Q45.15,261.97 45.43,259.73C45.7,257.49 45.99,255.25 46.25,253.01C46.51,250.77 46.78,248.52 47.01,246.28C47.24,244.04 47.46,241.79 47.64,239.55C47.82,237.31 47.97,235.07 48.1,232.83C48.23,230.59 48.33,228.34 48.42,226.1C48.51,223.86 48.57,221.62 48.63,219.38C48.69,217.14 48.75,214.89 48.8,212.65C48.85,210.41 48.9,208.16 48.94,205.92C48.98,203.68 49.03,201.44 49.05,199.2C49.07,196.96 49.09,194.71 49.08,192.47C49.07,190.23 49.03,187.98 48.97,185.74C48.91,183.5 48.81,181.26 48.7,179.02C48.58,176.78 48.43,174.53 48.28,172.29C48.12,170.05 47.95,167.8 47.77,165.56C47.59,163.32 47.4,161.08 47.21,158.84C47.02,156.6 46.83,154.35 46.63,152.11C46.43,149.87 46.22,147.62 46.01,145.38C45.8,143.14 45.58,140.9 45.36,138.66C45.14,136.42 44.91,134.17 44.68,131.93C44.46,129.69 44.22,127.44 44.01,125.2C43.8,122.96 43.58,120.72 43.4,118.48C43.21,116.24 43.04,113.99 42.9,111.75C42.76,109.51 42.64,107.26 42.54,105.02C42.44,102.78 42.36,100.54 42.3,98.3C42.24,96.06 42.2,93.81 42.17,91.57C42.14,89.33 42.12,87.09 42.1,84.85C42.08,82.61 42.08,80.36 42.08,78.12C42.08,75.88 42.09,73.63 42.1,71.39C42.11,69.15 42.12,66.91 42.14,64.67C42.16,62.43 42.18,60.18 42.21,57.94C42.24,55.7 42.27,53.45 42.3,51.21C42.33,48.97 42.36,46.73 42.38,44.49C42.4,42.25 42.42,40 42.44,37.76Q42.45,35.52 42.47,31.03L41.59,31.03Q41.6,35.52 41.61,37.76C41.62,40 41.65,42.25 41.68,44.49C41.7,46.73 41.73,48.97 41.76,51.21C41.79,53.45 41.82,55.7 41.85,57.94C41.88,60.18 41.9,62.43 41.92,64.67C41.94,66.91 41.95,69.15 41.96,71.39C41.97,73.63 41.98,75.88 41.98,78.12C41.98,80.36 41.98,82.61 41.96,84.85C41.94,87.09 41.92,89.33 41.89,91.57C41.86,93.81 41.82,96.06 41.76,98.3C41.7,100.54 41.62,102.78 41.52,105.02C41.42,107.26 41.3,109.51 41.16,111.75C41.02,113.99 40.85,116.24 40.66,118.48C40.48,120.72 40.26,122.96 40.05,125.2C39.84,127.44 39.6,129.69 39.38,131.93C39.15,134.17 38.92,136.42 38.7,138.66C38.48,140.9 38.25,143.14 38.04,145.38C37.83,147.62 37.63,149.87 37.43,152.11C37.23,154.35 37.04,156.6 36.85,158.84C36.66,161.08 36.47,163.32 36.29,165.56C36.11,167.8 35.94,170.05 35.78,172.29C35.63,174.53 35.48,176.78 35.36,179.02C35.25,181.26 35.15,183.5 35.09,185.74C35.03,187.98 34.99,190.23 34.98,192.47C34.97,194.71 34.98,196.96 35,199.2C35.02,201.44 35.07,203.68 35.11,205.92C35.15,208.16 35.21,210.41 35.26,212.65C35.31,214.89 35.36,217.14 35.42,219.38C35.48,221.62 35.55,223.86 35.64,226.1C35.73,228.34 35.83,230.59 35.96,232.83C36.09,235.07 36.24,237.31 36.42,239.55C36.6,241.79 36.82,244.04 37.05,246.28C37.28,248.52 37.54,250.77 37.8,253.01C38.06,255.25 38.36,257.49 38.63,259.73Q38.91,261.97 39.45,266.46Z" style="vector-effect: non-scaling-stroke; stroke-width: 2px; stroke: rgb(31, 119, 180); stroke-opacity: 1; fill: rgb(31, 119, 180); fill-opacity: 0.5;"/><path class="violin" d="M209.51,260.59Q210.07,257.16 210.36,255.45C210.65,253.74 210.94,252.02 211.23,250.31C211.52,248.6 211.81,246.89 212.11,245.18C212.41,243.47 212.71,241.75 213.02,240.04C213.33,238.33 213.65,236.61 213.96,234.9C214.27,233.19 214.6,231.47 214.89,229.76C215.18,228.05 215.47,226.34 215.7,224.62C215.93,222.91 216.13,221.2 216.25,219.48C216.37,217.77 216.44,216.05 216.43,214.34C216.42,212.63 216.33,210.92 216.18,209.21C216.03,207.49 215.8,205.78 215.54,204.07C215.28,202.35 214.95,200.64 214.64,198.93C214.33,197.22 213.97,195.5 213.66,193.79C213.35,192.08 213.04,190.37 212.78,188.65C212.52,186.94 212.3,185.23 212.12,183.51C211.94,181.8 211.82,180.08 211.71,178.37C211.61,176.66 211.55,174.95 211.49,173.24C211.43,171.53 211.4,169.81 211.35,168.1C211.29,166.39 211.25,164.67 211.16,162.96C211.07,161.25 210.97,159.53 210.83,157.82C210.69,156.11 210.51,154.39 210.33,152.68C210.14,150.97 209.93,149.25 209.72,147.54C209.51,145.83 209.29,144.11 209.08,142.4C208.88,140.69 208.67,138.98 208.49,137.27C208.31,135.56 208.14,133.84 207.99,132.13Q207.84,130.42 207.59,126.99L205.13,126.99Q204.88,130.42 204.73,132.13C204.58,133.84 204.42,135.56 204.24,137.27C204.06,138.98 203.85,140.69 203.65,142.4C203.44,144.11 203.22,145.83 203.01,147.54C202.8,149.25 202.59,150.97 202.4,152.68C202.22,154.39 202.04,156.11 201.9,157.82C201.76,159.53 201.65,161.25 201.56,162.96C201.47,164.67 201.43,166.39 201.37,168.1C201.32,169.81 201.29,171.53 201.23,173.24C201.17,174.95 201.12,176.66 201.02,178.37C200.92,180.08 200.79,181.8 200.61,183.51C200.43,185.23 200.2,186.94 199.94,188.65C199.68,190.37 199.37,192.08 199.06,193.79C198.75,195.5 198.39,197.22 198.08,198.93C197.77,200.64 197.45,202.35 197.19,204.07C196.94,205.78 196.7,207.49 196.55,209.21C196.4,210.92 196.31,212.63 196.3,214.34C196.29,216.05 196.35,217.77 196.47,219.48C196.59,221.2 196.8,222.91 197.03,224.62C197.26,226.34 197.55,228.05 197.84,229.76C198.13,231.47 198.46,233.19 198.77,234.9C199.08,236.61 199.4,238.33 199.71,240.04C200.02,241.75 200.32,243.47 200.62,245.18C200.92,246.89 201.21,248.6 201.5,250.31C201.79,252.02 202.07,253.74 202.36,255.45Q202.65,257.16 203.22,260.59Z" style="vector-effect: non-scaling-stroke; stroke-width: 2px; stroke: rgb(31, 119, 180); stroke-opacity: 1; fill: rgb(31, 119, 180); fill-opacity: 0.5;"/><path class="violin" d="M372.96,281Q373.45,275.75 373.72,273.12C373.99,270.49 374.28,267.87 374.57,265.24C374.86,262.62 375.16,259.99 375.44,257.37C375.72,254.74 376.01,252.12 376.25,249.49C376.49,246.86 376.73,244.24 376.9,241.61C377.07,238.98 377.21,236.36 377.29,233.73C377.37,231.11 377.4,228.48 377.4,225.86C377.4,223.23 377.34,220.61 377.26,217.98C377.18,215.35 377.05,212.73 376.93,210.1C376.8,207.47 376.65,204.85 376.51,202.22C376.37,199.59 376.21,196.97 376.07,194.34C375.93,191.72 375.8,189.09 375.67,186.47C375.54,183.84 375.42,181.22 375.3,178.59C375.18,175.96 375.06,173.34 374.94,170.71C374.82,168.08 374.7,165.46 374.57,162.83C374.44,160.21 374.29,157.58 374.15,154.96C374,152.33 373.85,149.71 373.7,147.08C373.55,144.45 373.4,141.83 373.25,139.2C373.11,136.57 372.96,133.95 372.83,131.32C372.7,128.69 372.58,126.07 372.47,123.44C372.36,120.82 372.27,118.19 372.18,115.57C372.09,112.94 372.02,110.32 371.95,107.69C371.88,105.06 371.81,102.44 371.75,99.81C371.69,97.18 371.63,94.56 371.58,91.93C371.53,89.31 371.48,86.68 371.43,84.06C371.38,81.43 371.33,78.81 371.29,76.18C371.25,73.55 371.2,70.93 371.17,68.3C371.14,65.67 371.11,63.05 371.09,60.42C371.07,57.79 371.05,55.17 371.04,52.54C371.03,49.92 371.04,47.29 371.04,44.67C371.04,42.04 371.05,39.42 371.06,36.79C371.07,34.16 371.08,31.54 371.08,28.91Q371.08,26.28 371.08,21.03L370.31,21.03Q370.31,26.28 370.31,28.91C370.31,31.54 370.33,34.16 370.34,36.79C370.35,39.42 370.35,42.04 370.35,44.67C370.35,47.29 370.36,49.92 370.35,52.54C370.34,55.17 370.33,57.79 370.31,60.42C370.29,63.05 370.25,65.67 370.22,68.3C370.18,70.93 370.14,73.55 370.1,76.18C370.06,78.81 370.01,81.43 369.96,84.06C369.91,86.68 369.86,89.31 369.81,91.93C369.76,94.56 369.7,97.18 369.64,99.81C369.58,102.44 369.51,105.06 369.44,107.69C369.37,110.32 369.3,112.94 369.21,115.57C369.12,118.19 369.03,120.82 368.92,123.44C368.81,126.07 368.69,128.69 368.56,131.32C368.43,133.95 368.28,136.57 368.14,139.2C367.99,141.83 367.84,144.45 367.69,147.08C367.54,149.71 367.38,152.33 367.24,154.96C367.1,157.58 366.96,160.21 366.83,162.83C366.7,165.46 366.57,168.08 366.45,170.71C366.33,173.34 366.21,175.96 366.09,178.59C365.97,181.22 365.85,183.84 365.72,186.47C365.59,189.09 365.46,191.72 365.32,194.34C365.18,196.97 365.03,199.59 364.89,202.22C364.75,204.85 364.59,207.47 364.46,210.1C364.33,212.73 364.21,215.35 364.13,217.98C364.05,220.61 363.99,223.23 363.99,225.86C363.99,228.48 364.02,231.11 364.1,233.73C364.18,236.36 364.33,238.98 364.5,241.61C364.67,244.24 364.9,246.86 365.14,249.49C365.38,252.12 365.67,254.74 365.95,257.37C366.23,259.99 366.53,262.62 366.82,265.24C367.11,267.87 367.4,270.49 367.67,273.12Q367.94,275.75 368.43,281Z" style="vector-effect: non-scaling-stroke; stroke-width: 2px; stroke: rgb(31, 119, 180); stroke-opacity: 1; fill: rgb(31, 119, 180); fill-opacity: 0.5;"/><path class="box" d="M39.51,195.44H44.55M39.51,228.19H44.55V174.61H39.51ZM42.03,228.19V266.46M42.03,174.61V132.57" style="vector-effect: non-scaling-stroke; stroke-width: 1.5px; stroke: rgb(0, 0, 0); stroke-opacity: 1; fill: rgb(31, 119, 180); fill-opacity: 0.5;"/><path class="box" d="M203.85,208.04H208.88M203.85,224.32H208.88V182.67H203.85ZM206.36,224.32V260.59M206.36,182.67V126.99" style="vector-effect: non-scaling-stroke; stroke-width: 1.5px; stroke: rgb(0, 0, 0); stroke-opacity: 1; fill: rgb(31, 119, 180); fill-opacity: 0.5;"/><path class="box" d="M368.18,212.08H373.21M368.18,236.66H373.21V173.31H368.18ZM370.7,236.66V281M370.7,173.31V83.31" style="vector-effect: non-scaling-stroke; stroke-width: 1.5px; stroke: rgb(0, 0, 0); stroke-opacity: 1; fill: rgb(31, 119, 180); fill-opacity: 0.5;"/><path class="mean" d="M39.51,194.85H44.55" style="fill: none; vector-effect: non-scaling-stroke; stroke-width: 1.5px; stroke-dasharray: 3px, 1.5px; stroke: rgb(255, 255, 255); stroke-opacity: 1;"/><path class="mean" d="M203.85,204.68H208.88" style="fill: none; vector-effect: non-scaling-stroke; stroke-width: 1.5px; stroke-dasharray: 3px, 1.5px; stroke: rgb(255, 255, 255); stroke-opacity: 1;"/><path class="mean" d="M368.18,199.94H373.21" style="fill: none; vector-effect: non-scaling-stroke; stroke-width: 1.5px; stroke-dasharray: 3px, 1.5px; stroke: rgb(255, 255, 255); stroke-opacity: 1;"/><g class="points"><path class="point" transform="translate(42.03,31.03)" d="M3,0A3,3 0 1,1 0,-3A3,3 0 0,1 3,0Z" style="opacity: 1; stroke-width: 1.5px; fill: rgb(31, 119, 180); fill-opacity: 1; stroke: rgb(0, 0, 0); stroke-opacity: 1;"/></g><g class="points"/><g class="points"><path class="point" transform="translate(370.7,21.03)" d="M3,0A3,3 0 1,1 0,-3A3,3 0 0,1 3,0Z" style="opacity: 1; stroke-width: 1.5px; fill: rgb(31, 119, 180); fill-opacity: 1; stroke: rgb(0, 0, 0); stroke-opacity: 1;"/></g></g><g class="trace violins" style="opacity: 0.6;"><path class="violin" d="M72.15,104.72Q72.31,102.51 72.37,101.4C72.43,100.29 72.47,99.18 72.49,98.07C72.51,96.96 72.5,95.85 72.48,94.74C72.46,93.63 72.41,92.52 72.36,91.41C72.31,90.3 72.23,89.2 72.16,88.09C72.09,86.98 72.01,85.87 71.95,84.76C71.89,83.65 71.83,82.54 71.81,81.43C71.79,80.32 71.78,79.22 71.82,78.11C71.86,77 71.94,75.89 72.06,74.78C72.18,73.67 72.35,72.56 72.56,71.45C72.77,70.34 73.04,69.23 73.32,68.12C73.61,67.01 73.93,65.9 74.27,64.8C74.61,63.69 74.98,62.58 75.34,61.47C75.7,60.36 76.06,59.25 76.41,58.14C76.76,57.03 77.1,55.92 77.42,54.81C77.74,53.7 78.04,52.6 78.32,51.49C78.6,50.38 78.87,49.27 79.11,48.16C79.35,47.05 79.57,45.94 79.78,44.83C79.98,43.72 80.18,42.61 80.34,41.5C80.5,40.39 80.65,39.29 80.73,38.18C80.81,37.07 80.87,35.96 80.85,34.85C80.83,33.74 80.77,32.62 80.62,31.52C80.47,30.41 80.24,29.3 79.95,28.2C79.66,27.08 79.28,25.97 78.87,24.87C78.45,23.75 77.96,22.65 77.47,21.54Q76.98,20.43 75.94,18.21L65.63,18.21Q64.59,20.43 64.1,21.54C63.62,22.65 63.13,23.75 62.71,24.87C62.3,25.97 61.91,27.08 61.62,28.2C61.33,29.3 61.11,30.41 60.96,31.52C60.81,32.62 60.74,33.74 60.72,34.85C60.7,35.96 60.76,37.07 60.85,38.18C60.94,39.29 61.08,40.39 61.24,41.5C61.4,42.61 61.59,43.72 61.79,44.83C62,45.94 62.23,47.05 62.47,48.16C62.71,49.27 62.97,50.38 63.25,51.49C63.53,52.6 63.84,53.7 64.16,54.81C64.48,55.92 64.81,57.03 65.16,58.14C65.51,59.25 65.88,60.36 66.24,61.47C66.6,62.58 66.96,63.69 67.3,64.8C67.64,65.91 67.97,67.01 68.26,68.12C68.54,69.22 68.8,70.34 69.01,71.45C69.22,72.56 69.4,73.67 69.52,74.78C69.64,75.89 69.71,77 69.75,78.11C69.79,79.22 69.79,80.32 69.77,81.43C69.75,82.54 69.69,83.65 69.63,84.76C69.57,85.87 69.48,86.98 69.41,88.09C69.34,89.2 69.26,90.3 69.21,91.41C69.16,92.52 69.11,93.63 69.09,94.74C69.07,95.85 69.07,96.96 69.09,98.07C69.11,99.18 69.15,100.29 69.21,101.4Q69.27,102.51 69.43,104.72Z" style="vector-effect: non-scaling-stroke; stroke-width: 2px; stroke: rgb(255, 127, 14); stroke-opacity: 1; fill: rgb(255, 127, 14); fill-opacity: 0.5;"/><path class="violin" d="M236.24,100.73Q236.34,98.78 236.38,97.8C236.42,96.82 236.45,95.85 236.47,94.87C236.49,93.9 236.51,92.92 236.52,91.95C236.53,90.97 236.53,90 236.55,89.02C236.57,88.04 236.59,87.07 236.63,86.09C236.67,85.11 236.72,84.14 236.79,83.16C236.86,82.18 236.96,81.21 237.06,80.23C237.17,79.25 237.29,78.28 237.42,77.3C237.55,76.33 237.69,75.35 237.83,74.38C237.97,73.4 238.1,72.43 238.24,71.45C238.37,70.47 238.51,69.5 238.64,68.52C238.77,67.54 238.89,66.57 239.03,65.59C239.17,64.61 239.32,63.63 239.5,62.66C239.68,61.68 239.87,60.7 240.1,59.73C240.33,58.75 240.58,57.78 240.86,56.81C241.14,55.83 241.46,54.86 241.76,53.88C242.07,52.9 242.39,51.93 242.69,50.95C242.98,49.98 243.28,49 243.53,48.02C243.78,47.05 243.99,46.07 244.17,45.09C244.35,44.12 244.49,43.14 244.6,42.16C244.71,41.19 244.78,40.21 244.82,39.23C244.86,38.26 244.88,37.28 244.87,36.31C244.86,35.33 244.82,34.36 244.74,33.38C244.66,32.4 244.55,31.42 244.39,30.45C244.23,29.47 244.03,28.49 243.78,27.52C243.53,26.54 243.21,25.56 242.87,24.59C242.52,23.61 242.11,22.63 241.7,21.66Q241.29,20.68 240.39,18.74L229.85,18.74Q228.95,20.68 228.54,21.66C228.13,22.63 227.72,23.61 227.37,24.59C227.03,25.56 226.72,26.54 226.47,27.52C226.22,28.49 226.01,29.47 225.85,30.45C225.69,31.42 225.58,32.4 225.5,33.38C225.42,34.36 225.38,35.33 225.37,36.31C225.36,37.28 225.38,38.26 225.42,39.23C225.46,40.21 225.53,41.19 225.64,42.16C225.75,43.14 225.89,44.12 226.07,45.09C226.25,46.07 226.46,47.05 226.71,48.02C226.96,49 227.26,49.98 227.55,50.95C227.85,51.93 228.17,52.9 228.48,53.88C228.78,54.86 229.1,55.83 229.38,56.81C229.66,57.78 229.92,58.75 230.15,59.73C230.38,60.7 230.57,61.68 230.75,62.66C230.93,63.63 231.07,64.61 231.21,65.59C231.35,66.57 231.48,67.54 231.61,68.52C231.74,69.5 231.87,70.47 232,71.45C232.14,72.43 232.28,73.4 232.42,74.38C232.56,75.35 232.7,76.33 232.83,77.3C232.96,78.28 233.08,79.25 233.18,80.23C233.28,81.21 233.38,82.18 233.45,83.16C233.52,84.14 233.57,85.11 233.61,86.09C233.65,87.07 233.67,88.04 233.69,89.02C233.71,90 233.72,90.97 233.73,91.95C233.74,92.92 233.75,93.9 233.77,94.87C233.79,95.85 233.82,96.82 233.86,97.8Q233.9,98.78 234,100.73Z" style="vector-effect: non-scaling-stroke; stroke-width: 2px; stroke: rgb(255, 127, 14); stroke-opacity: 1; fill: rgb(255, 127, 14); fill-opacity: 0.5;"/><path class="violin" d="M399.94,114.13Q399.93,111.82 399.93,110.66C399.92,109.5 399.91,108.35 399.91,107.19C399.91,106.03 399.9,104.88 399.91,103.72C399.92,102.56 399.94,101.41 399.98,100.25C400.02,99.1 400.07,97.94 400.15,96.79C400.23,95.63 400.34,94.48 400.46,93.32C400.58,92.16 400.73,91.01 400.89,89.85C401.05,88.69 401.23,87.54 401.41,86.38C401.59,85.22 401.78,84.07 401.96,82.91C402.13,81.75 402.31,80.6 402.46,79.44C402.61,78.28 402.76,77.13 402.88,75.97C403,74.82 403.11,73.66 403.2,72.51C403.3,71.35 403.37,70.2 403.45,69.04C403.53,67.88 403.6,66.73 403.7,65.57C403.8,64.41 403.9,63.25 404.04,62.1C404.18,60.94 404.34,59.78 404.55,58.63C404.76,57.47 405,56.31 405.28,55.16C405.56,54 405.89,52.85 406.21,51.7C406.54,50.54 406.9,49.39 407.23,48.23C407.56,47.07 407.9,45.92 408.18,44.76C408.45,43.61 408.71,42.45 408.88,41.29C409.05,40.14 409.16,38.98 409.19,37.82C409.22,36.66 409.17,35.5 409.05,34.35C408.93,33.19 408.71,32.03 408.45,30.88C408.19,29.72 407.84,28.57 407.47,27.42C407.1,26.26 406.67,25.1 406.24,23.95Q405.81,22.79 404.89,20.48L394.02,20.48Q393.1,22.79 392.67,23.95C392.24,25.1 391.81,26.26 391.44,27.42C391.07,28.57 390.72,29.72 390.46,30.88C390.2,32.03 389.98,33.19 389.86,34.35C389.74,35.5 389.69,36.66 389.72,37.82C389.75,38.98 389.86,40.14 390.03,41.29C390.2,42.45 390.46,43.61 390.73,44.76C391.01,45.92 391.35,47.07 391.68,48.23C392.01,49.39 392.38,50.54 392.7,51.7C393.02,52.85 393.34,54 393.62,55.16C393.9,56.31 394.15,57.47 394.36,58.63C394.57,59.78 394.73,60.94 394.87,62.1C395.01,63.25 395.11,64.41 395.21,65.57C395.31,66.73 395.38,67.88 395.46,69.04C395.54,70.2 395.61,71.35 395.71,72.51C395.8,73.66 395.91,74.82 396.03,75.97C396.15,77.13 396.29,78.28 396.44,79.44C396.59,80.6 396.77,81.75 396.95,82.91C397.13,84.07 397.32,85.22 397.5,86.38C397.68,87.54 397.86,88.69 398.02,89.85C398.18,91.01 398.33,92.16 398.45,93.32C398.57,94.48 398.68,95.63 398.76,96.79C398.84,97.94 398.89,99.1 398.93,100.25C398.97,101.41 398.99,102.56 399,103.72C399.01,104.88 399,106.03 399,107.19C399,108.35 398.99,109.5 398.98,110.66Q398.98,111.82 398.97,114.13Z" style="vector-effect: non-scaling-stroke; stroke-width: 2px; stroke: rgb(255, 127, 14); stroke-opacity: 1; fill: rgb(255, 127, 14); fill-opacity: 0.5;"/><path class="box" d="M68.27,40.32H73.3M68.27,56.04H73.3V29.66H68.27ZM70.79,56.04V94.01M70.79,29.66V18.21" style="vector-effect: non-scaling-stroke; stroke-width: 1.5px; stroke: rgb(0, 0, 0); stroke-opacity: 1; fill: rgb(255, 127, 14); fill-opacity: 0.5;"/><path class="box" d="M232.6,41.45H237.64M232.6,52.17H237.64V28.51H232.6ZM235.12,52.17V84.55M235.12,28.51V18.74" style="vector-effect: non-scaling-stroke; stroke-width: 1.5px; stroke: rgb(0, 0, 0); stroke-opacity: 1; fill: rgb(255, 127, 14); fill-opacity: 0.5;"/><path class="box" d="M396.94,42.51H401.97M396.94,61.93H401.97V31.79H396.94ZM399.45,61.93V82.8M399.45,31.79V20.48" style="vector-effect: non-scaling-stroke; stroke-width: 1.5px; stroke: rgb(0, 0, 0); stroke-opacity: 1; fill: rgb(255, 127, 14); fill-opacity: 0.5;"/><path class="mean" d="M68.27,45.29H73.3" style="fill: none; vector-effect: non-scaling-stroke; stroke-width: 1.5px; stroke-dasharray: 3px, 1.5px; stroke: rgb(255, 255, 255); stroke-opacity: 1;"/><path class="mean" d="M232.6,45.45H237.64" style="fill: none; vector-effect: non-scaling-stroke; stroke-width: 1.5px; stroke-dasharray: 3px, 1.5px; stroke: rgb(255, 255, 255); stroke-opacity: 1;"/><path class="mean" d="M396.94,46.77H401.97" style="fill: none; vector-effect: non-scaling-stroke; stroke-width: 1.5px; stroke-dasharray: 3px, 1.5px; stroke: rgb(255, 255, 255); stroke-opacity: 1;"/><g class="points"><path class="point" transform="translate(70.79,104.72)" d="M3,0A3,3 0 1,1 0,-3A3,3 0 0,1 3,0Z" style="opacity: 1; stroke-width: 1.5px; fill: rgb(255, 127, 14); fill-opacity: 1; stroke: rgb(0, 0, 0); stroke-opacity: 1;"/><path class="point" transform="translate(70.79,99.13)" d="M3,0A3,3 0 1,1 0,-3A3,3 0 0,1 3,0Z" style="opacity: 1; stroke-width: 1.5px; fill: rgb(255, 127, 14); fill-opacity: 1; stroke: rgb(0, 0, 0); stroke-opacity: 1;"/></g><g class="points"><path class="point" transform="translate(235.12,100.73)" d="M3,0A3,3 0 1,1 0,-3A3,3 0 0,1 3,0Z" style="opacity: 1; stroke-width: 1.5px; fill: rgb(255, 127, 14); fill-opacity: 1; stroke: rgb(0, 0, 0); stroke-opacity: 1;"/><path class="point" transform="translate(235.12,94.57)" d="M3,0A3,3 0 1,1 0,-3A3,3 0 0,1 3,0Z" style="opacity: 1; stroke-width: 1.5px; fill: rgb(255, 127, 14); fill-opacity: 1; stroke: rgb(0, 0, 0); stroke-opacity: 1;"/></g><g class="points"><path class="point" transform="translate(399.45,114.13)" d="M3,0A3,3 0 1,1 0,-3A3,3 0 0,1 3,0Z" style="opacity: 1; stroke-width: 1.5px; fill: rgb(255, 127, 14); fill-opacity: 1; stroke: rgb(0, 0, 0); stroke-opacity: 1;"/></g></g><g class="trace violins" style="opacity: 0.6;"><path class="violin" d="M100.31,144.8Q100.37,141.27 100.39,139.51C100.42,137.74 100.44,135.98 100.46,134.21C100.48,132.45 100.5,130.68 100.52,128.92C100.54,127.15 100.56,125.39 100.59,123.62C100.62,121.85 100.65,120.09 100.68,118.32C100.71,116.56 100.74,114.79 100.77,113.03C100.8,111.26 100.83,109.5 100.87,107.73C100.9,105.97 100.94,104.2 100.98,102.44C101.02,100.67 101.06,98.91 101.11,97.14C101.16,95.38 101.22,93.61 101.29,91.85C101.36,90.08 101.44,88.32 101.53,86.55C101.62,84.78 101.72,83.02 101.85,81.25C101.97,79.49 102.12,77.72 102.28,75.96C102.44,74.19 102.62,72.43 102.81,70.66C103,68.9 103.22,67.13 103.43,65.37C103.65,63.6 103.88,61.84 104.1,60.07C104.33,58.3 104.56,56.54 104.78,54.77C105,53.01 105.22,51.25 105.4,49.48C105.58,47.72 105.74,45.95 105.86,44.18C105.98,42.42 106.07,40.65 106.11,38.89C106.15,37.12 106.13,35.35 106.07,33.59C106.01,31.82 105.89,30.06 105.72,28.3C105.55,26.53 105.33,24.76 105.07,23Q104.81,21.23 104.17,17.7L94.92,17.7Q94.29,21.23 94.03,23C93.77,24.76 93.54,26.53 93.37,28.3C93.2,30.06 93.08,31.82 93.02,33.59C92.96,35.35 92.94,37.12 92.98,38.89C93.02,40.65 93.11,42.42 93.23,44.18C93.35,45.95 93.51,47.72 93.69,49.48C93.87,51.25 94.09,53.01 94.31,54.77C94.53,56.54 94.76,58.3 94.99,60.07C95.22,61.84 95.45,63.6 95.67,65.37C95.88,67.13 96.09,68.9 96.28,70.66C96.47,72.43 96.65,74.19 96.81,75.96C96.97,77.72 97.12,79.49 97.24,81.25C97.37,83.02 97.47,84.78 97.56,86.55C97.65,88.32 97.73,90.08 97.8,91.85C97.87,93.61 97.93,95.38 97.98,97.14C98.03,98.91 98.07,100.67 98.11,102.44C98.15,104.2 98.19,105.97 98.22,107.73C98.26,109.5 98.29,111.26 98.32,113.03C98.35,114.79 98.39,116.56 98.42,118.32C98.45,120.09 98.47,121.85 98.5,123.62C98.52,125.39 98.55,127.15 98.57,128.92C98.59,130.68 98.62,132.45 98.64,134.21C98.66,135.98 98.68,137.74 98.7,139.51Q98.72,141.27 98.78,144.8Z" style="vector-effect: non-scaling-stroke; stroke-width: 2px; stroke: rgb(44, 160, 44); stroke-opacity: 1; fill: rgb(44, 160, 44); fill-opacity: 0.5;"/><path class="violin" d="M264.4,174.76Q264.4,172.65 264.38,171.6C264.36,170.55 264.33,169.49 264.3,168.44C264.27,167.39 264.23,166.33 264.2,165.28C264.17,164.23 264.13,163.18 264.1,162.13C264.07,161.08 264.05,160.02 264.02,158.97C264,157.92 263.97,156.86 263.95,155.81C263.93,154.76 263.93,153.7 263.92,152.65C263.91,151.6 263.91,150.54 263.9,149.49C263.9,148.44 263.89,147.39 263.89,146.34C263.89,145.29 263.88,144.23 263.88,143.18C263.88,142.13 263.88,141.07 263.88,140.02C263.88,138.97 263.89,137.91 263.89,136.86C263.9,135.81 263.9,134.75 263.91,133.7C263.92,132.65 263.93,131.6 263.95,130.55C263.97,129.5 263.99,128.44 264.03,127.39C264.07,126.34 264.12,125.28 264.18,124.23C264.24,123.18 264.31,122.12 264.4,121.07C264.49,120.02 264.59,118.96 264.71,117.91C264.82,116.86 264.96,115.81 265.09,114.76C265.22,113.71 265.36,112.65 265.48,111.6C265.6,110.55 265.72,109.49 265.81,108.44C265.9,107.39 265.98,106.33 266.03,105.28C266.08,104.23 266.1,103.17 266.1,102.12C266.1,101.07 266.07,100.02 266.04,98.97C266.01,97.92 265.97,96.86 265.93,95.81C265.89,94.76 265.85,93.7 265.82,92.65C265.79,91.6 265.76,90.54 265.74,89.49C265.72,88.44 265.72,87.38 265.71,86.33C265.7,85.28 265.7,84.23 265.69,83.18C265.68,82.13 265.66,81.07 265.65,80.02C265.63,78.97 265.62,77.91 265.6,76.86C265.58,75.81 265.55,74.75 265.55,73.7C265.55,72.65 265.54,71.59 265.57,70.54C265.6,69.49 265.64,68.44 265.72,67.39C265.81,66.34 265.92,65.28 266.08,64.23C266.25,63.17 266.45,62.12 266.71,61.07C266.97,60.01 267.29,58.96 267.65,57.91C268.01,56.85 268.44,55.8 268.87,54.75C269.31,53.69 269.8,52.65 270.26,51.6C270.73,50.55 271.23,49.5 271.66,48.44C272.09,47.39 272.52,46.34 272.85,45.28C273.18,44.24 273.46,43.18 273.64,42.12C273.82,41.07 273.92,40.01 273.94,38.96C273.96,37.91 273.9,36.86 273.78,35.81C273.66,34.75 273.46,33.7 273.24,32.65C273.02,31.59 272.73,30.54 272.44,29.49C272.15,28.43 271.82,27.38 271.48,26.33C271.14,25.27 270.78,24.22 270.42,23.17C270.06,22.12 269.68,21.07 269.3,20.02Q268.92,18.97 268.15,16.86L259.6,16.86Q258.84,18.97 258.46,20.02C258.08,21.07 257.69,22.12 257.33,23.17C256.97,24.22 256.62,25.27 256.28,26.33C255.95,27.38 255.61,28.43 255.32,29.49C255.03,30.54 254.74,31.59 254.52,32.65C254.3,33.7 254.1,34.75 253.98,35.81C253.86,36.86 253.79,37.91 253.81,38.96C253.83,40.01 253.94,41.07 254.12,42.12C254.3,43.18 254.58,44.24 254.91,45.28C255.24,46.34 255.67,47.39 256.1,48.44C256.53,49.5 257.02,50.55 257.49,51.6C257.95,52.65 258.45,53.69 258.89,54.75C259.32,55.8 259.75,56.85 260.11,57.91C260.47,58.96 260.78,60.01 261.04,61.07C261.3,62.12 261.51,63.17 261.68,64.23C261.85,65.28 261.95,66.34 262.04,67.39C262.12,68.44 262.16,69.49 262.19,70.54C262.22,71.59 262.21,72.65 262.21,73.7C262.21,74.75 262.18,75.81 262.16,76.86C262.14,77.91 262.13,78.97 262.11,80.02C262.1,81.07 262.08,82.13 262.07,83.18C262.06,84.23 262.06,85.28 262.05,86.33C262.04,87.38 262.03,88.44 262.01,89.49C261.99,90.54 261.97,91.6 261.94,92.65C261.91,93.7 261.87,94.76 261.83,95.81C261.79,96.86 261.74,97.92 261.71,98.97C261.68,100.02 261.66,101.07 261.66,102.12C261.66,103.17 261.68,104.23 261.73,105.28C261.78,106.33 261.86,107.39 261.95,108.44C262.04,109.49 262.16,110.55 262.28,111.6C262.4,112.65 262.54,113.71 262.67,114.76C262.8,115.81 262.94,116.86 263.05,117.91C263.17,118.96 263.27,120.02 263.36,121.07C263.45,122.12 263.52,123.18 263.58,124.23C263.64,125.28 263.68,126.34 263.72,127.39C263.76,128.44 263.79,129.5 263.81,130.55C263.83,131.6 263.84,132.65 263.85,133.7C263.86,134.75 263.87,135.81 263.87,136.86C263.87,137.91 263.87,138.97 263.87,140.02C263.87,141.07 263.88,142.13 263.88,143.18C263.88,144.23 263.87,145.29 263.87,146.34C263.87,147.39 263.86,148.44 263.86,149.49C263.85,150.54 263.85,151.6 263.84,152.65C263.83,153.7 263.82,154.76 263.8,155.81C263.78,156.86 263.76,157.92 263.74,158.97C263.72,160.02 263.69,161.08 263.66,162.13C263.63,163.18 263.59,164.23 263.56,165.28C263.53,166.33 263.49,167.39 263.46,168.44C263.43,169.49 263.4,170.55 263.38,171.6Q263.36,172.65 263.35,174.76Z" style="vector-effect: non-scaling-stroke; stroke-width: 2px; stroke: rgb(44, 160, 44); stroke-opacity: 1; fill: rgb(44, 160, 44); fill-opacity: 0.5;"/><path class="violin" d="M428.54,193.25Q428.54,189.9 428.53,188.23C428.52,186.56 428.5,184.88 428.49,183.21C428.48,181.54 428.46,179.86 428.45,178.19C428.44,176.52 428.43,174.84 428.43,173.17C428.43,171.5 428.44,169.82 428.45,168.15C428.46,166.48 428.48,164.81 428.51,163.14C428.54,161.47 428.58,159.79 428.62,158.12C428.66,156.45 428.71,154.77 428.76,153.1C428.81,151.43 428.86,149.75 428.9,148.08C428.94,146.41 428.99,144.73 429.02,143.06C429.05,141.39 429.08,139.71 429.09,138.04C429.1,136.37 429.1,134.7 429.1,133.03C429.1,131.36 429.08,129.68 429.06,128.01C429.04,126.34 429.02,124.66 429,122.99C428.98,121.32 428.96,119.64 428.95,117.97C428.94,116.3 428.94,114.62 428.95,112.95C428.96,111.28 428.99,109.6 429.03,107.93C429.07,106.26 429.13,104.59 429.19,102.92C429.25,101.25 429.33,99.57 429.41,97.9C429.49,96.23 429.58,94.55 429.66,92.88C429.74,91.21 429.82,89.53 429.89,87.86C429.96,86.19 430.02,84.51 430.08,82.84C430.13,81.17 430.18,79.49 430.22,77.82C430.26,76.15 430.29,74.47 430.33,72.8C430.37,71.13 430.41,69.46 430.48,67.79C430.56,66.12 430.64,64.44 430.78,62.77C430.92,61.1 431.09,59.42 431.32,57.75C431.55,56.07 431.85,54.4 432.17,52.73C432.5,51.05 432.89,49.38 433.27,47.71C433.65,46.04 434.09,44.37 434.46,42.69C434.83,41.02 435.21,39.36 435.48,37.68C435.75,36.01 435.99,34.34 436.09,32.66C436.19,30.99 436.2,29.31 436.1,27.64C436,25.96 435.79,24.29 435.51,22.62Q435.23,20.94 434.43,17.6L422,17.6Q421.2,20.94 420.92,22.62C420.64,24.29 420.42,25.96 420.32,27.64C420.22,29.31 420.24,30.99 420.34,32.66C420.44,34.34 420.67,36.01 420.94,37.68C421.21,39.36 421.59,41.02 421.96,42.69C422.33,44.37 422.77,46.04 423.15,47.71C423.53,49.38 423.92,51.05 424.25,52.73C424.57,54.4 424.87,56.07 425.1,57.75C425.33,59.42 425.51,61.09 425.65,62.77C425.79,64.44 425.87,66.12 425.94,67.79C426.01,69.46 426.05,71.13 426.09,72.8C426.13,74.47 426.16,76.15 426.2,77.82C426.24,79.49 426.29,81.17 426.34,82.84C426.4,84.51 426.46,86.19 426.53,87.86C426.6,89.53 426.69,91.21 426.77,92.88C426.85,94.55 426.93,96.23 427.01,97.9C427.09,99.57 427.17,101.25 427.23,102.92C427.29,104.59 427.35,106.26 427.39,107.93C427.43,109.6 427.46,111.28 427.47,112.95C427.48,114.62 427.49,116.3 427.48,117.97C427.47,119.64 427.45,121.32 427.43,122.99C427.41,124.66 427.39,126.34 427.37,128.01C427.35,129.68 427.33,131.36 427.32,133.03C427.31,134.7 427.32,136.37 427.33,138.04C427.34,139.71 427.37,141.39 427.4,143.06C427.43,144.73 427.48,146.41 427.52,148.08C427.57,149.75 427.62,151.43 427.67,153.1C427.72,154.77 427.77,156.45 427.81,158.12C427.85,159.79 427.89,161.47 427.92,163.14C427.95,164.81 427.97,166.48 427.98,168.15C427.99,169.82 427.99,171.5 427.99,173.17C427.99,174.84 427.98,176.52 427.97,178.19C427.96,179.86 427.94,181.54 427.93,183.21C427.92,184.88 427.91,186.56 427.9,188.23Q427.89,189.9 427.88,193.25Z" style="vector-effect: non-scaling-stroke; stroke-width: 2px; stroke: rgb(44, 160, 44); stroke-opacity: 1; fill: rgb(44, 160, 44); fill-opacity: 0.5;"/><path class="box" d="M97.03,45.45H102.06M97.03,71.42H102.06V28.01H97.03ZM99.55,71.42V119.32M99.55,28.01V17.7" style="vector-effect: non-scaling-stroke; stroke-width: 1.5px; stroke: rgb(0, 0, 0); stroke-opacity: 1; fill: rgb(44, 160, 44); fill-opacity: 0.5;"/><path class="box" d="M261.36,41.66H266.4M261.36,57.6H266.4V32.21H261.36ZM263.88,57.6V88.08M263.88,32.21V16.86" style="vector-effect: non-scaling-stroke; stroke-width: 1.5px; stroke: rgb(0, 0, 0); stroke-opacity: 1; fill: rgb(44, 160, 44); fill-opacity: 0.5;"/><path class="box" d="M425.7,35.2H430.73M425.7,67H430.73V26.37H425.7ZM428.21,67V125.71M428.21,26.37V17.6" style="vector-effect: non-scaling-stroke; stroke-width: 1.5px; stroke: rgb(0, 0, 0); stroke-opacity: 1; fill: rgb(44, 160, 44); fill-opacity: 0.5;"/><path class="mean" d="M97.03,54.04H102.06" style="fill: none; vector-effect: non-scaling-stroke; stroke-width: 1.5px; stroke-dasharray: 3px, 1.5px; stroke: rgb(255, 255, 255); stroke-opacity: 1;"/><path class="mean" d="M261.36,51.66H266.4" style="fill: none; vector-effect: non-scaling-stroke; stroke-width: 1.5px; stroke-dasharray: 3px, 1.5px; stroke: rgb(255, 255, 255); stroke-opacity: 1;"/><path class="mean" d="M425.7,51.3H430.73" style="fill: none; vector-effect: non-scaling-stroke; stroke-width: 1.5px; stroke-dasharray: 3px, 1.5px; stroke: rgb(255, 255, 255); stroke-opacity: 1;"/><g class="points"><path class="point" transform="translate(99.55,144.8)" d="M3,0A3,3 0 1,1 0,-3A3,3 0 0,1 3,0Z" style="opacity: 1; stroke-width: 1.5px; fill: rgb(44, 160, 44); fill-opacity: 1; stroke: rgb(0, 0, 0); stroke-opacity: 1;"/><path class="point" transform="translate(99.55,143.15)" d="M3,0A3,3 0 1,1 0,-3A3,3 0 0,1 3,0Z" style="opacity: 1; stroke-width: 1.5px; fill: rgb(44, 160, 44); fill-opacity: 1; stroke: rgb(0, 0, 0); stroke-opacity: 1;"/></g><g class="points"><path class="point" transform="translate(263.88,174.76)" d="M3,0A3,3 0 1,1 0,-3A3,3 0 0,1 3,0Z" style="opacity: 1; stroke-width: 1.5px; fill: rgb(44, 160, 44); fill-opacity: 1; stroke: rgb(0, 0, 0); stroke-opacity: 1;"/><path class="point" transform="translate(263.88,109.13)" d="M3,0A3,3 0 1,1 0,-3A3,3 0 0,1 3,0Z" style="opacity: 1; stroke-width: 1.5px; fill: rgb(44, 160, 44); fill-opacity: 1; stroke: rgb(0, 0, 0); stroke-opacity: 1;"/><path class="point" transform="translate(263.88,104.75)" d="M3,0A3,3 0 1,1 0,-3A3,3 0 0,1 3,0Z" style="opacity: 1; stroke-width: 1.5px; fill: rgb(44, 160, 44); fill-opacity: 1; stroke: rgb(0, 0, 0); stroke-opacity: 1;"/><path class="point" transform="translate(263.88,102.31)" d="M3,0A3,3 0 1,1 0,-3A3,3 0 0,1 3,0Z" style="opacity: 1; stroke-width: 1.5px; fill: rgb(44, 160, 44); fill-opacity: 1; stroke: rgb(0, 0, 0); stroke-opacity: 1;"/><path class="point" transform="translate(263.88,102.11)" d="M3,0A3,3 0 1,1 0,-3A3,3 0 0,1 3,0Z" style="opacity: 1; stroke-width: 1.5px; fill: rgb(44, 160, 44); fill-opacity: 1; stroke: rgb(0, 0, 0); stroke-opacity: 1;"/></g><g class="points"><path class="point" transform="translate(428.21,193.25)" d="M3,0A3,3 0 1,1 0,-3A3,3 0 0,1 3,0Z" style="opacity: 1; stroke-width: 1.5px; fill: rgb(44, 160, 44); fill-opacity: 1; stroke: rgb(0, 0, 0); stroke-opacity: 1;"/><path class="point" transform="translate(428.21,144.1)" d="M3,0A3,3 0 1,1 0,-3A3,3 0 0,1 3,0Z" style="opacity: 1; stroke-width: 1.5px; fill: rgb(44, 160, 44); fill-opacity: 1; stroke: rgb(0, 0, 0); stroke-opacity: 1;"/><path class="point" transform="translate(428.21,137.05)" d="M3,0A3,3 0 1,1 0,-3A3,3 0 0,1 3,0Z" style="opacity: 1; stroke-width: 1.5px; fill: rgb(44, 160, 44); fill-opacity: 1; stroke: rgb(0, 0, 0); stroke-opacity: 1;"/></g></g><g class="trace violins" style="opacity: 0.6;"><path class="violin" d="M130.53,137.5Q131.03,133.45 131.29,131.42C131.55,129.4 131.83,127.37 132.09,125.35C132.35,123.32 132.6,121.3 132.83,119.27C133.06,117.25 133.27,115.23 133.47,113.2C133.66,111.18 133.83,109.15 134,107.12C134.17,105.1 134.32,103.07 134.48,101.05C134.64,99.02 134.81,97 134.98,94.97C135.15,92.95 135.34,90.92 135.52,88.9C135.7,86.87 135.89,84.85 136.05,82.82C136.2,80.8 136.36,78.78 136.45,76.75C136.54,74.73 136.6,72.7 136.61,70.67C136.62,68.65 136.57,66.62 136.5,64.6C136.43,62.57 136.3,60.55 136.18,58.52C136.07,56.5 135.91,54.47 135.81,52.45C135.71,50.42 135.62,48.4 135.58,46.37C135.54,44.35 135.55,42.32 135.57,40.3C135.59,38.27 135.67,36.25 135.73,34.22C135.78,32.2 135.88,30.17 135.9,28.15C135.92,26.12 135.92,24.09 135.83,22.07Q135.74,20.04 135.35,16L121.26,16Q120.87,20.04 120.78,22.07C120.69,24.09 120.69,26.12 120.71,28.15C120.73,30.17 120.83,32.2 120.88,34.22C120.94,36.25 121.02,38.27 121.04,40.3C121.06,42.32 121.07,44.35 121.03,46.37C120.99,48.4 120.89,50.42 120.79,52.45C120.69,54.47 120.54,56.5 120.43,58.52C120.32,60.55 120.18,62.57 120.11,64.6C120.04,66.62 119.99,68.65 120,70.67C120.01,72.7 120.07,74.73 120.16,76.75C120.25,78.78 120.41,80.8 120.56,82.82C120.72,84.85 120.91,86.87 121.09,88.9C121.27,90.92 121.46,92.95 121.63,94.97C121.8,97 121.97,99.02 122.13,101.05C122.29,103.07 122.44,105.1 122.61,107.12C122.78,109.15 122.95,111.17 123.14,113.2C123.33,115.22 123.54,117.25 123.77,119.27C124,121.3 124.26,123.32 124.52,125.35C124.78,127.37 125.05,129.4 125.31,131.42Q125.57,133.45 126.08,137.5Z" style="vector-effect: non-scaling-stroke; stroke-width: 2px; stroke: rgb(214, 39, 40); stroke-opacity: 1; fill: rgb(214, 39, 40); fill-opacity: 0.5;"/><path class="violin" d="M293.27,193.62Q293.28,189.81 293.29,187.9C293.3,185.99 293.3,184.08 293.31,182.17C293.32,180.26 293.34,178.36 293.37,176.45C293.4,174.54 293.44,172.63 293.5,170.72C293.56,168.81 293.63,166.91 293.71,165C293.79,163.09 293.9,161.18 294,159.27C294.1,157.36 294.21,155.45 294.31,153.54C294.41,151.63 294.51,149.73 294.59,147.82C294.67,145.91 294.74,144 294.8,142.09C294.86,140.18 294.9,138.28 294.93,136.37C294.96,134.46 294.97,132.55 294.98,130.64C294.99,128.73 294.98,126.83 294.99,124.92C295,123.01 294.99,121.1 295.02,119.19C295.05,117.28 295.08,115.38 295.16,113.47C295.24,111.56 295.33,109.65 295.48,107.74C295.63,105.83 295.82,103.92 296.06,102.01C296.3,100.1 296.6,98.19 296.93,96.29C297.27,94.38 297.66,92.47 298.07,90.56C298.48,88.65 298.95,86.75 299.38,84.84C299.82,82.93 300.28,81.02 300.68,79.11C301.08,77.21 301.46,75.3 301.76,73.39C302.06,71.49 302.3,69.57 302.46,67.66C302.62,65.76 302.68,63.85 302.7,61.94C302.72,60.03 302.64,58.12 302.55,56.21C302.45,54.3 302.28,52.4 302.13,50.49C301.97,48.58 301.78,46.67 301.62,44.76C301.46,42.85 301.3,40.94 301.16,39.03C301.02,37.12 300.91,35.22 300.79,33.31C300.67,31.4 300.58,29.49 300.44,27.58C300.3,25.67 300.16,23.77 299.96,21.86Q299.76,19.95 299.24,16.13L286.04,16.13Q285.51,19.95 285.31,21.86C285.11,23.77 284.98,25.67 284.84,27.58C284.7,29.49 284.61,31.4 284.49,33.31C284.37,35.22 284.26,37.12 284.12,39.03C283.98,40.94 283.82,42.85 283.66,44.76C283.5,46.67 283.31,48.58 283.15,50.49C283,52.4 282.83,54.3 282.73,56.21C282.63,58.12 282.55,60.03 282.57,61.94C282.59,63.85 282.66,65.76 282.82,67.66C282.98,69.57 283.22,71.49 283.52,73.39C283.82,75.3 284.21,77.21 284.6,79.11C285,81.02 285.46,82.93 285.89,84.84C286.32,86.75 286.79,88.65 287.2,90.56C287.61,92.47 288.01,94.38 288.35,96.29C288.69,98.19 288.98,100.1 289.22,102.01C289.46,103.92 289.65,105.83 289.8,107.74C289.95,109.65 290.04,111.56 290.12,113.47C290.19,115.38 290.22,117.28 290.25,119.19C290.28,121.1 290.28,123.01 290.29,124.92C290.3,126.83 290.29,128.73 290.3,130.64C290.31,132.55 290.32,134.46 290.35,136.37C290.38,138.28 290.42,140.18 290.47,142.09C290.53,144 290.6,145.91 290.68,147.82C290.76,149.73 290.87,151.63 290.97,153.54C291.07,155.45 291.18,157.36 291.28,159.27C291.38,161.18 291.48,163.09 291.56,165C291.64,166.91 291.72,168.81 291.78,170.72C291.84,172.63 291.87,174.54 291.9,176.45C291.93,178.36 291.95,180.26 291.96,182.17C291.97,184.08 291.97,185.99 291.98,187.9Q291.99,189.81 292.01,193.62Z" style="vector-effect: non-scaling-stroke; stroke-width: 2px; stroke: rgb(214, 39, 40); stroke-opacity: 1; fill: rgb(214, 39, 40); fill-opacity: 0.5;"/><path class="violin" d="M458.72,150.7Q459.04,146.21 459.21,143.97C459.38,141.72 459.56,139.48 459.75,137.23C459.94,134.99 460.15,132.74 460.37,130.5C460.59,128.25 460.81,126.01 461.05,123.76C461.29,121.52 461.55,119.27 461.79,117.03C462.03,114.78 462.28,112.54 462.5,110.29C462.72,108.05 462.93,105.81 463.09,103.56C463.25,101.32 463.39,99.07 463.47,96.82C463.55,94.58 463.58,92.33 463.59,90.09C463.6,87.84 463.55,85.6 463.5,83.35C463.45,81.11 463.37,78.86 463.31,76.62C463.25,74.37 463.17,72.13 463.14,69.88C463.11,67.64 463.1,65.39 463.13,63.15C463.16,60.9 463.23,58.65 463.33,56.41C463.43,54.16 463.59,51.92 463.75,49.68C463.91,47.43 464.12,45.19 464.29,42.94C464.46,40.7 464.66,38.46 464.79,36.21C464.92,33.97 465.04,31.72 465.06,29.47C465.08,27.23 465.05,24.98 464.93,22.74Q464.81,20.49 464.31,16L449.63,16Q449.14,20.49 449.02,22.74C448.9,24.98 448.87,27.23 448.89,29.47C448.91,31.72 449.03,33.97 449.16,36.21C449.29,38.46 449.49,40.7 449.66,42.94C449.83,45.19 450.03,47.43 450.19,49.68C450.35,51.92 450.51,54.17 450.61,56.41C450.72,58.66 450.79,60.9 450.82,63.15C450.85,65.39 450.83,67.64 450.8,69.88C450.77,72.13 450.69,74.37 450.63,76.62C450.57,78.86 450.49,81.11 450.44,83.35C450.39,85.6 450.34,87.84 450.35,90.09C450.36,92.33 450.39,94.58 450.47,96.82C450.55,99.07 450.69,101.32 450.85,103.56C451.01,105.81 451.22,108.05 451.44,110.29C451.66,112.54 451.91,114.78 452.15,117.03C452.39,119.27 452.65,121.52 452.89,123.76C453.13,126.01 453.36,128.25 453.58,130.5C453.8,132.74 454,134.99 454.19,137.23C454.38,139.48 454.57,141.72 454.74,143.97Q454.91,146.21 455.22,150.7Z" style="vector-effect: non-scaling-stroke; stroke-width: 2px; stroke: rgb(214, 39, 40); stroke-opacity: 1; fill: rgb(214, 39, 40); fill-opacity: 0.5;"/><path class="box" d="M125.79,63.47H130.82M125.79,80.96H130.82V20.1H125.79ZM128.3,80.96V137.5M128.3,20.1V16" style="vector-effect: non-scaling-stroke; stroke-width: 1.5px; stroke: rgb(0, 0, 0); stroke-opacity: 1; fill: rgb(214, 39, 40); fill-opacity: 0.5;"/><path class="box" d="M290.12,63.06H295.15M290.12,76.39H295.15V30.15H290.12ZM292.64,76.39V133.99M292.64,30.15V16.13" style="vector-effect: non-scaling-stroke; stroke-width: 1.5px; stroke: rgb(0, 0, 0); stroke-opacity: 1; fill: rgb(214, 39, 40); fill-opacity: 0.5;"/><path class="box" d="M454.45,55.31H459.49M454.45,96.92H459.49V21.49H454.45ZM456.97,96.92V150.7M456.97,21.49V16" style="vector-effect: non-scaling-stroke; stroke-width: 1.5px; stroke: rgb(0, 0, 0); stroke-opacity: 1; fill: rgb(214, 39, 40); fill-opacity: 0.5;"/><path class="mean" d="M125.79,62.58H130.82" style="fill: none; vector-effect: non-scaling-stroke; stroke-width: 1.5px; stroke-dasharray: 3px, 1.5px; stroke: rgb(255, 255, 255); stroke-opacity: 1;"/><path class="mean" d="M290.12,65.05H295.15" style="fill: none; vector-effect: non-scaling-stroke; stroke-width: 1.5px; stroke-dasharray: 3px, 1.5px; stroke: rgb(255, 255, 255); stroke-opacity: 1;"/><path class="mean" d="M454.45,63.71H459.49" style="fill: none; vector-effect: non-scaling-stroke; stroke-width: 1.5px; stroke-dasharray: 3px, 1.5px; stroke: rgb(255, 255, 255); stroke-opacity: 1;"/><g class="points"/><g class="points"><path class="point" transform="translate(292.64,193.62)" d="M3,0A3,3 0 1,1 0,-3A3,3 0 0,1 3,0Z" style="opacity: 1; stroke-width: 1.5px; fill: rgb(214, 39, 40); fill-opacity: 1; stroke: rgb(0, 0, 0); stroke-opacity: 1;"/><path class="point" transform="translate(292.64,151.11)" d="M3,0A3,3 0 1,1 0,-3A3,3 0 0,1 3,0Z" style="opacity: 1; stroke-width: 1.5px; fill: rgb(214, 39, 40); fill-opacity: 1; stroke: rgb(0, 0, 0); stroke-opacity: 1;"/><path class="point" transform="translate(292.64,145.82)" d="M3,0A3,3 0 1,1 0,-3A3,3 0 0,1 3,0Z" style="opacity: 1; stroke-width: 1.5px; fill: rgb(214, 39, 40); fill-opacity: 1; stroke: rgb(0, 0, 0); stroke-opacity: 1;"/></g><g class="points"/></g></g></g><g class="overplot"/><path class="xlines-above crisp" d="M0,0" style="fill: none;"/><path class="ylines-above crisp" d="M0,0" style="fill: none;"/><g class="overlines-above"/><g class="xaxislayer-above"><g class="xtick"><text text-anchor="middle" x="0" y="439" transform="translate(165.17000000000002,0)" style="font-family: 'Open Sans', verdana, arial, sans-serif; font-size: 18px; fill: rgb(68, 68, 68); fill-opacity: 1; white-space: pre;">Precision</text></g><g class="xtick"><text text-anchor="middle" x="0" y="439" transform="translate(329.5,0)" style="font-family: 'Open Sans', verdana, arial, sans-serif; font-size: 18px; fill: rgb(68, 68, 68); fill-opacity: 1; white-space: pre;">Recall</text></g><g class="xtick"><text text-anchor="middle" x="0" y="439" transform="translate(493.83,0)" style="font-family: 'Open Sans', verdana, arial, sans-serif; font-size: 18px; fill: rgb(68, 68, 68); fill-opacity: 1; white-space: pre;">F-measure</text></g></g><g class="yaxislayer-above"><g class="ytick"><text text-anchor="end" x="79" y="4.199999999999999" transform="translate(0,390.49)" style="font-family: 'Open Sans', verdana, arial, sans-serif; font-size: 12px; fill: rgb(68, 68, 68); fill-opacity: 1; white-space: pre;">0.2</text></g><g class="ytick"><text text-anchor="end" x="79" y="4.199999999999999" transform="translate(0,321.87)" style="font-family: 'Open Sans', verdana, arial, sans-serif; font-size: 12px; fill: rgb(68, 68, 68); fill-opacity: 1; white-space: pre;">0.4</text></g><g class="ytick"><text text-anchor="end" x="79" y="4.199999999999999" transform="translate(0,253.25)" style="font-family: 'Open Sans', verdana, arial, sans-serif; font-size: 12px; fill: rgb(68, 68, 68); fill-opacity: 1; white-space: pre;">0.6</text></g><g class="ytick"><text text-anchor="end" x="79" y="4.199999999999999" transform="translate(0,184.62)" style="font-family: 'Open Sans', verdana, arial, sans-serif; font-size: 12px; fill: rgb(68, 68, 68); fill-opacity: 1; white-space: pre;">0.8</text></g><g class="ytick"><text text-anchor="end" x="79" y="4.199999999999999" transform="translate(0,116)" style="font-family: 'Open Sans', verdana, arial, sans-serif; font-size: 12px; fill: rgb(68, 68, 68); fill-opacity: 1; white-space: pre;">1</text></g></g><g class="overaxes-above"/></g></g><g class="polarlayer"/><g class="ternarylayer"/><g class="geolayer"/><g class="pielayer"/><g class="glimages"/><defs id="topdefs-127995"><g class="clips"/><clipPath id="legend127995"><rect width="99" height="86" x="0" y="0"/></clipPath></defs><g class="layer-above"><g class="imagelayer"/><g class="shapelayer"/></g><g class="infolayer"><g class="legend" pointer-events="all" transform="translate(588.98, 100)"><rect class="bg" shape-rendering="crispEdges" style="stroke: rgb(68, 68, 68); stroke-opacity: 1; fill: rgb(255, 255, 255); fill-opacity: 1; stroke-width: 0px;" width="99" height="86" x="0" y="0"/><g class="scrollbox" transform="translate(0, 0)" clip-path="url(#legend127995)"><g class="groups"><g class="traces" transform="translate(0, 14.5)" style="opacity: 1;"><text class="legendtext user-select-none" text-anchor="start" x="40" y="4.680000000000001" style="font-family: 'Open Sans', verdana, arial, sans-serif; font-size: 12px; fill: rgb(68, 68, 68); fill-opacity: 1; white-space: pre;">chew </text><rect class="legendtoggle" pointer-events="all" style="cursor: pointer; fill: rgb(0, 0, 0); fill-opacity: 0;" x="0" y="-9.5" width="139" height="19"/><g class="layers" style="opacity: 0.6;"><g class="legendfill"/><g class="legendlines"/><g class="legendsymbols"><g class="legendpoints"><path class="legendbox" d="M6,6H-6V-6H6Z" transform="translate(20,0)" style="stroke-width: 2px; fill: rgb(31, 119, 180); fill-opacity: 0.5; stroke: rgb(31, 119, 180); stroke-opacity: 1;"/></g></g></g></g><g class="traces" transform="translate(0, 33.5)" style="opacity: 1;"><text class="legendtext user-select-none" text-anchor="start" x="40" y="4.680000000000001" style="font-family: 'Open Sans', verdana, arial, sans-serif; font-size: 12px; fill: rgb(68, 68, 68); fill-opacity: 1; white-space: pre;">cnn mono</text><rect class="legendtoggle" pointer-events="all" style="cursor: pointer; fill: rgb(0, 0, 0); fill-opacity: 0;" x="0" y="-9.5" width="139" height="19"/><g class="layers" style="opacity: 0.6;"><g class="legendfill"/><g class="legendlines"/><g class="legendsymbols"><g class="legendpoints"><path class="legendbox" d="M6,6H-6V-6H6Z" transform="translate(20,0)" style="stroke-width: 2px; fill: rgb(255, 127, 14); fill-opacity: 0.5; stroke: rgb(255, 127, 14); stroke-opacity: 1;"/></g></g></g></g><g class="traces" transform="translate(0, 52.5)" style="opacity: 1;"><text class="legendtext user-select-none" text-anchor="start" x="40" y="4.680000000000001" style="font-family: 'Open Sans', verdana, arial, sans-serif; font-size: 12px; fill: rgb(68, 68, 68); fill-opacity: 1; white-space: pre;">cnn </text><rect class="legendtoggle" pointer-events="all" style="cursor: pointer; fill: rgb(0, 0, 0); fill-opacity: 0;" x="0" y="-9.5" width="139" height="19"/><g class="layers" style="opacity: 0.6;"><g class="legendfill"/><g class="legendlines"/><g class="legendsymbols"><g class="legendpoints"><path class="legendbox" d="M6,6H-6V-6H6Z" transform="translate(20,0)" style="stroke-width: 2px; fill: rgb(44, 160, 44); fill-opacity: 0.5; stroke: rgb(44, 160, 44); stroke-opacity: 1;"/></g></g></g></g><g class="traces" transform="translate(0, 71.5)" style="opacity: 1;"><text class="legendtext user-select-none" text-anchor="start" x="40" y="4.680000000000001" style="font-family: 'Open Sans', verdana, arial, sans-serif; font-size: 12px; fill: rgb(68, 68, 68); fill-opacity: 1; white-space: pre;">skyline </text><rect class="legendtoggle" pointer-events="all" x="0" y="-9.5" width="139" height="19" style="cursor: pointer; fill: rgb(0, 0, 0); fill-opacity: 0;"/><g class="layers" style="opacity: 0.6;"><g class="legendfill"/><g class="legendlines"/><g class="legendsymbols"><g class="legendpoints"><path class="legendbox" d="M6,6H-6V-6H6Z" transform="translate(20,0)" style="stroke-width: 2px; fill: rgb(214, 39, 40); fill-opacity: 0.5; stroke: rgb(214, 39, 40); stroke-opacity: 1;"/></g></g></g></g></g></g><rect class="scrollbar" rx="20" ry="3" width="0" height="0" style="fill: rgb(128, 139, 164); fill-opacity: 1;" x="0" y="0"/></g><g class="g-gtitle"><text class="gtitle" x="350" y="50" text-anchor="middle" dy="0em" style="font-family: 'Open Sans', verdana, arial, sans-serif; font-size: 17px; fill: rgb(68, 68, 68); opacity: 1; font-weight: normal; white-space: pre;">Mozart crossvalidation</text></g><g class="g-xtitle"/><g class="g-ytitle"/><g class="annotation" data-index="0" style="opacity: 1;"><g class="annotation-text-g" transform="rotate(0,165.17000000000002,411)"><g class="cursor-pointer" transform="translate(125, 402)"><rect class="bg" x="0.5" y="0.5" width="79" height="17" style="stroke-width: 1px; stroke: rgb(0, 0, 0); stroke-opacity: 0; fill: rgb(0, 0, 0); fill-opacity: 0;"/><text class="annotation-text" text-anchor="middle" x="39.859375" y="13" style="font-family: 'Open Sans', verdana, arial, sans-serif; font-size: 12px; fill: rgb(68, 68, 68); fill-opacity: 1; white-space: pre;">p = 3.137E-19</text></g></g><g class="annotation-arrow-g" style="opacity: 1;"><path d="M165.17000000000002,402.5L165.17000000000002,381" style="stroke-width: 2px; stroke: rgb(68, 68, 68); stroke-opacity: 1; stroke-dasharray: 0px, 0px, 20.3px, 21.5px;"/><path d="M-2.4,-3V3L0.6,0Z" transform="translate(165.1699981689453,382.20001220703125)rotate(-90)scale(2)" style="fill: rgb(68, 68, 68); stroke-width: 0;"/></g></g><g class="annotation" data-index="1" style="opacity: 1;"><g class="annotation-text-g" transform="rotate(0,329.5,411)"><g class="cursor-pointer" transform="translate(290, 402)"><rect class="bg" x="0.5" y="0.5" width="79" height="17" style="stroke-width: 1px; stroke: rgb(0, 0, 0); stroke-opacity: 0; fill: rgb(0, 0, 0); fill-opacity: 0;"/><text class="annotation-text" text-anchor="middle" x="39.859375" y="13" style="font-family: 'Open Sans', verdana, arial, sans-serif; font-size: 12px; fill: rgb(68, 68, 68); fill-opacity: 1; white-space: pre;">p = 7.818E-24</text></g></g><g class="annotation-arrow-g" style="opacity: 1;"><path d="M329.5,402.5L329.5,381" style="stroke-width: 2px; stroke: rgb(68, 68, 68); stroke-opacity: 1; stroke-dasharray: 0px, 0px, 20.3px, 21.5px;"/><path d="M-2.4,-3V3L0.6,0Z" transform="translate(329.5,382.20001220703125)rotate(-90)scale(2)" style="fill: rgb(68, 68, 68); stroke-width: 0;"/></g></g><g class="annotation" data-index="2" style="opacity: 1;"><g class="annotation-text-g" transform="rotate(0,493.83,411)"><g class="cursor-pointer" transform="translate(454, 402)"><rect class="bg" x="0.5" y="0.5" width="79" height="17" style="stroke-width: 1px; stroke: rgb(0, 0, 0); stroke-opacity: 0; fill: rgb(0, 0, 0); fill-opacity: 0;"/><text class="annotation-text" text-anchor="middle" x="39.859375" y="13" style="font-family: 'Open Sans', verdana, arial, sans-serif; font-size: 12px; fill: rgb(68, 68, 68); fill-opacity: 1; white-space: pre;">p = 1.873E-17</text></g></g><g class="annotation-arrow-g" style="opacity: 1;"><path d="M493.83,402.5L493.83,381" style="stroke-width: 2px; stroke: rgb(68, 68, 68); stroke-opacity: 1; stroke-dasharray: 0px, 0px, 20.3px, 21.5px;"/><path d="M-2.4,-3V3L0.6,0Z" transform="translate(493.8299865722656,382.20001220703125)rotate(-90)scale(2)" style="fill: rgb(68, 68, 68); stroke-width: 0;"/></g></g></g></svg>