<?xml version="1.0" encoding="UTF-8" standalone="no"?>
<svg
   xmlns:dc="http://purl.org/dc/elements/1.1/"
   xmlns:cc="http://creativecommons.org/ns#"
   xmlns:rdf="http://www.w3.org/1999/02/22-rdf-syntax-ns#"
   xmlns:svg="http://www.w3.org/2000/svg"
   xmlns="http://www.w3.org/2000/svg"
   xmlns:sodipodi="http://sodipodi.sourceforge.net/DTD/sodipodi-0.dtd"
   xmlns:inkscape="http://www.inkscape.org/namespaces/inkscape"
   class="main-svg"
   width="700"
   height="500"
   viewBox="0 0 700 500"
   version="1.1"
   id="svg457"
   sodipodi:docname="pop.svg"
   inkscape:version="0.92.4 5da689c313, 2019-01-14">
  <metadata
     id="metadata461">
    <rdf:RDF>
      <cc:Work
         rdf:about="">
        <dc:format>image/svg+xml</dc:format>
        <dc:type
           rdf:resource="http://purl.org/dc/dcmitype/StillImage" />
      </cc:Work>
    </rdf:RDF>
  </metadata>
  <sodipodi:namedview
     pagecolor="#ffffff"
     bordercolor="#666666"
     borderopacity="1"
     objecttolerance="10"
     gridtolerance="10"
     guidetolerance="10"
     inkscape:pageopacity="0"
     inkscape:pageshadow="2"
     inkscape:window-width="1920"
     inkscape:window-height="1019"
     id="namedview459"
     showgrid="false"
     inkscape:zoom="21.360282"
     inkscape:cx="653.13666"
     inkscape:cy="358.04724"
     inkscape:window-x="0"
     inkscape:window-y="27"
     inkscape:window-maximized="1"
     inkscape:current-layer="g393" />
  <defs
     id="defs-e74a2c">
    <g
       class="clips"
       id="g16">
      <clipPath
         id="clipe74a2cxyplot"
         class="plotclip">
        <rect
           width="499"
           height="320"
           id="rect4" />
      </clipPath>
      <clipPath
         class="axesclip"
         id="clipe74a2cx">
        <rect
           x="80"
           y="0"
           width="499"
           height="500"
           id="rect7" />
      </clipPath>
      <clipPath
         class="axesclip"
         id="clipe74a2cy">
        <rect
           x="0"
           y="100"
           width="700"
           height="320"
           id="rect10" />
      </clipPath>
      <clipPath
         class="axesclip"
         id="clipe74a2cxy">
        <rect
           x="80"
           y="100"
           width="499"
           height="320"
           id="rect13" />
      </clipPath>
    </g>
    <g
       class="gradients"
       id="g18" />
  </defs>
  <g
     class="bglayer"
     id="g21" />
  <g
     class="layer-below"
     id="g27">
    <g
       class="imagelayer"
       id="g23" />
    <g
       class="shapelayer"
       id="g25" />
  </g>
  <g
     class="layer-subplot"
     id="g33">
    <g
       class="shapelayer"
       id="g29" />
    <g
       class="imagelayer"
       id="g31" />
  </g>
  <g
     class="zerolinelayer"
     id="g53" />
  <g
     class="overlines-below"
     id="g59" />
  <g
     class="xaxislayer-below"
     id="g61" />
  <g
     class="yaxislayer-below"
     id="g63" />
  <g
     class="overaxes-below"
     id="g65" />
  <g
     id="g3487">
    <g
       id="g51"
       class="gridlayer">
      <g
         id="g35"
         class="x" />
      <g
         id="g49"
         class="y">
        <path
           inkscape:connector-curvature="0"
           id="path37"
           style="stroke:#eeeeee;stroke-width:1px;stroke-opacity:1"
           d="M 80,0 H 579"
           transform="translate(0,381)"
           class="ygrid crisp" />
        <path
           inkscape:connector-curvature="0"
           id="path39"
           style="stroke:#eeeeee;stroke-width:1px;stroke-opacity:1"
           d="M 80,0 H 579"
           transform="translate(0,328)"
           class="ygrid crisp" />
        <path
           inkscape:connector-curvature="0"
           id="path41"
           style="stroke:#eeeeee;stroke-width:1px;stroke-opacity:1"
           d="M 80,0 H 579"
           transform="translate(0,275)"
           class="ygrid crisp" />
        <path
           inkscape:connector-curvature="0"
           id="path43"
           style="stroke:#eeeeee;stroke-width:1px;stroke-opacity:1"
           d="M 80,0 H 579"
           transform="translate(0,222)"
           class="ygrid crisp" />
        <path
           inkscape:connector-curvature="0"
           id="path45"
           style="stroke:#eeeeee;stroke-width:1px;stroke-opacity:1"
           d="M 80,0 H 579"
           transform="translate(0,169)"
           class="ygrid crisp" />
        <path
           inkscape:connector-curvature="0"
           id="path47"
           style="stroke:#eeeeee;stroke-width:1px;stroke-opacity:1"
           d="M 80,0 H 579"
           transform="translate(0,116)"
           class="ygrid crisp" />
      </g>
    </g>
    <g
       id="g239"
       clip-path="url(#clipe74a2cxyplot)"
       transform="translate(80,100)"
       class="plot">
      <g
         id="g237"
         class="violinlayer mlayer">
        <g
           id="g111"
           style="opacity:0.6"
           class="trace violins">
          <path
             inkscape:connector-curvature="0"
             id="path67"
             style="vector-effect:non-scaling-stroke;fill:#1f77b4;fill-opacity:0.5;stroke:#1f77b4;stroke-width:2px;stroke-opacity:1"
             d="m 43.26,242.75 q 0.27,-2.22 0.41,-3.33 c 0.15,-1.11 0.3,-2.22 0.46,-3.33 0.17,-1.11 0.34,-2.22 0.53,-3.33 0.19,-1.11 0.39,-2.23 0.62,-3.34 0.23,-1.11 0.48,-2.22 0.76,-3.33 0.28,-1.11 0.58,-2.22 0.9,-3.33 0.32,-1.11 0.68,-2.22 1.03,-3.33 0.35,-1.11 0.74,-2.23 1.09,-3.34 0.35,-1.11 0.71,-2.22 1.03,-3.33 0.32,-1.11 0.62,-2.22 0.87,-3.33 0.25,-1.11 0.46,-2.22 0.63,-3.33 0.17,-1.11 0.29,-2.23 0.37,-3.34 0.08,-1.11 0.12,-2.22 0.13,-3.33 0.01,-1.11 -0.01,-2.22 -0.06,-3.33 -0.05,-1.11 -0.13,-2.22 -0.22,-3.33 -0.09,-1.11 -0.21,-2.23 -0.34,-3.34 -0.14,-1.11 -0.29,-2.22 -0.47,-3.33 -0.18,-1.11 -0.38,-2.22 -0.59,-3.33 -0.21,-1.11 -0.45,-2.22 -0.69,-3.33 -0.24,-1.11 -0.5,-2.23 -0.76,-3.34 -0.26,-1.11 -0.54,-2.22 -0.81,-3.33 -0.27,-1.11 -0.54,-2.22 -0.81,-3.33 -0.27,-1.11 -0.54,-2.22 -0.79,-3.33 -0.25,-1.11 -0.5,-2.23 -0.73,-3.34 -0.23,-1.11 -0.45,-2.22 -0.66,-3.33 -0.21,-1.11 -0.4,-2.22 -0.58,-3.33 -0.18,-1.11 -0.35,-2.22 -0.5,-3.33 -0.15,-1.11 -0.29,-2.22 -0.42,-3.33 -0.12,-1.11 -0.23,-2.23 -0.33,-3.34 -0.09,-1.11 -0.17,-2.22 -0.24,-3.33 -0.07,-1.11 -0.12,-2.22 -0.16,-3.33 -0.04,-1.11 -0.07,-2.22 -0.1,-3.33 -0.03,-1.11 -0.05,-2.23 -0.08,-3.34 -0.02,-1.11 -0.04,-2.22 -0.07,-3.33 -0.03,-1.11 -0.06,-2.22 -0.09,-3.33 -0.03,-1.11 -0.07,-2.22 -0.11,-3.33 -0.04,-1.11 -0.07,-2.23 -0.11,-3.34 -0.04,-1.11 -0.08,-2.22 -0.11,-3.33 -0.03,-1.11 -0.06,-2.22 -0.09,-3.33 -0.02,-1.11 -0.04,-2.22 -0.06,-3.33 -0.02,-1.11 -0.03,-2.23 -0.04,-3.34 -0.01,-1.11 -0.02,-2.22 -0.02,-3.33 0,-1.11 0,-2.22 0,-3.33 0,-1.11 0,-2.22 0.01,-3.33 0.01,-1.11 0.02,-2.23 0.03,-3.34 0.01,-1.11 0.03,-2.22 0.05,-3.33 0.02,-1.11 0.05,-2.22 0.08,-3.33 0.03,-1.11 0.07,-2.22 0.11,-3.33 0.04,-1.11 0.09,-2.23 0.13,-3.34 0.04,-1.11 0.09,-2.22 0.13,-3.33 0.05,-1.11 0.1,-2.22 0.14,-3.33 0.04,-1.11 0.07,-2.22 0.1,-3.33 0.03,-1.11 0.06,-2.22 0.08,-3.33 0.02,-1.11 0.03,-2.23 0.03,-3.34 0,-1.11 -0.01,-2.22 -0.02,-3.33 -0.01,-1.11 -0.04,-2.22 -0.07,-3.33 q -0.03,-1.11 -0.11,-3.33 h -1.42 q -0.08,2.22 -0.11,3.33 c -0.03,1.11 -0.06,2.22 -0.07,3.33 -0.01,1.11 -0.02,2.22 -0.02,3.33 0,1.11 0.01,2.23 0.03,3.34 0.02,1.11 0.04,2.22 0.07,3.33 0.03,1.11 0.07,2.22 0.11,3.33 0.04,1.11 0.09,2.22 0.13,3.33 0.05,1.11 0.1,2.22 0.14,3.33 0.05,1.11 0.09,2.23 0.13,3.34 0.04,1.11 0.08,2.22 0.11,3.33 0.03,1.11 0.06,2.22 0.08,3.33 0.02,1.11 0.04,2.22 0.05,3.33 0.01,1.11 0.02,2.23 0.03,3.34 0.01,1.11 0.01,2.22 0.01,3.33 0,1.11 0,2.22 0,3.33 0,1.11 -0.01,2.22 -0.02,3.33 -0.01,1.11 -0.02,2.23 -0.04,3.34 -0.02,1.11 -0.04,2.22 -0.06,3.33 -0.03,1.11 -0.06,2.22 -0.09,3.33 -0.03,1.11 -0.07,2.22 -0.11,3.33 -0.04,1.11 -0.08,2.23 -0.12,3.34 -0.04,1.11 -0.07,2.22 -0.1,3.33 -0.03,1.11 -0.06,2.22 -0.09,3.33 -0.03,1.11 -0.06,2.22 -0.08,3.33 -0.03,1.11 -0.04,2.23 -0.07,3.34 -0.03,1.11 -0.06,2.22 -0.1,3.33 -0.04,1.11 -0.09,2.22 -0.16,3.33 -0.07,1.11 -0.15,2.22 -0.24,3.33 -0.1,1.11 -0.21,2.23 -0.33,3.34 -0.13,1.11 -0.27,2.22 -0.42,3.33 -0.15,1.11 -0.32,2.22 -0.5,3.33 -0.18,1.11 -0.38,2.22 -0.59,3.33 -0.21,1.11 -0.42,2.22 -0.65,3.33 -0.23,1.11 -0.48,2.23 -0.73,3.34 -0.25,1.11 -0.52,2.22 -0.79,3.33 -0.27,1.11 -0.54,2.22 -0.81,3.33 -0.27,1.11 -0.55,2.22 -0.81,3.33 -0.26,1.11 -0.53,2.23 -0.77,3.34 -0.24,1.11 -0.48,2.22 -0.69,3.33 -0.21,1.11 -0.4,2.22 -0.58,3.33 -0.17,1.11 -0.33,2.22 -0.47,3.33 -0.14,1.11 -0.26,2.23 -0.35,3.34 -0.09,1.11 -0.16,2.22 -0.21,3.33 -0.05,1.11 -0.08,2.22 -0.07,3.33 0.01,1.11 0.05,2.22 0.13,3.33 0.08,1.11 0.2,2.23 0.37,3.34 0.17,1.11 0.39,2.22 0.64,3.33 0.25,1.11 0.55,2.22 0.87,3.33 0.32,1.11 0.68,2.22 1.03,3.33 0.35,1.11 0.74,2.23 1.09,3.34 0.35,1.11 0.71,2.22 1.03,3.33 0.32,1.11 0.62,2.22 0.9,3.33 0.27,1.11 0.52,2.22 0.75,3.33 0.23,1.11 0.44,2.23 0.63,3.34 0.19,1.11 0.36,2.22 0.53,3.33 0.16,1.11 0.31,2.22 0.46,3.33 q 0.14,1.11 0.41,3.33 z"
             class="violin" />
          <path
             inkscape:connector-curvature="0"
             id="path69"
             style="vector-effect:non-scaling-stroke;fill:#1f77b4;fill-opacity:0.5;stroke:#1f77b4;stroke-width:2px;stroke-opacity:1"
             d="m 210.3,233.4 q 0.79,-2.9 1.15,-4.35 c 0.36,-1.44 0.71,-2.89 1.01,-4.34 0.3,-1.45 0.57,-2.9 0.79,-4.35 0.22,-1.45 0.39,-2.9 0.54,-4.35 0.15,-1.45 0.25,-2.9 0.34,-4.35 0.09,-1.45 0.15,-2.9 0.2,-4.35 0.05,-1.45 0.09,-2.89 0.11,-4.34 0.02,-1.45 0.03,-2.9 0.01,-4.35 -0.02,-1.45 -0.06,-2.9 -0.13,-4.35 -0.07,-1.45 -0.17,-2.9 -0.3,-4.35 -0.13,-1.45 -0.29,-2.9 -0.46,-4.35 -0.17,-1.45 -0.38,-2.89 -0.58,-4.34 -0.2,-1.45 -0.43,-2.9 -0.64,-4.35 -0.21,-1.45 -0.44,-2.9 -0.64,-4.35 -0.2,-1.45 -0.4,-2.9 -0.58,-4.35 -0.18,-1.45 -0.36,-2.9 -0.52,-4.35 -0.16,-1.45 -0.31,-2.89 -0.46,-4.34 -0.15,-1.45 -0.3,-2.9 -0.45,-4.35 -0.15,-1.45 -0.29,-2.9 -0.43,-4.35 -0.14,-1.45 -0.29,-2.9 -0.43,-4.35 -0.14,-1.45 -0.27,-2.9 -0.4,-4.35 -0.12,-1.45 -0.24,-2.89 -0.35,-4.34 -0.11,-1.45 -0.21,-2.9 -0.3,-4.35 -0.09,-1.45 -0.17,-2.9 -0.24,-4.35 -0.07,-1.45 -0.13,-2.9 -0.19,-4.35 -0.06,-1.45 -0.12,-2.9 -0.17,-4.35 -0.05,-1.45 -0.1,-2.89 -0.15,-4.34 -0.05,-1.45 -0.09,-2.9 -0.14,-4.35 -0.04,-1.45 -0.09,-2.9 -0.13,-4.35 -0.04,-1.45 -0.07,-2.9 -0.1,-4.35 -0.03,-1.45 -0.05,-2.9 -0.07,-4.35 -0.02,-1.45 -0.02,-2.89 -0.03,-4.34 -0.01,-1.45 0,-2.9 0,-4.35 0,-1.45 0.01,-2.9 0.01,-4.35 0.01,-1.45 0.01,-2.9 0.02,-4.35 0,-1.45 0.01,-2.9 0.01,-4.35 0,-1.45 -0.01,-2.9 -0.02,-4.35 -0.01,-1.45 -0.02,-2.89 -0.03,-4.34 -0.01,-1.45 -0.03,-2.9 -0.04,-4.35 -0.02,-1.45 -0.04,-2.9 -0.05,-4.35 -0.01,-1.45 -0.02,-2.9 -0.03,-4.35 -0.01,-1.45 -0.02,-2.9 -0.03,-4.35 -0.01,-1.45 -0.01,-2.89 -0.01,-4.34 0,-1.45 0.01,-2.9 0.01,-4.35 0.01,-1.45 0.01,-2.9 0.02,-4.35 0.01,-1.45 0.03,-2.9 0.04,-4.35 0.01,-1.45 0.02,-2.9 0.04,-4.35 0.01,-1.45 0.04,-2.89 0.05,-4.34 0.01,-1.45 0.02,-2.9 0.03,-4.35 q 0.01,-1.45 0.01,-4.35 h -0.46 q 0,2.9 0.01,4.35 c 0.01,1.45 0.03,2.9 0.04,4.35 0.01,1.45 0.03,2.89 0.04,4.34 0.02,1.45 0.04,2.9 0.05,4.35 0.01,1.45 0.02,2.9 0.03,4.35 0.01,1.45 0.01,2.9 0.02,4.35 0,1.45 0.01,2.9 0.01,4.35 0,1.45 -0.01,2.89 -0.01,4.34 -0.01,1.45 -0.01,2.9 -0.02,4.35 -0.01,1.45 -0.03,2.9 -0.04,4.35 -0.01,1.45 -0.03,2.9 -0.04,4.35 -0.02,1.45 -0.04,2.9 -0.05,4.35 -0.01,1.45 -0.02,2.89 -0.03,4.34 -0.01,1.45 -0.01,2.9 -0.01,4.35 0,1.45 0,2.9 0,4.35 0,1.45 0.01,2.9 0.02,4.35 0.01,1.45 0.02,2.9 0.02,4.35 0,1.45 0.01,2.9 0,4.35 -0.01,1.45 -0.02,2.89 -0.04,4.34 -0.02,1.45 -0.03,2.9 -0.06,4.35 -0.03,1.45 -0.07,2.9 -0.11,4.35 -0.04,1.45 -0.08,2.9 -0.12,4.35 -0.04,1.45 -0.09,2.9 -0.14,4.35 -0.05,1.45 -0.11,2.89 -0.16,4.34 -0.05,1.45 -0.1,2.9 -0.16,4.35 -0.06,1.45 -0.13,2.9 -0.2,4.35 -0.07,1.45 -0.15,2.9 -0.24,4.35 -0.09,1.45 -0.18,2.9 -0.29,4.35 -0.11,1.45 -0.23,2.89 -0.36,4.34 -0.13,1.45 -0.26,2.9 -0.4,4.35 -0.14,1.45 -0.28,2.9 -0.42,4.35 -0.14,1.45 -0.29,2.9 -0.44,4.35 -0.15,1.45 -0.29,2.9 -0.44,4.35 -0.15,1.45 -0.31,2.89 -0.47,4.34 -0.17,1.45 -0.34,2.9 -0.52,4.35 -0.18,1.45 -0.38,2.9 -0.58,4.35 -0.2,1.45 -0.42,2.9 -0.63,4.35 -0.21,1.45 -0.43,2.9 -0.64,4.35 -0.2,1.45 -0.41,2.89 -0.59,4.34 -0.17,1.45 -0.33,2.9 -0.46,4.35 -0.12,1.45 -0.22,2.9 -0.29,4.35 -0.07,1.45 -0.11,2.9 -0.13,4.35 -0.02,1.45 -0.02,2.9 0,4.35 0.02,1.45 0.06,2.89 0.11,4.34 0.05,1.45 0.12,2.9 0.21,4.35 0.09,1.45 0.2,2.9 0.34,4.35 0.15,1.45 0.31,2.9 0.53,4.35 0.22,1.45 0.49,2.9 0.79,4.35 0.3,1.45 0.66,2.89 1.02,4.34 q 0.36,1.45 1.14,4.35 z"
             class="violin" />
          <path
             inkscape:connector-curvature="0"
             id="path71"
             style="vector-effect:non-scaling-stroke;fill:#1f77b4;fill-opacity:0.5;stroke:#1f77b4;stroke-width:2px;stroke-opacity:1"
             d="m 372.81,241.04 q 0.49,-3.07 0.74,-4.61 c 0.25,-1.53 0.52,-3.07 0.78,-4.6 0.26,-1.54 0.52,-3.07 0.76,-4.61 0.24,-1.53 0.47,-3.06 0.67,-4.6 0.2,-1.53 0.38,-3.07 0.53,-4.61 0.15,-1.53 0.27,-3.07 0.37,-4.6 0.1,-1.54 0.17,-3.07 0.23,-4.61 0.06,-1.53 0.11,-3.07 0.15,-4.6 0.05,-1.54 0.07,-3.07 0.12,-4.61 0.05,-1.53 0.1,-3.07 0.16,-4.6 0.06,-1.54 0.13,-3.07 0.2,-4.61 0.07,-1.54 0.16,-3.07 0.22,-4.61 0.06,-1.53 0.13,-3.07 0.15,-4.6 0.02,-1.54 0.04,-3.07 -0.01,-4.61 -0.05,-1.53 -0.14,-3.07 -0.28,-4.6 -0.14,-1.54 -0.34,-3.08 -0.56,-4.61 -0.23,-1.54 -0.51,-3.07 -0.79,-4.6 -0.28,-1.54 -0.61,-3.07 -0.91,-4.61 -0.3,-1.53 -0.61,-3.06 -0.88,-4.6 -0.27,-1.53 -0.51,-3.07 -0.72,-4.61 -0.2,-1.53 -0.37,-3.06 -0.51,-4.6 -0.14,-1.53 -0.23,-3.07 -0.31,-4.61 -0.08,-1.53 -0.13,-3.07 -0.18,-4.6 -0.06,-1.54 -0.1,-3.07 -0.15,-4.61 -0.05,-1.54 -0.1,-3.07 -0.17,-4.61 -0.07,-1.53 -0.15,-3.07 -0.23,-4.6 -0.09,-1.54 -0.18,-3.07 -0.28,-4.61 -0.09,-1.53 -0.2,-3.07 -0.29,-4.6 -0.09,-1.54 -0.19,-3.07 -0.27,-4.61 -0.08,-1.53 -0.16,-3.07 -0.22,-4.6 -0.06,-1.54 -0.11,-3.07 -0.15,-4.61 -0.04,-1.53 -0.06,-3.07 -0.07,-4.6 -0.01,-1.54 -0.01,-3.07 -0.01,-4.61 0,-1.53 0.02,-3.07 0.03,-4.6 0.01,-1.54 0.03,-3.07 0.05,-4.61 0.02,-1.54 0.04,-3.07 0.06,-4.61 0.02,-1.53 0.04,-3.07 0.05,-4.6 0.01,-1.54 0.01,-3.07 0.01,-4.61 q 0,-1.53 -0.03,-4.6 h -0.75 q -0.03,3.07 -0.03,4.6 c 0,1.54 0.01,3.07 0.02,4.61 0.01,1.53 0.02,3.07 0.04,4.6 0.02,1.54 0.04,3.07 0.06,4.61 0.02,1.54 0.03,3.07 0.05,4.61 0.01,1.53 0.04,3.07 0.04,4.6 0,1.54 0,3.07 -0.02,4.61 -0.02,1.53 -0.03,3.07 -0.07,4.6 -0.04,1.54 -0.09,3.07 -0.15,4.61 -0.06,1.53 -0.14,3.07 -0.22,4.6 -0.08,1.54 -0.18,3.07 -0.27,4.61 -0.09,1.53 -0.2,3.07 -0.29,4.6 -0.1,1.54 -0.19,3.07 -0.28,4.61 -0.08,1.53 -0.16,3.07 -0.23,4.6 -0.07,1.54 -0.12,3.07 -0.17,4.61 -0.05,1.54 -0.09,3.07 -0.15,4.61 -0.05,1.53 -0.1,3.07 -0.18,4.6 -0.08,1.54 -0.17,3.08 -0.31,4.61 -0.14,1.54 -0.31,3.07 -0.51,4.6 -0.21,1.54 -0.45,3.08 -0.72,4.61 -0.27,1.54 -0.58,3.07 -0.88,4.6 -0.3,1.54 -0.63,3.07 -0.91,4.61 -0.28,1.53 -0.56,3.06 -0.79,4.6 -0.22,1.53 -0.42,3.07 -0.56,4.61 -0.14,1.53 -0.23,3.07 -0.28,4.6 -0.05,1.54 -0.03,3.07 -0.01,4.61 0.02,1.53 0.09,3.07 0.15,4.6 0.06,1.54 0.15,3.07 0.22,4.61 0.07,1.54 0.15,3.07 0.21,4.61 0.06,1.53 0.1,3.07 0.15,4.6 0.05,1.54 0.08,3.07 0.13,4.61 0.04,1.53 0.08,3.07 0.14,4.6 0.06,1.54 0.13,3.07 0.23,4.61 0.1,1.53 0.23,3.07 0.38,4.6 0.15,1.54 0.33,3.08 0.53,4.61 0.2,1.54 0.43,3.07 0.67,4.6 0.24,1.54 0.49,3.07 0.75,4.61 0.26,1.53 0.54,3.07 0.79,4.6 q 0.26,1.54 0.74,4.61 z"
             class="violin" />
          <path
             inkscape:connector-curvature="0"
             id="path73"
             style="vector-effect:non-scaling-stroke;fill:#1f77b4;fill-opacity:0.5;stroke:#000000;stroke-width:1.5px;stroke-opacity:1"
             d="m 39.51,193.61 h 5.04 m -5.04,14.84 h 5.04 v -30.86 h -5.04 z m 2.52,0 v 34.3 m 0,-65.16 v -43.73"
             class="box" />
          <path
             inkscape:connector-curvature="0"
             id="path75"
             style="vector-effect:non-scaling-stroke;fill:#1f77b4;fill-opacity:0.5;stroke:#000000;stroke-width:1.5px;stroke-opacity:1"
             d="m 203.85,196.74 h 5.03 m -5.03,17.75 h 5.03 v -40.22 h -5.03 z m 2.51,0 v 18.91 m 0,-59.13 V 125.9"
             class="box" />
          <path
             inkscape:connector-curvature="0"
             id="path77"
             style="vector-effect:non-scaling-stroke;fill:#1f77b4;fill-opacity:0.5;stroke:#000000;stroke-width:1.5px;stroke-opacity:1"
             d="m 368.18,183.83 h 5.03 m -5.03,26.53 h 5.03 v -42.88 h -5.03 z m 2.52,0 v 30.68 m 0,-73.56 v -48.64"
             class="box" />
          <path
             inkscape:connector-curvature="0"
             id="path79"
             style="vector-effect:non-scaling-stroke;fill:none;stroke:#ffffff;stroke-width:1.5px;stroke-dasharray:3;stroke-opacity:1"
             d="m 39.51,187.42 h 5.04"
             class="mean" />
          <path
             inkscape:connector-curvature="0"
             id="path81"
             style="vector-effect:non-scaling-stroke;fill:none;stroke:#ffffff;stroke-width:1.5px;stroke-dasharray:3;stroke-opacity:1"
             d="m 203.85,188.54 h 5.03"
             class="mean" />
          <path
             inkscape:connector-curvature="0"
             id="path83"
             style="vector-effect:non-scaling-stroke;fill:none;stroke:#ffffff;stroke-width:1.5px;stroke-dasharray:3;stroke-opacity:1"
             d="m 368.18,183.82 h 5.03"
             class="mean" />
          <g
             id="g95"
             class="points">
            <path
               inkscape:connector-curvature="0"
               id="path85"
               style="opacity:1;fill:#1f77b4;fill-opacity:1;stroke:#000000;stroke-width:1.5px;stroke-opacity:1"
               d="M 3,0 A 3,3 0 1 1 0,-3 3,3 0 0 1 3,0 Z"
               transform="translate(42.03,127.09)"
               class="point" />
            <path
               inkscape:connector-curvature="0"
               id="path87"
               style="opacity:1;fill:#1f77b4;fill-opacity:1;stroke:#000000;stroke-width:1.5px;stroke-opacity:1"
               d="M 3,0 A 3,3 0 1 1 0,-3 3,3 0 0 1 3,0 Z"
               transform="translate(42.03,73.61)"
               class="point" />
            <path
               inkscape:connector-curvature="0"
               id="path89"
               style="opacity:1;fill:#1f77b4;fill-opacity:1;stroke:#000000;stroke-width:1.5px;stroke-opacity:1"
               d="M 3,0 A 3,3 0 1 1 0,-3 3,3 0 0 1 3,0 Z"
               transform="translate(42.03,66.48)"
               class="point" />
            <path
               inkscape:connector-curvature="0"
               id="path91"
               style="opacity:1;fill:#1f77b4;fill-opacity:1;stroke:#000000;stroke-width:1.5px;stroke-opacity:1"
               d="M 3,0 A 3,3 0 1 1 0,-3 3,3 0 0 1 3,0 Z"
               transform="translate(42.03,58.48)"
               class="point" />
            <path
               inkscape:connector-curvature="0"
               id="path93"
               style="opacity:1;fill:#1f77b4;fill-opacity:1;stroke:#000000;stroke-width:1.5px;stroke-opacity:1"
               d="M 3,0 A 3,3 0 1 1 0,-3 3,3 0 0 1 3,0 Z"
               transform="translate(42.03,52.81)"
               class="point" />
          </g>
          <g
             id="g103"
             class="points">
            <path
               inkscape:connector-curvature="0"
               id="path97"
               style="opacity:1;fill:#1f77b4;fill-opacity:1;stroke:#000000;stroke-width:1.5px;stroke-opacity:1"
               d="M 3,0 A 3,3 0 1 1 0,-3 3,3 0 0 1 3,0 Z"
               transform="translate(206.36,113.28)"
               class="point" />
            <path
               inkscape:connector-curvature="0"
               id="path99"
               style="opacity:1;fill:#1f77b4;fill-opacity:1;stroke:#000000;stroke-width:1.5px;stroke-opacity:1"
               d="M 3,0 A 3,3 0 1 1 0,-3 3,3 0 0 1 3,0 Z"
               transform="translate(206.36,76.57)"
               class="point" />
            <path
               inkscape:connector-curvature="0"
               id="path101"
               style="opacity:1;fill:#1f77b4;fill-opacity:1;stroke:#000000;stroke-width:1.5px;stroke-opacity:1"
               d="M 3,0 A 3,3 0 1 1 0,-3 3,3 0 0 1 3,0 Z"
               transform="translate(206.36,16)"
               class="point" />
          </g>
          <g
             id="g109"
             class="points">
            <path
               inkscape:connector-curvature="0"
               id="path105"
               style="opacity:1;fill:#1f77b4;fill-opacity:1;stroke:#000000;stroke-width:1.5px;stroke-opacity:1"
               d="M 3,0 A 3,3 0 1 1 0,-3 3,3 0 0 1 3,0 Z"
               transform="translate(370.7,72.38)"
               class="point" />
            <path
               inkscape:connector-curvature="0"
               id="path107"
               style="opacity:1;fill:#1f77b4;fill-opacity:1;stroke:#000000;stroke-width:1.5px;stroke-opacity:1"
               d="M 3,0 A 3,3 0 1 1 0,-3 3,3 0 0 1 3,0 Z"
               transform="translate(370.7,61.43)"
               class="point" />
          </g>
        </g>
        <g
           id="g137"
           style="opacity:0.6"
           class="trace violins">
          <path
             inkscape:connector-curvature="0"
             id="path113"
             style="vector-effect:non-scaling-stroke;fill:#ff7f0e;fill-opacity:0.5;stroke:#ff7f0e;stroke-width:2px;stroke-opacity:1"
             d="m 77.41,281 q 1.01,-9.3 1.41,-13.95 c 0.4,-4.64 0.76,-9.29 0.99,-13.94 0.23,-4.65 0.38,-9.3 0.4,-13.95 0.02,-4.65 -0.08,-9.3 -0.26,-13.95 -0.18,-4.65 -0.48,-9.3 -0.81,-13.95 -0.33,-4.65 -0.76,-9.29 -1.16,-13.94 -0.4,-4.65 -0.84,-9.3 -1.24,-13.95 -0.39,-4.65 -0.79,-9.3 -1.13,-13.95 -0.33,-4.65 -0.64,-9.3 -0.88,-13.95 -0.24,-4.65 -0.43,-9.29 -0.58,-13.94 -0.15,-4.65 -0.25,-9.3 -0.31,-13.95 -0.06,-4.65 -0.07,-9.3 -0.04,-13.95 0.03,-4.65 0.1,-9.3 0.21,-13.95 0.11,-4.65 0.28,-9.29 0.46,-13.94 0.18,-4.65 0.41,-9.3 0.63,-13.95 0.22,-4.65 0.48,-9.3 0.68,-13.95 0.2,-4.65 0.4,-9.3 0.51,-13.95 0.11,-4.65 0.19,-9.29 0.17,-13.94 Q 76.44,25.3 76.18,16 H 65.39 q -0.26,9.3 -0.28,13.95 c -0.02,4.65 0.06,9.29 0.17,13.94 0.11,4.65 0.32,9.3 0.52,13.95 0.2,4.65 0.45,9.3 0.67,13.95 0.22,4.65 0.46,9.3 0.64,13.95 0.18,4.65 0.34,9.29 0.45,13.94 0.11,4.65 0.19,9.3 0.22,13.95 0.03,4.65 0.02,9.3 -0.04,13.95 -0.06,4.65 -0.16,9.3 -0.31,13.95 -0.15,4.65 -0.35,9.29 -0.59,13.94 -0.24,4.65 -0.54,9.3 -0.87,13.95 -0.33,4.65 -0.73,9.3 -1.13,13.95 -0.4,4.65 -0.85,9.3 -1.25,13.95 -0.4,4.65 -0.83,9.29 -1.16,13.94 -0.33,4.65 -0.63,9.3 -0.81,13.95 -0.18,4.65 -0.28,9.3 -0.26,13.95 0.02,4.65 0.17,9.3 0.4,13.95 0.23,4.65 0.6,9.3 1,13.94 q 0.4,4.65 1.41,13.95 z"
             class="violin" />
          <path
             inkscape:connector-curvature="0"
             id="path115"
             style="vector-effect:non-scaling-stroke;fill:#ff7f0e;fill-opacity:0.5;stroke:#ff7f0e;stroke-width:2px;stroke-opacity:1"
             d="m 241.82,281 q 1.13,-8.83 1.59,-13.25 c 0.46,-4.41 0.89,-8.83 1.19,-13.25 0.3,-4.41 0.51,-8.83 0.59,-13.25 0.08,-4.42 0.03,-8.83 -0.11,-13.25 -0.14,-4.42 -0.42,-8.84 -0.73,-13.25 -0.32,-4.42 -0.74,-8.83 -1.16,-13.25 -0.42,-4.42 -0.91,-8.83 -1.35,-13.25 -0.44,-4.42 -0.91,-8.83 -1.31,-13.25 -0.4,-4.42 -0.78,-8.83 -1.09,-13.25 -0.31,-4.41 -0.57,-8.83 -0.78,-13.25 -0.2,-4.42 -0.36,-8.83 -0.45,-13.25 -0.09,-4.42 -0.13,-8.83 -0.12,-13.25 0.01,-4.42 0.08,-8.83 0.18,-13.25 0.1,-4.42 0.26,-8.83 0.42,-13.25 0.16,-4.42 0.37,-8.83 0.56,-13.25 0.2,-4.42 0.42,-8.83 0.61,-13.25 0.19,-4.42 0.38,-8.83 0.51,-13.25 0.13,-4.42 0.24,-8.83 0.27,-13.25 0.03,-4.42 0.01,-8.83 -0.08,-13.25 Q 240.47,24.83 240.11,16 h -9.98 q -0.36,8.83 -0.45,13.25 c -0.09,4.42 -0.11,8.83 -0.08,13.25 0.03,4.42 0.14,8.83 0.27,13.25 0.13,4.42 0.32,8.83 0.51,13.25 0.19,4.42 0.41,8.83 0.61,13.25 0.2,4.42 0.41,8.83 0.57,13.25 0.16,4.42 0.31,8.83 0.41,13.25 0.1,4.42 0.17,8.83 0.18,13.25 0.01,4.42 -0.03,8.83 -0.12,13.25 -0.09,4.42 -0.24,8.83 -0.44,13.25 -0.21,4.42 -0.48,8.84 -0.79,13.25 -0.31,4.42 -0.69,8.83 -1.09,13.25 -0.4,4.42 -0.87,8.83 -1.31,13.25 -0.44,4.42 -0.93,8.83 -1.35,13.25 -0.42,4.42 -0.84,8.83 -1.16,13.25 -0.31,4.41 -0.59,8.83 -0.73,13.25 -0.14,4.42 -0.18,8.83 -0.1,13.25 0.08,4.42 0.28,8.84 0.58,13.25 0.3,4.42 0.74,8.84 1.2,13.25 q 0.47,4.42 1.59,13.25 z"
             class="violin" />
          <path
             inkscape:connector-curvature="0"
             id="path117"
             style="vector-effect:non-scaling-stroke;fill:#ff7f0e;fill-opacity:0.5;stroke:#ff7f0e;stroke-width:2px;stroke-opacity:1"
             d="m 406.59,281 q 1.03,-9.3 1.44,-13.95 c 0.4,-4.64 0.76,-9.29 0.99,-13.94 0.23,-4.65 0.36,-9.3 0.38,-13.95 0.02,-4.65 -0.07,-9.3 -0.23,-13.95 -0.16,-4.65 -0.44,-9.3 -0.75,-13.95 -0.31,-4.65 -0.7,-9.29 -1.09,-13.94 -0.4,-4.65 -0.85,-9.3 -1.28,-13.95 -0.43,-4.65 -0.88,-9.3 -1.3,-13.95 -0.41,-4.65 -0.83,-9.3 -1.19,-13.95 -0.36,-4.65 -0.71,-9.29 -0.98,-13.94 -0.27,-4.65 -0.5,-9.3 -0.66,-13.95 -0.16,-4.65 -0.27,-9.3 -0.3,-13.95 -0.03,-4.65 0,-9.3 0.09,-13.95 0.09,-4.65 0.26,-9.29 0.45,-13.94 0.2,-4.65 0.47,-9.3 0.72,-13.95 0.26,-4.65 0.56,-9.3 0.81,-13.95 0.25,-4.65 0.51,-9.3 0.68,-13.95 0.17,-4.65 0.31,-9.29 0.35,-13.94 Q 404.76,25.3 404.61,16 H 394.3 q -0.15,9.3 -0.11,13.95 c 0.04,4.65 0.18,9.29 0.35,13.94 0.17,4.65 0.43,9.3 0.68,13.95 0.25,4.65 0.55,9.3 0.81,13.95 0.25,4.65 0.52,9.3 0.72,13.95 0.19,4.65 0.36,9.29 0.45,13.94 0.09,4.65 0.12,9.3 0.09,13.95 -0.03,4.65 -0.14,9.3 -0.3,13.95 -0.16,4.65 -0.4,9.3 -0.67,13.95 -0.27,4.65 -0.61,9.29 -0.97,13.94 -0.36,4.65 -0.78,9.3 -1.19,13.95 -0.42,4.65 -0.87,9.3 -1.3,13.95 -0.43,4.65 -0.88,9.3 -1.28,13.95 -0.39,4.65 -0.78,9.29 -1.09,13.94 -0.31,4.65 -0.59,9.3 -0.75,13.95 -0.16,4.65 -0.25,9.3 -0.23,13.95 0.02,4.65 0.15,9.3 0.38,13.95 0.23,4.65 0.59,9.3 0.99,13.94 q 0.41,4.65 1.44,13.95 z"
             class="violin" />
          <path
             inkscape:connector-curvature="0"
             id="path119"
             style="vector-effect:non-scaling-stroke;fill:#ff7f0e;fill-opacity:0.5;stroke:#000000;stroke-width:1.5px;stroke-opacity:1"
             d="M 68.27,213.65 H 73.3 M 68.27,242.3 H 73.3 V 37.53 h -5.03 z m 2.52,0 V 281 m 0,-243.47 V 16"
             class="box" />
          <path
             inkscape:connector-curvature="0"
             id="path121"
             style="vector-effect:non-scaling-stroke;fill:#ff7f0e;fill-opacity:0.5;stroke:#000000;stroke-width:1.5px;stroke-opacity:1"
             d="m 232.6,210.53 h 5.04 m -5.04,35.51 h 5.04 V 67.72 h -5.04 z m 2.52,0 V 281 m 0,-213.28 V 16"
             class="box" />
          <path
             inkscape:connector-curvature="0"
             id="path123"
             style="vector-effect:non-scaling-stroke;fill:#ff7f0e;fill-opacity:0.5;stroke:#000000;stroke-width:1.5px;stroke-opacity:1"
             d="m 396.94,206.61 h 5.03 m -5.03,41.78 h 5.03 V 38.58 h -5.03 z m 2.51,0 V 281 m 0,-242.42 V 16"
             class="box" />
          <path
             inkscape:connector-curvature="0"
             id="path125"
             style="vector-effect:non-scaling-stroke;fill:none;stroke:#ffffff;stroke-width:1.5px;stroke-dasharray:3;stroke-opacity:1"
             d="M 68.27,162.14 H 73.3"
             class="mean" />
          <path
             inkscape:connector-curvature="0"
             id="path127"
             style="vector-effect:non-scaling-stroke;fill:none;stroke:#ffffff;stroke-width:1.5px;stroke-dasharray:3;stroke-opacity:1"
             d="m 232.6,165.64 h 5.04"
             class="mean" />
          <path
             inkscape:connector-curvature="0"
             id="path129"
             style="vector-effect:non-scaling-stroke;fill:none;stroke:#ffffff;stroke-width:1.5px;stroke-dasharray:3;stroke-opacity:1"
             d="m 396.94,168.96 h 5.03"
             class="mean" />
          <g
             id="g131"
             class="points" />
          <g
             id="g133"
             class="points" />
          <g
             id="g135"
             class="points" />
        </g>
        <g
           id="g189"
           style="opacity:0.6"
           class="trace violins">
          <path
             inkscape:connector-curvature="0"
             id="path139"
             style="vector-effect:non-scaling-stroke;fill:#2ca02c;fill-opacity:0.5;stroke:#2ca02c;stroke-width:2px;stroke-opacity:1"
             d="m 103.55,273.64 q 0.83,-3.82 1.23,-5.73 c 0.4,-1.91 0.82,-3.81 1.18,-5.72 0.36,-1.91 0.71,-3.82 1,-5.73 0.29,-1.9 0.54,-3.81 0.73,-5.72 0.19,-1.91 0.33,-3.82 0.42,-5.73 0.09,-1.91 0.13,-3.81 0.12,-5.72 -0.01,-1.91 -0.08,-3.82 -0.17,-5.73 -0.09,-1.91 -0.23,-3.81 -0.38,-5.72 -0.15,-1.91 -0.34,-3.82 -0.53,-5.73 -0.18,-1.91 -0.39,-3.81 -0.58,-5.72 -0.19,-1.91 -0.38,-3.82 -0.55,-5.73 -0.17,-1.91 -0.33,-3.81 -0.47,-5.72 -0.14,-1.91 -0.25,-3.82 -0.37,-5.73 -0.11,-1.91 -0.21,-3.82 -0.32,-5.73 -0.11,-1.91 -0.22,-3.81 -0.34,-5.72 -0.12,-1.91 -0.25,-3.82 -0.4,-5.73 -0.15,-1.91 -0.32,-3.81 -0.5,-5.72 -0.18,-1.91 -0.37,-3.82 -0.57,-5.73 -0.19,-1.91 -0.41,-3.81 -0.6,-5.72 -0.19,-1.91 -0.39,-3.82 -0.56,-5.73 -0.17,-1.91 -0.34,-3.81 -0.48,-5.72 -0.14,-1.91 -0.27,-3.82 -0.38,-5.73 -0.11,-1.91 -0.2,-3.81 -0.28,-5.72 -0.08,-1.91 -0.14,-3.82 -0.2,-5.73 -0.06,-1.91 -0.11,-3.81 -0.15,-5.72 -0.04,-1.91 -0.08,-3.82 -0.11,-5.73 -0.03,-1.91 -0.06,-3.81 -0.09,-5.72 -0.03,-1.91 -0.05,-3.82 -0.07,-5.73 -0.02,-1.91 -0.05,-3.82 -0.07,-5.73 -0.02,-1.91 -0.03,-3.81 -0.05,-5.72 C 99.99,99.97 99.98,98.06 99.96,96.15 99.94,94.24 99.92,92.34 99.9,90.43 99.88,88.52 99.86,86.61 99.84,84.7 99.82,82.79 99.8,80.89 99.78,78.98 99.76,77.07 99.74,75.16 99.72,73.25 99.7,71.34 99.68,69.44 99.67,67.53 99.66,65.62 99.65,63.71 99.64,61.8 c -0.01,-1.91 -0.01,-3.81 -0.01,-5.72 0,-1.91 0.02,-3.82 0.03,-5.73 0.01,-1.91 0.03,-3.81 0.05,-5.72 0.02,-1.91 0.05,-3.82 0.08,-5.73 0.03,-1.91 0.06,-3.81 0.09,-5.72 0.03,-1.91 0.05,-3.82 0.07,-5.73 0.02,-1.91 0.04,-3.81 0.05,-5.72 q 0.01,-1.91 0,-5.73 h -0.91 q 0,3.82 0.01,5.73 c 0.01,1.91 0.02,3.81 0.04,5.72 0.02,1.91 0.05,3.82 0.08,5.73 0.03,1.91 0.05,3.81 0.08,5.72 0.03,1.91 0.06,3.82 0.08,5.73 0.02,1.91 0.04,3.81 0.05,5.72 0.01,1.91 0.03,3.82 0.03,5.73 0,1.91 0,3.81 -0.01,5.72 -0.01,1.91 -0.02,3.82 -0.03,5.73 -0.01,1.91 -0.03,3.81 -0.05,5.72 -0.02,1.91 -0.04,3.82 -0.06,5.73 -0.02,1.91 -0.04,3.81 -0.06,5.72 -0.02,1.91 -0.04,3.82 -0.06,5.73 -0.02,1.91 -0.04,3.81 -0.06,5.72 -0.02,1.91 -0.03,3.82 -0.05,5.73 -0.02,1.91 -0.03,3.81 -0.05,5.72 -0.02,1.91 -0.04,3.82 -0.06,5.73 -0.02,1.91 -0.05,3.82 -0.08,5.73 -0.03,1.91 -0.06,3.81 -0.09,5.72 -0.03,1.91 -0.07,3.82 -0.11,5.73 -0.04,1.91 -0.09,3.81 -0.15,5.72 -0.06,1.91 -0.12,3.82 -0.2,5.73 -0.08,1.91 -0.16,3.81 -0.27,5.72 -0.11,1.91 -0.23,3.82 -0.38,5.73 -0.14,1.91 -0.32,3.81 -0.49,5.72 -0.18,1.91 -0.37,3.82 -0.56,5.73 -0.19,1.91 -0.41,3.81 -0.6,5.72 -0.2,1.91 -0.39,3.82 -0.57,5.73 -0.18,1.91 -0.35,3.81 -0.5,5.72 -0.15,1.91 -0.28,3.82 -0.4,5.73 -0.12,1.91 -0.22,3.81 -0.33,5.72 -0.11,1.91 -0.21,3.82 -0.33,5.73 -0.12,1.91 -0.23,3.82 -0.37,5.73 -0.14,1.91 -0.29,3.81 -0.46,5.72 -0.17,1.91 -0.36,3.82 -0.55,5.73 -0.19,1.91 -0.4,3.81 -0.59,5.72 -0.19,1.91 -0.38,3.82 -0.53,5.73 -0.15,1.91 -0.29,3.81 -0.38,5.72 -0.09,1.91 -0.16,3.82 -0.17,5.73 -0.01,1.91 0.03,3.81 0.12,5.72 0.09,1.91 0.23,3.82 0.42,5.73 0.19,1.91 0.45,3.82 0.74,5.72 0.29,1.91 0.63,3.82 0.99,5.73 0.36,1.91 0.78,3.81 1.18,5.72 q 0.4,1.91 1.23,5.73 z"
             class="violin" />
          <path
             inkscape:connector-curvature="0"
             id="path141"
             style="vector-effect:non-scaling-stroke;fill:#2ca02c;fill-opacity:0.5;stroke:#2ca02c;stroke-width:2px;stroke-opacity:1"
             d="m 268,277.9 q 0.82,-4.55 1.22,-6.83 c 0.39,-2.28 0.8,-4.55 1.15,-6.83 0.35,-2.27 0.68,-4.55 0.95,-6.83 0.26,-2.27 0.49,-4.55 0.64,-6.83 0.15,-2.28 0.24,-4.56 0.25,-6.84 0.01,-2.28 -0.05,-4.55 -0.16,-6.83 -0.11,-2.28 -0.3,-4.56 -0.51,-6.83 -0.21,-2.28 -0.49,-4.55 -0.76,-6.83 -0.27,-2.28 -0.58,-4.55 -0.87,-6.83 -0.28,-2.28 -0.58,-4.55 -0.84,-6.83 -0.26,-2.28 -0.49,-4.55 -0.7,-6.83 -0.21,-2.28 -0.39,-4.55 -0.54,-6.83 -0.15,-2.28 -0.27,-4.55 -0.38,-6.83 -0.12,-2.28 -0.21,-4.56 -0.31,-6.84 -0.1,-2.28 -0.18,-4.55 -0.27,-6.83 -0.09,-2.28 -0.18,-4.55 -0.27,-6.83 -0.09,-2.28 -0.19,-4.55 -0.28,-6.83 -0.09,-2.28 -0.18,-4.55 -0.26,-6.83 -0.08,-2.28 -0.15,-4.55 -0.22,-6.83 -0.07,-2.28 -0.13,-4.55 -0.19,-6.83 -0.06,-2.28 -0.11,-4.55 -0.16,-6.83 -0.05,-2.28 -0.09,-4.55 -0.13,-6.83 -0.04,-2.28 -0.09,-4.56 -0.13,-6.84 -0.04,-2.28 -0.09,-4.55 -0.13,-6.83 -0.04,-2.28 -0.08,-4.55 -0.11,-6.83 -0.03,-2.28 -0.06,-4.55 -0.09,-6.83 -0.03,-2.28 -0.05,-4.55 -0.08,-6.83 -0.03,-2.28 -0.06,-4.55 -0.09,-6.83 -0.03,-2.28 -0.06,-4.55 -0.09,-6.83 -0.03,-2.28 -0.06,-4.55 -0.1,-6.83 q -0.04,-2.28 -0.12,-6.83 h -1.08 q -0.08,4.55 -0.12,6.83 c -0.04,2.28 -0.08,4.55 -0.11,6.83 -0.03,2.28 -0.06,4.55 -0.09,6.83 -0.03,2.28 -0.05,4.55 -0.08,6.83 -0.03,2.28 -0.05,4.55 -0.08,6.83 -0.03,2.28 -0.07,4.55 -0.1,6.83 -0.04,2.28 -0.07,4.55 -0.11,6.83 -0.04,2.28 -0.08,4.55 -0.12,6.83 -0.04,2.28 -0.09,4.56 -0.13,6.84 -0.04,2.28 -0.08,4.55 -0.13,6.83 -0.05,2.28 -0.1,4.55 -0.16,6.83 -0.06,2.28 -0.12,4.55 -0.19,6.83 -0.07,2.28 -0.14,4.55 -0.22,6.83 -0.08,2.28 -0.17,4.55 -0.26,6.83 -0.09,2.28 -0.19,4.55 -0.28,6.83 -0.09,2.28 -0.18,4.55 -0.27,6.83 -0.09,2.28 -0.18,4.55 -0.28,6.83 -0.1,2.28 -0.18,4.56 -0.3,6.84 -0.11,2.28 -0.24,4.55 -0.39,6.83 -0.15,2.28 -0.33,4.55 -0.53,6.83 -0.21,2.28 -0.44,4.55 -0.7,6.83 -0.26,2.28 -0.56,4.55 -0.84,6.83 -0.29,2.28 -0.6,4.55 -0.87,6.83 -0.27,2.28 -0.55,4.55 -0.76,6.83 -0.21,2.27 -0.4,4.55 -0.51,6.83 -0.11,2.28 -0.17,4.55 -0.16,6.83 0.01,2.28 0.1,4.56 0.25,6.84 0.15,2.28 0.37,4.56 0.63,6.83 0.27,2.28 0.61,4.56 0.96,6.83 0.35,2.28 0.76,4.55 1.15,6.83 q 0.39,2.28 1.21,6.83 z"
             class="violin" />
          <path
             inkscape:connector-curvature="0"
             id="path143"
             style="vector-effect:non-scaling-stroke;fill:#2ca02c;fill-opacity:0.5;stroke:#2ca02c;stroke-width:2px;stroke-opacity:1"
             d="m 431.62,279.44 q 0.82,-3.37 1.25,-5.06 c 0.43,-1.69 0.9,-3.38 1.33,-5.07 0.43,-1.69 0.87,-3.37 1.27,-5.06 0.4,-1.68 0.79,-3.37 1.13,-5.06 0.33,-1.69 0.64,-3.38 0.88,-5.07 0.24,-1.68 0.44,-3.37 0.57,-5.06 0.13,-1.68 0.21,-3.37 0.23,-5.06 0.02,-1.69 -0.03,-3.38 -0.12,-5.07 -0.09,-1.69 -0.26,-3.37 -0.44,-5.06 -0.18,-1.69 -0.42,-3.38 -0.66,-5.07 -0.24,-1.69 -0.53,-3.37 -0.8,-5.06 -0.28,-1.69 -0.57,-3.37 -0.85,-5.06 -0.28,-1.69 -0.56,-3.38 -0.83,-5.07 -0.27,-1.69 -0.53,-3.37 -0.78,-5.06 -0.25,-1.69 -0.49,-3.37 -0.71,-5.06 -0.22,-1.69 -0.43,-3.38 -0.63,-5.07 -0.19,-1.69 -0.38,-3.37 -0.54,-5.06 -0.16,-1.69 -0.3,-3.38 -0.44,-5.07 -0.13,-1.69 -0.25,-3.37 -0.37,-5.06 -0.11,-1.69 -0.22,-3.37 -0.32,-5.06 -0.1,-1.69 -0.19,-3.38 -0.29,-5.07 -0.1,-1.69 -0.19,-3.37 -0.29,-5.06 -0.1,-1.69 -0.2,-3.37 -0.29,-5.06 -0.09,-1.69 -0.18,-3.38 -0.27,-5.07 -0.08,-1.69 -0.17,-3.37 -0.24,-5.06 -0.07,-1.69 -0.12,-3.37 -0.17,-5.06 -0.05,-1.69 -0.08,-3.38 -0.11,-5.07 -0.03,-1.69 -0.04,-3.37 -0.05,-5.06 -0.01,-1.69 -0.01,-3.38 -0.01,-5.07 0,-1.69 0.01,-3.37 0.01,-5.06 0,-1.69 -0.01,-3.37 -0.01,-5.06 -0.01,-1.69 -0.01,-3.38 -0.02,-5.07 -0.01,-1.69 -0.03,-3.37 -0.05,-5.06 -0.02,-1.69 -0.04,-3.37 -0.06,-5.06 -0.02,-1.69 -0.05,-3.38 -0.07,-5.07 -0.02,-1.69 -0.05,-3.37 -0.07,-5.06 -0.02,-1.69 -0.04,-3.37 -0.06,-5.06 -0.02,-1.69 -0.03,-3.38 -0.04,-5.07 -0.01,-1.69 -0.02,-3.37 -0.03,-5.06 -0.01,-1.69 -0.01,-3.38 -0.01,-5.07 0,-1.69 0.01,-3.37 0.01,-5.06 0.01,-1.69 0.01,-3.37 0.02,-5.06 0.01,-1.69 0.02,-3.38 0.03,-5.07 0.01,-1.69 0.02,-3.37 0.03,-5.06 0.01,-1.69 0.02,-3.37 0.02,-5.06 0.01,-1.69 0.01,-3.38 0.01,-5.07 0,-1.69 -0.01,-3.37 -0.02,-5.06 q -0.01,-1.69 -0.05,-5.07 h -0.99 q -0.05,3.38 -0.06,5.07 c -0.01,1.69 -0.02,3.37 -0.02,5.06 0,1.69 0,3.38 0.01,5.07 0.01,1.69 0.02,3.37 0.03,5.06 0.01,1.69 0.02,3.37 0.03,5.06 0.01,1.69 0.01,3.38 0.02,5.07 0.01,1.69 0.01,3.37 0.02,5.06 0,1.69 0.01,3.37 0.01,5.06 0,1.69 0,3.38 -0.01,5.07 0,1.69 -0.01,3.37 -0.02,5.06 -0.01,1.69 -0.02,3.38 -0.04,5.07 -0.02,1.69 -0.04,3.37 -0.06,5.06 -0.02,1.69 -0.05,3.37 -0.07,5.06 -0.02,1.69 -0.05,3.38 -0.07,5.07 -0.02,1.69 -0.05,3.37 -0.07,5.06 -0.02,1.69 -0.04,3.37 -0.05,5.06 -0.01,1.69 -0.02,3.38 -0.02,5.07 0,1.69 0,3.37 0,5.06 0,1.69 0,3.37 0,5.06 0,1.69 0,3.38 -0.01,5.07 -0.01,1.69 -0.02,3.37 -0.05,5.06 -0.03,1.69 -0.06,3.38 -0.11,5.07 -0.05,1.69 -0.1,3.37 -0.17,5.06 -0.07,1.69 -0.15,3.37 -0.23,5.06 -0.09,1.69 -0.19,3.38 -0.28,5.07 -0.09,1.69 -0.19,3.37 -0.28,5.06 -0.1,1.69 -0.19,3.37 -0.29,5.06 -0.1,1.69 -0.2,3.38 -0.3,5.07 -0.1,1.69 -0.2,3.37 -0.31,5.06 -0.11,1.69 -0.23,3.37 -0.37,5.06 -0.14,1.69 -0.28,3.38 -0.45,5.07 -0.16,1.69 -0.35,3.37 -0.54,5.06 -0.2,1.69 -0.41,3.38 -0.63,5.07 -0.22,1.69 -0.46,3.37 -0.71,5.06 -0.25,1.69 -0.5,3.37 -0.77,5.06 -0.27,1.69 -0.55,3.38 -0.83,5.07 -0.28,1.69 -0.57,3.37 -0.85,5.06 -0.27,1.69 -0.55,3.37 -0.8,5.06 -0.24,1.69 -0.49,3.38 -0.67,5.07 -0.18,1.69 -0.34,3.37 -0.43,5.06 -0.09,1.69 -0.14,3.38 -0.12,5.07 0.02,1.69 0.09,3.38 0.22,5.06 0.13,1.69 0.34,3.38 0.58,5.06 0.24,1.69 0.55,3.38 0.88,5.07 0.33,1.69 0.72,3.38 1.12,5.06 0.4,1.69 0.85,3.37 1.28,5.06 0.43,1.69 0.89,3.38 1.32,5.07 q 0.43,1.69 1.25,5.06 z"
             class="violin" />
          <path
             inkscape:connector-curvature="0"
             id="path145"
             style="vector-effect:non-scaling-stroke;fill:#2ca02c;fill-opacity:0.5;stroke:#000000;stroke-width:1.5px;stroke-opacity:1"
             d="m 97.03,225.7 h 5.03 m -5.03,19.75 h 5.03 v -54.06 h -5.03 z m 2.52,0 v 28.19 m 0,-82.25 v -79.03"
             class="box" />
          <path
             inkscape:connector-curvature="0"
             id="path147"
             style="vector-effect:non-scaling-stroke;fill:#2ca02c;fill-opacity:0.5;stroke:#000000;stroke-width:1.5px;stroke-opacity:1"
             d="m 261.36,232.96 h 5.04 m -5.04,19.24 h 5.04 V 188 h -5.04 z m 2.52,0 v 25.7 m 0,-89.9 V 99.43"
             class="box" />
          <path
             inkscape:connector-curvature="0"
             id="path149"
             style="vector-effect:non-scaling-stroke;fill:#2ca02c;fill-opacity:0.5;stroke:#000000;stroke-width:1.5px;stroke-opacity:1"
             d="m 425.7,236.12 h 5.03 m -5.03,16.35 h 5.03 v -47.1 h -5.03 z m 2.51,0 v 26.97 m 0,-74.07 v -59.39"
             class="box" />
          <path
             inkscape:connector-curvature="0"
             id="path151"
             style="vector-effect:non-scaling-stroke;fill:none;stroke:#ffffff;stroke-width:1.5px;stroke-dasharray:3;stroke-opacity:1"
             d="m 97.03,214.12 h 5.03"
             class="mean" />
          <path
             inkscape:connector-curvature="0"
             id="path153"
             style="vector-effect:non-scaling-stroke;fill:none;stroke:#ffffff;stroke-width:1.5px;stroke-dasharray:3;stroke-opacity:1"
             d="m 261.36,215.89 h 5.04"
             class="mean" />
          <path
             inkscape:connector-curvature="0"
             id="path155"
             style="vector-effect:non-scaling-stroke;fill:none;stroke:#ffffff;stroke-width:1.5px;stroke-dasharray:3;stroke-opacity:1"
             d="m 425.7,218.96 h 5.03"
             class="mean" />
          <g
             id="g163"
             class="points">
            <path
               inkscape:connector-curvature="0"
               id="path157"
               style="opacity:1;fill:#2ca02c;fill-opacity:1;stroke:#000000;stroke-width:1.5px;stroke-opacity:1"
               d="M 3,0 A 3,3 0 1 1 0,-3 3,3 0 0 1 3,0 Z"
               transform="translate(99.55,89.61)"
               class="point" />
            <path
               inkscape:connector-curvature="0"
               id="path159"
               style="opacity:1;fill:#2ca02c;fill-opacity:1;stroke:#000000;stroke-width:1.5px;stroke-opacity:1"
               d="M 3,0 A 3,3 0 1 1 0,-3 3,3 0 0 1 3,0 Z"
               transform="translate(99.55,21.5)"
               class="point" />
            <path
               inkscape:connector-curvature="0"
               id="path161"
               style="opacity:1;fill:#2ca02c;fill-opacity:1;stroke:#000000;stroke-width:1.5px;stroke-opacity:1"
               d="M 3,0 A 3,3 0 1 1 0,-3 3,3 0 0 1 3,0 Z"
               transform="translate(99.55,16)"
               class="point" />
          </g>
          <g
             id="g171"
             class="points">
            <path
               inkscape:connector-curvature="0"
               id="path165"
               style="opacity:1;fill:#2ca02c;fill-opacity:1;stroke:#000000;stroke-width:1.5px;stroke-opacity:1"
               d="M 3,0 A 3,3 0 1 1 0,-3 3,3 0 0 1 3,0 Z"
               transform="translate(263.88,86.21)"
               class="point" />
            <path
               inkscape:connector-curvature="0"
               id="path167"
               style="opacity:1;fill:#2ca02c;fill-opacity:1;stroke:#000000;stroke-width:1.5px;stroke-opacity:1"
               d="M 3,0 A 3,3 0 1 1 0,-3 3,3 0 0 1 3,0 Z"
               transform="translate(263.88,81.75)"
               class="point" />
            <path
               inkscape:connector-curvature="0"
               id="path169"
               style="opacity:1;fill:#2ca02c;fill-opacity:1;stroke:#000000;stroke-width:1.5px;stroke-opacity:1"
               d="M 3,0 A 3,3 0 1 1 0,-3 3,3 0 0 1 3,0 Z"
               transform="translate(263.88,66.14)"
               class="point" />
          </g>
          <g
             id="g187"
             class="points">
            <path
               inkscape:connector-curvature="0"
               id="path173"
               style="opacity:1;fill:#2ca02c;fill-opacity:1;stroke:#000000;stroke-width:1.5px;stroke-opacity:1"
               d="M 3,0 A 3,3 0 1 1 0,-3 3,3 0 0 1 3,0 Z"
               transform="translate(428.21,128.58)"
               class="point" />
            <path
               inkscape:connector-curvature="0"
               id="path175"
               style="opacity:1;fill:#2ca02c;fill-opacity:1;stroke:#000000;stroke-width:1.5px;stroke-opacity:1"
               d="M 3,0 A 3,3 0 1 1 0,-3 3,3 0 0 1 3,0 Z"
               transform="translate(428.21,122)"
               class="point" />
            <path
               inkscape:connector-curvature="0"
               id="path177"
               style="opacity:1;fill:#2ca02c;fill-opacity:1;stroke:#000000;stroke-width:1.5px;stroke-opacity:1"
               d="M 3,0 A 3,3 0 1 1 0,-3 3,3 0 0 1 3,0 Z"
               transform="translate(428.21,111.4)"
               class="point" />
            <path
               inkscape:connector-curvature="0"
               id="path179"
               style="opacity:1;fill:#2ca02c;fill-opacity:1;stroke:#000000;stroke-width:1.5px;stroke-opacity:1"
               d="M 3,0 A 3,3 0 1 1 0,-3 3,3 0 0 1 3,0 Z"
               transform="translate(428.21,93.79)"
               class="point" />
            <path
               inkscape:connector-curvature="0"
               id="path181"
               style="opacity:1;fill:#2ca02c;fill-opacity:1;stroke:#000000;stroke-width:1.5px;stroke-opacity:1"
               d="M 3,0 A 3,3 0 1 1 0,-3 3,3 0 0 1 3,0 Z"
               transform="translate(428.21,69)"
               class="point" />
            <path
               inkscape:connector-curvature="0"
               id="path183"
               style="opacity:1;fill:#2ca02c;fill-opacity:1;stroke:#000000;stroke-width:1.5px;stroke-opacity:1"
               d="M 3,0 A 3,3 0 1 1 0,-3 3,3 0 0 1 3,0 Z"
               transform="translate(428.21,47.44)"
               class="point" />
            <path
               inkscape:connector-curvature="0"
               id="path185"
               style="opacity:1;fill:#2ca02c;fill-opacity:1;stroke:#000000;stroke-width:1.5px;stroke-opacity:1"
               d="M 3,0 A 3,3 0 1 1 0,-3 3,3 0 0 1 3,0 Z"
               transform="translate(428.21,36.38)"
               class="point" />
          </g>
        </g>
        <g
           id="g235"
           style="opacity:0.6"
           class="trace violins">
          <path
             inkscape:connector-curvature="0"
             id="path191"
             style="vector-effect:non-scaling-stroke;fill:#d62728;fill-opacity:0.5;stroke:#d62728;stroke-width:2px;stroke-opacity:1"
             d="m 129.65,268.65 q 0.42,-3.66 0.68,-5.49 c 0.26,-1.83 0.55,-3.67 0.86,-5.5 0.31,-1.83 0.66,-3.66 1,-5.49 0.34,-1.83 0.71,-3.66 1.05,-5.49 0.34,-1.83 0.69,-3.66 1,-5.49 0.3,-1.83 0.6,-3.66 0.83,-5.5 0.23,-1.83 0.43,-3.66 0.56,-5.49 0.13,-1.83 0.21,-3.66 0.23,-5.49 0.02,-1.83 -0.02,-3.66 -0.09,-5.49 -0.07,-1.83 -0.2,-3.67 -0.34,-5.5 -0.14,-1.83 -0.32,-3.66 -0.49,-5.49 -0.17,-1.83 -0.35,-3.66 -0.51,-5.49 -0.15,-1.83 -0.3,-3.66 -0.42,-5.49 -0.12,-1.83 -0.22,-3.66 -0.32,-5.49 -0.1,-1.83 -0.17,-3.67 -0.26,-5.5 -0.09,-1.83 -0.18,-3.66 -0.29,-5.49 -0.12,-1.83 -0.25,-3.66 -0.4,-5.49 -0.15,-1.83 -0.34,-3.66 -0.52,-5.49 -0.18,-1.83 -0.39,-3.67 -0.58,-5.5 -0.19,-1.83 -0.4,-3.66 -0.58,-5.49 -0.18,-1.83 -0.35,-3.66 -0.5,-5.49 -0.15,-1.83 -0.28,-3.66 -0.39,-5.49 -0.11,-1.83 -0.19,-3.67 -0.27,-5.5 -0.08,-1.83 -0.14,-3.66 -0.2,-5.49 -0.06,-1.83 -0.11,-3.66 -0.16,-5.49 -0.05,-1.83 -0.11,-3.66 -0.16,-5.49 -0.06,-1.83 -0.11,-3.67 -0.17,-5.5 -0.06,-1.83 -0.12,-3.66 -0.18,-5.49 -0.06,-1.83 -0.11,-3.66 -0.17,-5.49 -0.06,-1.83 -0.12,-3.66 -0.17,-5.49 -0.05,-1.83 -0.09,-3.66 -0.13,-5.49 -0.04,-1.83 -0.07,-3.67 -0.1,-5.5 -0.03,-1.83 -0.05,-3.66 -0.07,-5.49 -0.02,-1.83 -0.03,-3.66 -0.04,-5.49 -0.01,-1.83 -0.01,-3.66 -0.02,-5.49 -0.01,-1.83 -0.02,-3.67 -0.02,-5.5 0,-1.83 0,-3.66 0,-5.49 0,-1.83 0,-3.66 0,-5.49 0,-1.83 0.01,-3.66 0.01,-5.49 0,-1.83 0,-3.67 0.01,-5.5 0,-1.83 0.01,-3.66 0.02,-5.49 0.01,-1.83 0.02,-3.66 0.03,-5.49 0.01,-1.83 0.03,-3.66 0.04,-5.49 0.01,-1.83 0.03,-3.67 0.04,-5.5 0.01,-1.83 0.02,-3.66 0.03,-5.49 Q 128.5,19.66 128.5,16 h -0.39 q 0,3.66 0.01,5.49 c 0.01,1.83 0.02,3.66 0.03,5.49 0.01,1.83 0.03,3.67 0.04,5.5 0.01,1.83 0.02,3.66 0.03,5.49 0.01,1.83 0.03,3.66 0.04,5.49 0.01,1.83 0.02,3.66 0.02,5.49 0.01,1.83 0.01,3.67 0.01,5.5 0,1.83 0.01,3.66 0.01,5.49 0,1.83 0,3.66 0,5.49 0,1.83 -0.01,3.66 -0.01,5.49 0,1.83 0,3.67 -0.01,5.5 0,1.83 -0.01,3.66 -0.02,5.49 -0.01,1.83 -0.02,3.66 -0.04,5.49 -0.02,1.83 -0.04,3.66 -0.07,5.49 -0.03,1.83 -0.06,3.67 -0.1,5.5 -0.04,1.83 -0.08,3.66 -0.13,5.49 -0.05,1.83 -0.11,3.66 -0.17,5.49 -0.06,1.83 -0.12,3.66 -0.18,5.49 -0.06,1.83 -0.12,3.66 -0.18,5.49 -0.06,1.83 -0.12,3.67 -0.17,5.5 -0.05,1.83 -0.1,3.66 -0.15,5.49 -0.05,1.83 -0.1,3.66 -0.16,5.49 -0.06,1.83 -0.12,3.66 -0.2,5.49 -0.08,1.83 -0.16,3.67 -0.27,5.5 -0.11,1.83 -0.24,3.66 -0.39,5.49 -0.15,1.83 -0.32,3.66 -0.5,5.49 -0.18,1.83 -0.39,3.66 -0.58,5.49 -0.19,1.83 -0.4,3.67 -0.58,5.5 -0.18,1.83 -0.37,3.66 -0.52,5.49 -0.15,1.83 -0.28,3.66 -0.4,5.49 -0.11,1.83 -0.2,3.66 -0.29,5.49 -0.09,1.83 -0.17,3.67 -0.27,5.5 -0.1,1.83 -0.19,3.66 -0.31,5.49 -0.12,1.83 -0.28,3.66 -0.43,5.49 -0.16,1.83 -0.33,3.66 -0.5,5.49 -0.16,1.83 -0.35,3.66 -0.49,5.49 -0.14,1.83 -0.27,3.67 -0.34,5.5 -0.07,1.83 -0.11,3.66 -0.09,5.49 0.02,1.83 0.1,3.66 0.23,5.49 0.13,1.83 0.33,3.66 0.56,5.49 0.23,1.84 0.53,3.67 0.83,5.5 0.31,1.83 0.66,3.66 1,5.49 0.34,1.83 0.71,3.66 1.05,5.49 0.34,1.83 0.69,3.66 1,5.49 0.31,1.83 0.6,3.67 0.86,5.5 q 0.26,1.83 0.68,5.49 z"
             class="violin" />
          <path
             inkscape:connector-curvature="0"
             id="path193"
             style="vector-effect:non-scaling-stroke;fill:#d62728;fill-opacity:0.5;stroke:#d62728;stroke-width:2px;stroke-opacity:1"
             d="m 295.09,262.22 q 0.59,-3.42 0.92,-5.12 c 0.33,-1.71 0.69,-3.42 1.05,-5.12 0.36,-1.71 0.74,-3.4 1.1,-5.11 0.36,-1.7 0.72,-3.41 1.04,-5.12 0.31,-1.7 0.62,-3.41 0.85,-5.12 0.23,-1.7 0.43,-3.41 0.55,-5.12 0.12,-1.7 0.18,-3.41 0.18,-5.12 0,-1.7 -0.08,-3.41 -0.19,-5.11 -0.11,-1.71 -0.29,-3.41 -0.47,-5.12 -0.18,-1.71 -0.41,-3.41 -0.62,-5.12 -0.21,-1.71 -0.44,-3.41 -0.64,-5.12 -0.2,-1.7 -0.4,-3.4 -0.57,-5.11 -0.17,-1.7 -0.33,-3.41 -0.47,-5.12 -0.14,-1.71 -0.26,-3.41 -0.39,-5.12 -0.12,-1.71 -0.24,-3.41 -0.36,-5.12 -0.12,-1.71 -0.25,-3.41 -0.38,-5.12 -0.13,-1.7 -0.28,-3.41 -0.42,-5.11 -0.15,-1.71 -0.3,-3.41 -0.45,-5.12 -0.15,-1.71 -0.3,-3.41 -0.45,-5.12 -0.14,-1.71 -0.29,-3.41 -0.42,-5.12 -0.13,-1.71 -0.24,-3.41 -0.34,-5.12 -0.1,-1.7 -0.2,-3.41 -0.28,-5.11 -0.08,-1.71 -0.15,-3.41 -0.21,-5.12 -0.06,-1.71 -0.11,-3.41 -0.16,-5.12 -0.05,-1.71 -0.09,-3.41 -0.14,-5.12 -0.04,-1.71 -0.09,-3.41 -0.13,-5.12 -0.04,-1.7 -0.08,-3.41 -0.12,-5.11 -0.04,-1.71 -0.08,-3.41 -0.12,-5.12 -0.04,-1.71 -0.09,-3.41 -0.13,-5.12 -0.05,-1.71 -0.1,-3.41 -0.14,-5.12 -0.04,-1.71 -0.08,-3.41 -0.12,-5.12 -0.04,-1.7 -0.08,-3.41 -0.11,-5.11 -0.03,-1.71 -0.05,-3.41 -0.07,-5.12 -0.02,-1.71 -0.03,-3.41 -0.04,-5.12 -0.01,-1.71 0,-3.41 0,-5.12 0,-1.7 0.01,-3.41 0.01,-5.11 0.01,-1.71 0.01,-3.41 0.02,-5.12 0,-1.71 0.01,-3.41 0.01,-5.12 0,-1.71 0,-3.41 0,-5.12 0,-1.71 -0.01,-3.41 -0.01,-5.12 0,-1.7 0,-3.41 0,-5.11 0,-1.71 0.01,-3.41 0.01,-5.12 0,-1.71 -0.01,-3.41 -0.01,-5.12 q 0,-1.71 0,-5.12 h -0.46 q -0.01,3.41 -0.01,5.12 c 0,1.71 0,3.41 0,5.12 0,1.71 0,3.41 0,5.12 0,1.7 0,3.41 0,5.11 0,1.71 0,3.41 0,5.12 0,1.71 0,3.41 0,5.12 0,1.71 0.01,3.41 0.01,5.12 0.01,1.71 0.01,3.41 0.02,5.12 0,1.7 0.01,3.41 0.01,5.11 0,1.71 0,3.41 -0.01,5.12 -0.01,1.71 -0.01,3.41 -0.03,5.12 -0.02,1.71 -0.04,3.41 -0.07,5.12 -0.03,1.7 -0.07,3.41 -0.11,5.11 -0.04,1.71 -0.09,3.41 -0.13,5.12 -0.04,1.71 -0.09,3.41 -0.13,5.12 -0.04,1.71 -0.09,3.41 -0.13,5.12 -0.04,1.71 -0.09,3.41 -0.13,5.12 -0.04,1.7 -0.08,3.41 -0.12,5.11 -0.04,1.71 -0.08,3.41 -0.12,5.12 -0.04,1.71 -0.09,3.41 -0.14,5.12 -0.05,1.71 -0.11,3.41 -0.17,5.12 -0.06,1.71 -0.13,3.41 -0.21,5.12 -0.08,1.7 -0.17,3.41 -0.27,5.11 -0.1,1.71 -0.22,3.41 -0.35,5.12 -0.13,1.71 -0.27,3.41 -0.41,5.12 -0.14,1.71 -0.3,3.41 -0.45,5.12 -0.15,1.71 -0.3,3.41 -0.45,5.12 -0.14,1.7 -0.29,3.41 -0.42,5.11 -0.13,1.71 -0.26,3.41 -0.38,5.12 -0.12,1.71 -0.24,3.41 -0.36,5.12 -0.13,1.71 -0.25,3.41 -0.39,5.12 -0.14,1.71 -0.3,3.42 -0.47,5.12 -0.17,1.71 -0.37,3.41 -0.57,5.11 -0.2,1.71 -0.43,3.41 -0.64,5.12 -0.21,1.71 -0.44,3.41 -0.62,5.12 -0.18,1.71 -0.37,3.41 -0.48,5.12 -0.11,1.7 -0.19,3.41 -0.19,5.11 0,1.71 0.06,3.42 0.18,5.12 0.12,1.71 0.32,3.42 0.55,5.12 0.24,1.71 0.54,3.42 0.86,5.12 0.32,1.71 0.69,3.42 1.04,5.12 0.36,1.71 0.73,3.41 1.09,5.11 0.36,1.71 0.72,3.41 1.05,5.12 q 0.33,1.7 0.93,5.12 z"
             class="violin" />
          <path
             inkscape:connector-curvature="0"
             id="path195"
             style="vector-effect:non-scaling-stroke;fill:#d62728;fill-opacity:0.5;stroke:#d62728;stroke-width:2px;stroke-opacity:1"
             d="m 458.43,260.06 q 0.39,-2.22 0.62,-3.33 c 0.23,-1.11 0.49,-2.22 0.76,-3.33 0.27,-1.11 0.57,-2.23 0.87,-3.34 0.3,-1.11 0.63,-2.22 0.95,-3.33 0.32,-1.11 0.66,-2.23 0.99,-3.34 0.33,-1.11 0.67,-2.22 0.99,-3.33 0.32,-1.11 0.63,-2.23 0.93,-3.34 0.29,-1.11 0.59,-2.22 0.84,-3.33 0.25,-1.11 0.48,-2.22 0.67,-3.33 0.19,-1.11 0.35,-2.23 0.48,-3.34 0.13,-1.11 0.22,-2.22 0.3,-3.33 0.08,-1.11 0.13,-2.23 0.16,-3.34 0.03,-1.11 0.05,-2.22 0.05,-3.33 0,-1.11 -0.02,-2.23 -0.06,-3.34 -0.04,-1.11 -0.1,-2.22 -0.19,-3.33 -0.1,-1.11 -0.22,-2.22 -0.38,-3.33 -0.16,-1.11 -0.36,-2.23 -0.59,-3.34 -0.23,-1.11 -0.51,-2.22 -0.8,-3.33 -0.29,-1.12 -0.62,-2.23 -0.96,-3.34 -0.34,-1.11 -0.71,-2.22 -1.06,-3.33 -0.35,-1.11 -0.71,-2.23 -1.05,-3.34 -0.34,-1.11 -0.68,-2.22 -0.98,-3.33 -0.3,-1.11 -0.58,-2.22 -0.83,-3.33 -0.25,-1.11 -0.47,-2.22 -0.66,-3.34 -0.19,-1.11 -0.34,-2.22 -0.47,-3.33 -0.13,-1.11 -0.22,-2.23 -0.3,-3.34 -0.08,-1.11 -0.13,-2.22 -0.17,-3.33 -0.04,-1.11 -0.05,-2.22 -0.06,-3.33 -0.01,-1.11 0,-2.23 0.02,-3.34 0.02,-1.11 0.04,-2.22 0.07,-3.33 0.03,-1.11 0.06,-2.23 0.1,-3.34 0.04,-1.11 0.08,-2.22 0.12,-3.33 0.04,-1.11 0.07,-2.23 0.1,-3.34 0.03,-1.11 0.05,-2.22 0.06,-3.33 0.01,-1.11 0.02,-2.22 0.02,-3.33 0,-1.11 -0.02,-2.23 -0.05,-3.34 -0.03,-1.11 -0.06,-2.22 -0.11,-3.33 -0.05,-1.11 -0.11,-2.23 -0.18,-3.34 -0.07,-1.11 -0.16,-2.22 -0.24,-3.33 -0.09,-1.11 -0.18,-2.23 -0.27,-3.34 -0.09,-1.11 -0.19,-2.22 -0.28,-3.33 -0.09,-1.11 -0.18,-2.22 -0.25,-3.33 -0.08,-1.11 -0.14,-2.23 -0.2,-3.34 -0.06,-1.11 -0.11,-2.22 -0.14,-3.33 -0.04,-1.11 -0.06,-2.23 -0.07,-3.34 -0.01,-1.11 -0.01,-2.22 -0.01,-3.33 0,-1.11 0.01,-2.23 0.02,-3.34 0.01,-1.11 0.04,-2.22 0.05,-3.33 0.01,-1.11 0.02,-2.22 0.03,-3.33 q 0.01,-1.11 0.02,-3.34 h -0.64 q 0.01,2.23 0.02,3.34 c 0.01,1.11 0.02,2.22 0.03,3.33 0.01,1.11 0.04,2.22 0.05,3.33 0.01,1.11 0.02,2.23 0.02,3.34 0,1.11 0,2.22 -0.01,3.33 -0.01,1.11 -0.03,2.23 -0.07,3.34 -0.03,1.11 -0.08,2.22 -0.14,3.33 -0.06,1.11 -0.12,2.23 -0.2,3.34 -0.07,1.11 -0.16,2.22 -0.25,3.33 -0.09,1.11 -0.19,2.22 -0.28,3.33 -0.09,1.11 -0.19,2.23 -0.27,3.34 -0.08,1.11 -0.16,2.22 -0.23,3.33 -0.07,1.11 -0.14,2.23 -0.19,3.34 -0.05,1.11 -0.08,2.22 -0.11,3.33 -0.03,1.11 -0.05,2.23 -0.05,3.34 0,1.11 0.01,2.22 0.02,3.33 0.01,1.11 0.04,2.22 0.07,3.33 0.03,1.11 0.06,2.23 0.1,3.34 0.03,1.11 0.08,2.22 0.11,3.33 0.04,1.11 0.07,2.23 0.1,3.34 0.03,1.11 0.05,2.22 0.07,3.33 0.02,1.11 0.03,2.23 0.02,3.34 -0.01,1.11 -0.02,2.22 -0.06,3.33 -0.04,1.11 -0.09,2.22 -0.17,3.33 -0.08,1.11 -0.17,2.23 -0.3,3.34 -0.13,1.11 -0.28,2.22 -0.47,3.33 -0.19,1.12 -0.41,2.23 -0.66,3.34 -0.25,1.11 -0.53,2.22 -0.83,3.33 -0.3,1.11 -0.64,2.22 -0.98,3.33 -0.34,1.11 -0.7,2.23 -1.05,3.34 -0.35,1.11 -0.72,2.22 -1.06,3.33 -0.34,1.11 -0.67,2.22 -0.96,3.34 -0.29,1.11 -0.57,2.22 -0.8,3.33 -0.23,1.11 -0.43,2.23 -0.59,3.34 -0.16,1.11 -0.28,2.22 -0.38,3.33 -0.09,1.11 -0.15,2.22 -0.19,3.33 -0.04,1.11 -0.05,2.23 -0.05,3.34 0,1.11 0.01,2.22 0.04,3.33 0.03,1.11 0.08,2.23 0.16,3.34 0.08,1.11 0.17,2.22 0.3,3.33 0.13,1.11 0.29,2.23 0.48,3.34 0.19,1.11 0.42,2.22 0.67,3.33 0.25,1.11 0.54,2.22 0.84,3.33 0.3,1.11 0.62,2.23 0.94,3.34 0.32,1.11 0.65,2.22 0.98,3.33 0.33,1.11 0.67,2.23 0.99,3.34 0.32,1.11 0.65,2.22 0.95,3.33 0.3,1.11 0.6,2.23 0.87,3.34 0.27,1.11 0.53,2.22 0.76,3.33 q 0.23,1.11 0.62,3.33 z"
             class="violin" />
          <path
             inkscape:connector-curvature="0"
             id="path197"
             style="vector-effect:non-scaling-stroke;fill:#d62728;fill-opacity:0.5;stroke:#000000;stroke-width:1.5px;stroke-opacity:1"
             d="m 125.79,212.93 h 5.03 m -5.03,18.09 h 5.03 v -51.03 h -5.03 z m 2.51,0 v 37.63 m 0,-88.66 v -66.53"
             class="box" />
          <path
             inkscape:connector-curvature="0"
             id="path199"
             style="vector-effect:non-scaling-stroke;fill:#d62728;fill-opacity:0.5;stroke:#000000;stroke-width:1.5px;stroke-opacity:1"
             d="m 290.12,218.7 h 5.03 m -5.03,13.66 h 5.03 v -48.03 h -5.03 z m 2.52,0 v 29.86 m 0,-77.89 v -71.82"
             class="box" />
          <path
             inkscape:connector-curvature="0"
             id="path201"
             style="vector-effect:non-scaling-stroke;fill:#d62728;fill-opacity:0.5;stroke:#000000;stroke-width:1.5px;stroke-opacity:1"
             d="m 454.45,213.18 h 5.04 m -5.04,15.35 h 5.04 v -31.29 h -5.04 z m 2.52,0 v 31.53 m 0,-62.82 V 151.2"
             class="box" />
          <path
             inkscape:connector-curvature="0"
             id="path203"
             style="vector-effect:non-scaling-stroke;fill:none;stroke:#ffffff;stroke-width:1.5px;stroke-dasharray:3;stroke-opacity:1"
             d="m 125.79,203.27 h 5.03"
             class="mean" />
          <path
             inkscape:connector-curvature="0"
             id="path205"
             style="vector-effect:non-scaling-stroke;fill:none;stroke:#ffffff;stroke-width:1.5px;stroke-dasharray:3;stroke-opacity:1"
             d="m 290.12,205.19 h 5.03"
             class="mean" />
          <path
             inkscape:connector-curvature="0"
             id="path207"
             style="vector-effect:non-scaling-stroke;fill:none;stroke:#ffffff;stroke-width:1.5px;stroke-dasharray:3;stroke-opacity:1"
             d="m 454.45,207.1 h 5.04"
             class="mean" />
          <g
             id="g211"
             class="points">
            <path
               inkscape:connector-curvature="0"
               id="path209"
               style="opacity:1;fill:#d62728;fill-opacity:1;stroke:#000000;stroke-width:1.5px;stroke-opacity:1"
               d="M 3,0 A 3,3 0 1 1 0,-3 3,3 0 0 1 3,0 Z"
               transform="translate(128.3,16)"
               class="point" />
          </g>
          <g
             id="g217"
             class="points">
            <path
               inkscape:connector-curvature="0"
               id="path213"
               style="opacity:1;fill:#d62728;fill-opacity:1;stroke:#000000;stroke-width:1.5px;stroke-opacity:1"
               d="M 3,0 A 3,3 0 1 1 0,-3 3,3 0 0 1 3,0 Z"
               transform="translate(292.64,69.91)"
               class="point" />
            <path
               inkscape:connector-curvature="0"
               id="path215"
               style="opacity:1;fill:#d62728;fill-opacity:1;stroke:#000000;stroke-width:1.5px;stroke-opacity:1"
               d="M 3,0 A 3,3 0 1 1 0,-3 3,3 0 0 1 3,0 Z"
               transform="translate(292.64,37.03)"
               class="point" />
          </g>
          <g
             id="g233"
             class="points">
            <path
               inkscape:connector-curvature="0"
               id="path219"
               style="opacity:1;fill:#d62728;fill-opacity:1;stroke:#000000;stroke-width:1.5px;stroke-opacity:1"
               d="M 3,0 A 3,3 0 1 1 0,-3 3,3 0 0 1 3,0 Z"
               transform="translate(456.97,142.96)"
               class="point" />
            <path
               inkscape:connector-curvature="0"
               id="path221"
               style="opacity:1;fill:#d62728;fill-opacity:1;stroke:#000000;stroke-width:1.5px;stroke-opacity:1"
               d="M 3,0 A 3,3 0 1 1 0,-3 3,3 0 0 1 3,0 Z"
               transform="translate(456.97,142.59)"
               class="point" />
            <path
               inkscape:connector-curvature="0"
               id="path223"
               style="opacity:1;fill:#d62728;fill-opacity:1;stroke:#000000;stroke-width:1.5px;stroke-opacity:1"
               d="M 3,0 A 3,3 0 1 1 0,-3 3,3 0 0 1 3,0 Z"
               transform="translate(456.97,141.76)"
               class="point" />
            <path
               inkscape:connector-curvature="0"
               id="path225"
               style="opacity:1;fill:#d62728;fill-opacity:1;stroke:#000000;stroke-width:1.5px;stroke-opacity:1"
               d="M 3,0 A 3,3 0 1 1 0,-3 3,3 0 0 1 3,0 Z"
               transform="translate(456.97,134.79)"
               class="point" />
            <path
               inkscape:connector-curvature="0"
               id="path227"
               style="opacity:1;fill:#d62728;fill-opacity:1;stroke:#000000;stroke-width:1.5px;stroke-opacity:1"
               d="M 3,0 A 3,3 0 1 1 0,-3 3,3 0 0 1 3,0 Z"
               transform="translate(456.97,131.22)"
               class="point" />
            <path
               inkscape:connector-curvature="0"
               id="path229"
               style="opacity:1;fill:#d62728;fill-opacity:1;stroke:#000000;stroke-width:1.5px;stroke-opacity:1"
               d="M 3,0 A 3,3 0 1 1 0,-3 3,3 0 0 1 3,0 Z"
               transform="translate(456.97,127.55)"
               class="point" />
            <path
               inkscape:connector-curvature="0"
               id="path231"
               style="opacity:1;fill:#d62728;fill-opacity:1;stroke:#000000;stroke-width:1.5px;stroke-opacity:1"
               d="M 3,0 A 3,3 0 1 1 0,-3 3,3 0 0 1 3,0 Z"
               transform="translate(456.97,93.35)"
               class="point" />
          </g>
        </g>
      </g>
    </g>
  </g>
  <g
     class="overplot"
     id="g241" />
  <g
     class="overlines-above"
     id="g247" />
  <g
     class="xaxislayer-above"
     id="g261">
    <g
       class="xtick"
       id="g251">
      <text
         x="0"
         y="439"
         transform="translate(165.17)"
         style="font-size:18px;font-family:'Open Sans', verdana, arial, sans-serif;text-anchor:middle;white-space:pre;fill:#444444;fill-opacity:1"
         id="text249">Precision</text>
    </g>
    <g
       class="xtick"
       id="g255">
      <text
         x="0"
         y="439"
         transform="translate(329.5)"
         style="font-size:18px;font-family:'Open Sans', verdana, arial, sans-serif;text-anchor:middle;white-space:pre;fill:#444444;fill-opacity:1"
         id="text253">Recall</text>
    </g>
    <g
       class="xtick"
       id="g259">
      <text
         x="0"
         y="439"
         transform="translate(493.83)"
         style="font-size:18px;font-family:'Open Sans', verdana, arial, sans-serif;text-anchor:middle;white-space:pre;fill:#444444;fill-opacity:1"
         id="text257">F-measure</text>
    </g>
  </g>
  <g
     class="yaxislayer-above"
     id="g287">
    <g
       class="ytick"
       id="g265">
      <text
         x="79"
         y="4.1999998"
         transform="translate(0,381)"
         style="font-size:12px;font-family:'Open Sans', verdana, arial, sans-serif;text-anchor:end;white-space:pre;fill:#444444;fill-opacity:1"
         id="text263">0</text>
    </g>
    <g
       class="ytick"
       id="g269">
      <text
         x="79"
         y="4.1999998"
         transform="translate(0,328)"
         style="font-size:12px;font-family:'Open Sans', verdana, arial, sans-serif;text-anchor:end;white-space:pre;fill:#444444;fill-opacity:1"
         id="text267">0.2</text>
    </g>
    <g
       class="ytick"
       id="g273">
      <text
         x="79"
         y="4.1999998"
         transform="translate(0,275)"
         style="font-size:12px;font-family:'Open Sans', verdana, arial, sans-serif;text-anchor:end;white-space:pre;fill:#444444;fill-opacity:1"
         id="text271">0.4</text>
    </g>
    <g
       class="ytick"
       id="g277">
      <text
         x="79"
         y="4.1999998"
         transform="translate(0,222)"
         style="font-size:12px;font-family:'Open Sans', verdana, arial, sans-serif;text-anchor:end;white-space:pre;fill:#444444;fill-opacity:1"
         id="text275">0.6</text>
    </g>
    <g
       class="ytick"
       id="g281">
      <text
         x="79"
         y="4.1999998"
         transform="translate(0,169)"
         style="font-size:12px;font-family:'Open Sans', verdana, arial, sans-serif;text-anchor:end;white-space:pre;fill:#444444;fill-opacity:1"
         id="text279">0.8</text>
    </g>
    <g
       class="ytick"
       id="g285">
      <text
         x="79"
         y="4.1999998"
         transform="translate(0,116)"
         style="font-size:12px;font-family:'Open Sans', verdana, arial, sans-serif;text-anchor:end;white-space:pre;fill:#444444;fill-opacity:1"
         id="text283">1</text>
    </g>
  </g>
  <g
     class="overaxes-above"
     id="g289" />
  <g
     class="polarlayer"
     id="g295" />
  <g
     class="ternarylayer"
     id="g297" />
  <g
     class="geolayer"
     id="g299" />
  <g
     class="pielayer"
     id="g301" />
  <g
     class="glimages"
     id="g303" />
  <defs
     id="topdefs-e74a2c">
    <g
       class="clips"
       id="g305" />
    <clipPath
       id="legende74a2c">
      <rect
         width="99"
         height="86"
         x="0"
         y="0"
         id="rect307" />
    </clipPath>
  </defs>
  <g
     class="layer-above"
     id="g315">
    <g
       class="imagelayer"
       id="g311" />
    <g
       class="shapelayer"
       id="g313" />
  </g>
  <g
     class="infolayer"
     id="g455">
    <g
       class="legend"
       pointer-events="all"
       transform="translate(588.98, 100)"
       id="g397">
      <rect
         class="bg"
         shape-rendering="crispEdges"
         width="99"
         height="86"
         x="0"
         y="0"
         style="stroke: rgb(68, 68, 68); stroke-opacity: 1; fill: rgb(255, 255, 255); fill-opacity: 1; stroke-width: 0px;"
         id="rect317" />
      <g
         class="scrollbox"
         transform="translate(0, 0)"
         clip-path="url(#legende74a2c)"
         id="g393">
        <g
           id="g335"
           style="opacity:1"
           transform="translate(0,14.5)"
           class="traces">
          <text
             id="text319"
             style="font-size:12px;font-family:'Open Sans', verdana, arial, sans-serif;text-anchor:start;white-space:pre;fill:#444444;fill-opacity:1"
             y="4.6799998"
             x="40"
             class="legendtext user-select-none">VoSA </text>
          <rect
             id="rect321"
             style="fill:#000000;fill-opacity:0"
             height="19"
             width="139"
             y="-9.5"
             x="0"
             pointer-events="all"
             class="legendtoggle" />
          <g
             id="g333"
             style="opacity:0.6"
             class="layers">
            <g
               id="g323"
               class="legendfill" />
            <g
               id="g325"
               class="legendlines" />
            <g
               id="g331"
               class="legendsymbols">
              <g
                 id="g329"
                 class="legendpoints">
                <path
                   inkscape:connector-curvature="0"
                   id="path327"
                   style="fill:#1f77b4;fill-opacity:0.5;stroke:#1f77b4;stroke-width:2px;stroke-opacity:1"
                   transform="translate(20)"
                   d="M 6,6 H -6 V -6 H 6 Z"
                   class="legendbox" />
              </g>
            </g>
          </g>
        </g>
        <g
           id="g353"
           style="opacity:1"
           transform="translate(0,33.5)"
           class="traces">
          <text
             id="text337"
             style="font-size:12px;font-family:'Open Sans', verdana, arial, sans-serif;text-anchor:start;white-space:pre;fill:#444444;fill-opacity:1"
             y="4.6799998"
             x="40"
             class="legendtext user-select-none">CNN Mono</text>
          <rect
             id="rect339"
             style="fill:#000000;fill-opacity:0"
             height="19"
             width="139"
             y="-9.5"
             x="0"
             pointer-events="all"
             class="legendtoggle" />
          <g
             id="g351"
             style="opacity:0.6"
             class="layers">
            <g
               id="g341"
               class="legendfill" />
            <g
               id="g343"
               class="legendlines" />
            <g
               id="g349"
               class="legendsymbols">
              <g
                 id="g347"
                 class="legendpoints">
                <path
                   inkscape:connector-curvature="0"
                   id="path345"
                   style="fill:#ff7f0e;fill-opacity:0.5;stroke:#ff7f0e;stroke-width:2px;stroke-opacity:1"
                   transform="translate(20)"
                   d="M 6,6 H -6 V -6 H 6 Z"
                   class="legendbox" />
              </g>
            </g>
          </g>
        </g>
        <g
           id="g371"
           style="opacity:1"
           transform="translate(0,52.5)"
           class="traces">
          <text
             id="text355"
             style="font-size:12px;font-family:'Open Sans', verdana, arial, sans-serif;text-anchor:start;white-space:pre;fill:#444444;fill-opacity:1"
             y="4.6799998"
             x="40"
             class="legendtext user-select-none">CNN </text>
          <rect
             id="rect357"
             style="fill:#000000;fill-opacity:0"
             height="19"
             width="139"
             y="-9.5"
             x="0"
             pointer-events="all"
             class="legendtoggle" />
          <g
             id="g369"
             style="opacity:0.6"
             class="layers">
            <g
               id="g359"
               class="legendfill" />
            <g
               id="g361"
               class="legendlines" />
            <g
               id="g367"
               class="legendsymbols">
              <g
                 id="g365"
                 class="legendpoints">
                <path
                   inkscape:connector-curvature="0"
                   id="path363"
                   style="fill:#2ca02c;fill-opacity:0.5;stroke:#2ca02c;stroke-width:2px;stroke-opacity:1"
                   transform="translate(20)"
                   d="M 6,6 H -6 V -6 H 6 Z"
                   class="legendbox" />
              </g>
            </g>
          </g>
        </g>
        <g
           id="g389"
           style="opacity:1"
           transform="translate(0,71.5)"
           class="traces">
          <text
             id="text373"
             style="font-size:12px;font-family:'Open Sans', verdana, arial, sans-serif;text-anchor:start;white-space:pre;fill:#444444;fill-opacity:1"
             y="4.6799998"
             x="40"
             class="legendtext user-select-none">Skyline </text>
          <rect
             id="rect375"
             style="fill:#000000;fill-opacity:0"
             height="19"
             width="139"
             y="-9.5"
             x="0"
             pointer-events="all"
             class="legendtoggle" />
          <g
             id="g387"
             style="opacity:0.6"
             class="layers">
            <g
               id="g377"
               class="legendfill" />
            <g
               id="g379"
               class="legendlines" />
            <g
               id="g385"
               class="legendsymbols">
              <g
                 id="g383"
                 class="legendpoints">
                <path
                   inkscape:connector-curvature="0"
                   id="path381"
                   style="fill:#d62728;fill-opacity:0.5;stroke:#d62728;stroke-width:2px;stroke-opacity:1"
                   transform="translate(20)"
                   d="M 6,6 H -6 V -6 H 6 Z"
                   class="legendbox" />
              </g>
            </g>
          </g>
        </g>
      </g>
      <rect
         class="scrollbar"
         rx="20"
         ry="3"
         width="0"
         height="0"
         x="0"
         y="0"
         style="fill: rgb(128, 139, 164); fill-opacity: 1;"
         id="rect395" />
    </g>
    <g
       class="g-gtitle"
       id="g401">
      <text
         class="gtitle"
         x="350"
         y="50"
         text-anchor="middle"
         dy="0em"
         style="font-family: 'Open Sans', verdana, arial, sans-serif; font-size: 17px; fill: rgb(68, 68, 68); opacity: 1; font-weight: normal; white-space: pre;"
         id="text399">Pop crossvalidation</text>
    </g>
    <g
       class="g-xtitle"
       id="g403" />
    <g
       class="g-ytitle"
       id="g405" />
  </g>
</svg>
