<svg class="main-svg" xmlns="http://www.w3.org/2000/svg" xmlns:xlink="http://www.w3.org/1999/xlink" width="700" height="500" viewBox="0 0 700 500"><rect x="0" y="0" width="700" height="500" style="fill: rgb(255, 255, 255); fill-opacity: 1;"/><defs id="defs-e74a2c"><g class="clips"><clipPath id="clipe74a2cxyplot" class="plotclip"><rect width="499" height="320"/></clipPath><clipPath class="axesclip" id="clipe74a2cx"><rect x="80" y="0" width="499" height="500"/></clipPath><clipPath class="axesclip" id="clipe74a2cy"><rect x="0" y="100" width="700" height="320"/></clipPath><clipPath class="axesclip" id="clipe74a2cxy"><rect x="80" y="100" width="499" height="320"/></clipPath></g><g class="gradients"/></defs><g class="bglayer"/><g class="layer-below"><g class="imagelayer"/><g class="shapelayer"/></g><g class="cartesianlayer"><g class="subplot xy"><g class="layer-subplot"><g class="shapelayer"/><g class="imagelayer"/></g><g class="gridlayer"><g class="x"/><g class="y"><path class="ygrid crisp" transform="translate(0,381)" d="M80,0h499" style="stroke: rgb(238, 238, 238); stroke-opacity: 1; stroke-width: 1px;"/><path class="ygrid crisp" transform="translate(0,328)" d="M80,0h499" style="stroke: rgb(238, 238, 238); stroke-opacity: 1; stroke-width: 1px;"/><path class="ygrid crisp" transform="translate(0,275)" d="M80,0h499" style="stroke: rgb(238, 238, 238); stroke-opacity: 1; stroke-width: 1px;"/><path class="ygrid crisp" transform="translate(0,222)" d="M80,0h499" style="stroke: rgb(238, 238, 238); stroke-opacity: 1; stroke-width: 1px;"/><path class="ygrid crisp" transform="translate(0,169)" d="M80,0h499" style="stroke: rgb(238, 238, 238); stroke-opacity: 1; stroke-width: 1px;"/><path class="ygrid crisp" transform="translate(0,116)" d="M80,0h499" style="stroke: rgb(238, 238, 238); stroke-opacity: 1; stroke-width: 1px;"/></g></g><g class="zerolinelayer"/><path class="xlines-below"/><path class="ylines-below"/><g class="overlines-below"/><g class="xaxislayer-below"/><g class="yaxislayer-below"/><g class="overaxes-below"/><g class="plot" transform="translate(80, 100)" clip-path="url(#clipe74a2cxyplot)"><g class="violinlayer mlayer"><g class="trace violins" style="opacity: 0.6;"><path class="violin" d="M43.26,242.75Q43.53,240.53 43.67,239.42C43.82,238.31 43.97,237.2 44.13,236.09C44.3,234.98 44.47,233.87 44.66,232.76C44.85,231.65 45.05,230.53 45.28,229.42C45.51,228.31 45.76,227.2 46.04,226.09C46.32,224.98 46.62,223.87 46.94,222.76C47.26,221.65 47.62,220.54 47.97,219.43C48.32,218.32 48.71,217.2 49.06,216.09C49.41,214.98 49.77,213.87 50.09,212.76C50.41,211.65 50.71,210.54 50.96,209.43C51.21,208.32 51.42,207.21 51.59,206.1C51.76,204.99 51.88,203.87 51.96,202.76C52.04,201.65 52.08,200.54 52.09,199.43C52.1,198.32 52.08,197.21 52.03,196.1C51.98,194.99 51.9,193.88 51.81,192.77C51.72,191.66 51.6,190.54 51.47,189.43C51.33,188.32 51.18,187.21 51,186.1C50.82,184.99 50.62,183.88 50.41,182.77C50.2,181.66 49.96,180.55 49.72,179.44C49.48,178.33 49.22,177.21 48.96,176.1C48.7,174.99 48.42,173.88 48.15,172.77C47.88,171.66 47.61,170.55 47.34,169.44C47.07,168.33 46.8,167.22 46.55,166.11C46.3,165 46.05,163.88 45.82,162.77C45.59,161.66 45.37,160.55 45.16,159.44C44.95,158.33 44.76,157.22 44.58,156.11C44.4,155 44.23,153.89 44.08,152.78C43.93,151.67 43.79,150.56 43.66,149.45C43.54,148.34 43.43,147.22 43.33,146.11C43.24,145 43.16,143.89 43.09,142.78C43.02,141.67 42.97,140.56 42.93,139.45C42.89,138.34 42.86,137.23 42.83,136.12C42.8,135.01 42.78,133.89 42.75,132.78C42.73,131.67 42.71,130.56 42.68,129.45C42.65,128.34 42.62,127.23 42.59,126.12C42.56,125.01 42.52,123.9 42.48,122.79C42.44,121.68 42.41,120.56 42.37,119.45C42.33,118.34 42.29,117.23 42.26,116.12C42.23,115.01 42.2,113.9 42.17,112.79C42.15,111.68 42.13,110.57 42.11,109.46C42.09,108.35 42.08,107.23 42.07,106.12C42.06,105.01 42.05,103.9 42.05,102.79C42.05,101.68 42.05,100.57 42.05,99.46C42.05,98.35 42.05,97.24 42.06,96.13C42.07,95.02 42.08,93.9 42.09,92.79C42.1,91.68 42.12,90.57 42.14,89.46C42.16,88.35 42.19,87.24 42.22,86.13C42.25,85.02 42.29,83.91 42.33,82.8C42.37,81.69 42.42,80.57 42.46,79.46C42.5,78.35 42.55,77.24 42.59,76.13C42.64,75.02 42.69,73.91 42.73,72.8C42.77,71.69 42.8,70.58 42.83,69.47C42.86,68.36 42.89,67.25 42.91,66.14C42.93,65.03 42.94,63.91 42.94,62.8C42.94,61.69 42.93,60.58 42.92,59.47C42.91,58.36 42.88,57.25 42.85,56.14Q42.82,55.03 42.74,52.81L41.32,52.81Q41.24,55.03 41.21,56.14C41.18,57.25 41.15,58.36 41.14,59.47C41.13,60.58 41.12,61.69 41.12,62.8C41.12,63.91 41.13,65.03 41.15,66.14C41.17,67.25 41.19,68.36 41.22,69.47C41.25,70.58 41.29,71.69 41.33,72.8C41.37,73.91 41.42,75.02 41.46,76.13C41.51,77.24 41.56,78.35 41.6,79.46C41.65,80.57 41.69,81.69 41.73,82.8C41.77,83.91 41.81,85.02 41.84,86.13C41.87,87.24 41.9,88.35 41.92,89.46C41.94,90.57 41.96,91.68 41.97,92.79C41.98,93.9 41.99,95.02 42,96.13C42.01,97.24 42.01,98.35 42.01,99.46C42.01,100.57 42.01,101.68 42.01,102.79C42.01,103.9 42,105.01 41.99,106.12C41.98,107.23 41.97,108.35 41.95,109.46C41.93,110.57 41.91,111.68 41.89,112.79C41.86,113.9 41.83,115.01 41.8,116.12C41.77,117.23 41.73,118.34 41.69,119.45C41.65,120.56 41.61,121.68 41.57,122.79C41.53,123.9 41.5,125.01 41.47,126.12C41.44,127.23 41.41,128.34 41.38,129.45C41.35,130.56 41.32,131.67 41.3,132.78C41.27,133.89 41.26,135.01 41.23,136.12C41.2,137.23 41.17,138.34 41.13,139.45C41.09,140.56 41.04,141.67 40.97,142.78C40.9,143.89 40.82,145 40.73,146.11C40.63,147.22 40.52,148.34 40.4,149.45C40.27,150.56 40.13,151.67 39.98,152.78C39.83,153.89 39.66,155 39.48,156.11C39.3,157.22 39.1,158.33 38.89,159.44C38.68,160.55 38.47,161.66 38.24,162.77C38.01,163.88 37.76,165 37.51,166.11C37.26,167.22 36.99,168.33 36.72,169.44C36.45,170.55 36.18,171.66 35.91,172.77C35.64,173.88 35.36,174.99 35.1,176.1C34.84,177.21 34.57,178.33 34.33,179.44C34.09,180.55 33.85,181.66 33.64,182.77C33.43,183.88 33.24,184.99 33.06,186.1C32.89,187.21 32.73,188.32 32.59,189.43C32.45,190.54 32.33,191.66 32.24,192.77C32.15,193.88 32.08,194.99 32.03,196.1C31.98,197.21 31.95,198.32 31.96,199.43C31.97,200.54 32.01,201.65 32.09,202.76C32.17,203.87 32.29,204.99 32.46,206.1C32.63,207.21 32.85,208.32 33.1,209.43C33.35,210.54 33.65,211.65 33.97,212.76C34.29,213.87 34.65,214.98 35,216.09C35.35,217.2 35.74,218.32 36.09,219.43C36.44,220.54 36.8,221.65 37.12,222.76C37.44,223.87 37.74,224.98 38.02,226.09C38.29,227.2 38.54,228.31 38.77,229.42C39,230.53 39.21,231.65 39.4,232.76C39.59,233.87 39.76,234.98 39.93,236.09C40.09,237.2 40.24,238.31 40.39,239.42Q40.53,240.53 40.8,242.75Z" style="vector-effect: non-scaling-stroke; stroke-width: 2px; stroke: rgb(31, 119, 180); stroke-opacity: 1; fill: rgb(31, 119, 180); fill-opacity: 0.5;"/><path class="violin" d="M210.3,233.4Q211.09,230.5 211.45,229.05C211.81,227.61 212.16,226.16 212.46,224.71C212.76,223.26 213.03,221.81 213.25,220.36C213.47,218.91 213.64,217.46 213.79,216.01C213.94,214.56 214.04,213.11 214.13,211.66C214.22,210.21 214.28,208.76 214.33,207.31C214.38,205.86 214.42,204.42 214.44,202.97C214.46,201.52 214.47,200.07 214.45,198.62C214.43,197.17 214.39,195.72 214.32,194.27C214.25,192.82 214.15,191.37 214.02,189.92C213.89,188.47 213.73,187.02 213.56,185.57C213.39,184.12 213.18,182.68 212.98,181.23C212.78,179.78 212.55,178.33 212.34,176.88C212.13,175.43 211.9,173.98 211.7,172.53C211.5,171.08 211.3,169.63 211.12,168.18C210.94,166.73 210.76,165.28 210.6,163.83C210.44,162.38 210.29,160.94 210.14,159.49C209.99,158.04 209.84,156.59 209.69,155.14C209.54,153.69 209.4,152.24 209.26,150.79C209.12,149.34 208.97,147.89 208.83,146.44C208.69,144.99 208.56,143.54 208.43,142.09C208.31,140.64 208.19,139.2 208.08,137.75C207.97,136.3 207.87,134.85 207.78,133.4C207.69,131.95 207.61,130.5 207.54,129.05C207.47,127.6 207.41,126.15 207.35,124.7C207.29,123.25 207.23,121.8 207.18,120.35C207.13,118.9 207.08,117.46 207.03,116.01C206.98,114.56 206.94,113.11 206.89,111.66C206.85,110.21 206.8,108.76 206.76,107.31C206.72,105.86 206.69,104.41 206.66,102.96C206.63,101.51 206.61,100.06 206.59,98.61C206.57,97.16 206.57,95.72 206.56,94.27C206.55,92.82 206.56,91.37 206.56,89.92C206.56,88.47 206.57,87.02 206.57,85.57C206.58,84.12 206.58,82.67 206.59,81.22C206.59,79.77 206.6,78.32 206.6,76.87C206.6,75.42 206.59,73.97 206.58,72.52C206.57,71.07 206.56,69.63 206.55,68.18C206.54,66.73 206.52,65.28 206.51,63.83C206.49,62.38 206.47,60.93 206.46,59.48C206.45,58.03 206.44,56.58 206.43,55.13C206.42,53.68 206.41,52.23 206.4,50.78C206.39,49.33 206.39,47.89 206.39,46.44C206.39,44.99 206.4,43.54 206.4,42.09C206.41,40.64 206.41,39.19 206.42,37.74C206.43,36.29 206.45,34.84 206.46,33.39C206.47,31.94 206.48,30.49 206.5,29.04C206.51,27.59 206.54,26.15 206.55,24.7C206.56,23.25 206.57,21.8 206.58,20.35Q206.59,18.9 206.59,16L206.13,16Q206.13,18.9 206.14,20.35C206.15,21.8 206.17,23.25 206.18,24.7C206.19,26.15 206.21,27.59 206.22,29.04C206.24,30.49 206.26,31.94 206.27,33.39C206.28,34.84 206.29,36.29 206.3,37.74C206.31,39.19 206.31,40.64 206.32,42.09C206.32,43.54 206.33,44.99 206.33,46.44C206.33,47.89 206.32,49.33 206.32,50.78C206.31,52.23 206.31,53.68 206.3,55.13C206.29,56.58 206.27,58.03 206.26,59.48C206.25,60.93 206.23,62.38 206.22,63.83C206.2,65.28 206.18,66.73 206.17,68.18C206.16,69.63 206.15,71.07 206.14,72.52C206.13,73.97 206.13,75.42 206.13,76.87C206.13,78.32 206.13,79.77 206.13,81.22C206.13,82.67 206.14,84.12 206.15,85.57C206.16,87.02 206.17,88.47 206.17,89.92C206.17,91.37 206.18,92.82 206.17,94.27C206.16,95.72 206.15,97.16 206.13,98.61C206.11,100.06 206.1,101.51 206.07,102.96C206.04,104.41 206,105.86 205.96,107.31C205.92,108.76 205.88,110.21 205.84,111.66C205.8,113.11 205.75,114.56 205.7,116.01C205.65,117.46 205.59,118.9 205.54,120.35C205.49,121.8 205.44,123.25 205.38,124.7C205.32,126.15 205.25,127.6 205.18,129.05C205.11,130.5 205.03,131.95 204.94,133.4C204.85,134.85 204.76,136.3 204.65,137.75C204.54,139.2 204.42,140.64 204.29,142.09C204.16,143.54 204.03,144.99 203.89,146.44C203.75,147.89 203.61,149.34 203.47,150.79C203.33,152.24 203.18,153.69 203.03,155.14C202.88,156.59 202.74,158.04 202.59,159.49C202.44,160.94 202.28,162.38 202.12,163.83C201.95,165.28 201.78,166.73 201.6,168.18C201.42,169.63 201.22,171.08 201.02,172.53C200.82,173.98 200.6,175.43 200.39,176.88C200.18,178.33 199.96,179.78 199.75,181.23C199.55,182.68 199.34,184.12 199.16,185.57C198.99,187.02 198.83,188.47 198.7,189.92C198.58,191.37 198.48,192.82 198.41,194.27C198.34,195.72 198.3,197.17 198.28,198.62C198.26,200.07 198.26,201.52 198.28,202.97C198.3,204.42 198.34,205.86 198.39,207.31C198.44,208.76 198.51,210.21 198.6,211.66C198.69,213.11 198.8,214.56 198.94,216.01C199.09,217.46 199.25,218.91 199.47,220.36C199.69,221.81 199.96,223.26 200.26,224.71C200.56,226.16 200.92,227.6 201.28,229.05Q201.64,230.5 202.42,233.4Z" style="vector-effect: non-scaling-stroke; stroke-width: 2px; stroke: rgb(31, 119, 180); stroke-opacity: 1; fill: rgb(31, 119, 180); fill-opacity: 0.5;"/><path class="violin" d="M372.81,241.04Q373.3,237.97 373.55,236.43C373.8,234.9 374.07,233.36 374.33,231.83C374.59,230.29 374.85,228.76 375.09,227.22C375.33,225.69 375.56,224.16 375.76,222.62C375.96,221.09 376.14,219.55 376.29,218.01C376.44,216.48 376.56,214.94 376.66,213.41C376.76,211.87 376.83,210.34 376.89,208.8C376.95,207.27 377,205.73 377.04,204.2C377.09,202.66 377.11,201.13 377.16,199.59C377.21,198.06 377.26,196.52 377.32,194.99C377.38,193.45 377.45,191.92 377.52,190.38C377.59,188.84 377.68,187.31 377.74,185.77C377.8,184.24 377.87,182.7 377.89,181.17C377.91,179.63 377.93,178.1 377.88,176.56C377.83,175.03 377.74,173.49 377.6,171.96C377.46,170.42 377.26,168.88 377.04,167.35C376.81,165.81 376.53,164.28 376.25,162.75C375.97,161.21 375.64,159.68 375.34,158.14C375.04,156.61 374.73,155.08 374.46,153.54C374.19,152.01 373.95,150.47 373.74,148.93C373.54,147.4 373.37,145.87 373.23,144.33C373.09,142.8 373,141.26 372.92,139.72C372.84,138.19 372.79,136.65 372.74,135.12C372.68,133.58 372.64,132.05 372.59,130.51C372.54,128.97 372.49,127.44 372.42,125.9C372.35,124.37 372.27,122.83 372.19,121.3C372.1,119.76 372.01,118.23 371.91,116.69C371.82,115.16 371.71,113.62 371.62,112.09C371.53,110.55 371.43,109.02 371.35,107.48C371.27,105.95 371.19,104.41 371.13,102.88C371.07,101.34 371.02,99.81 370.98,98.27C370.94,96.74 370.92,95.2 370.91,93.67C370.9,92.13 370.9,90.6 370.9,89.06C370.9,87.53 370.92,85.99 370.93,84.46C370.94,82.92 370.96,81.39 370.98,79.85C371,78.31 371.02,76.78 371.04,75.24C371.06,73.71 371.08,72.17 371.09,70.64C371.1,69.1 371.1,67.57 371.1,66.03Q371.1,64.5 371.07,61.43L370.32,61.43Q370.29,64.5 370.29,66.03C370.29,67.57 370.3,69.1 370.31,70.64C370.32,72.17 370.33,73.71 370.35,75.24C370.37,76.78 370.39,78.31 370.41,79.85C370.43,81.39 370.44,82.92 370.46,84.46C370.47,85.99 370.5,87.53 370.5,89.06C370.5,90.6 370.5,92.13 370.48,93.67C370.46,95.2 370.45,96.74 370.41,98.27C370.37,99.81 370.32,101.34 370.26,102.88C370.2,104.41 370.12,105.95 370.04,107.48C369.96,109.02 369.86,110.55 369.77,112.09C369.68,113.62 369.57,115.16 369.48,116.69C369.38,118.23 369.29,119.76 369.2,121.3C369.12,122.83 369.04,124.37 368.97,125.9C368.9,127.44 368.85,128.97 368.8,130.51C368.75,132.05 368.71,133.58 368.65,135.12C368.6,136.65 368.55,138.19 368.47,139.72C368.39,141.26 368.3,142.8 368.16,144.33C368.02,145.87 367.85,147.4 367.65,148.93C367.44,150.47 367.2,152.01 366.93,153.54C366.66,155.08 366.35,156.61 366.05,158.14C365.75,159.68 365.42,161.21 365.14,162.75C364.86,164.28 364.58,165.81 364.35,167.35C364.13,168.88 363.93,170.42 363.79,171.96C363.65,173.49 363.56,175.03 363.51,176.56C363.46,178.1 363.48,179.63 363.5,181.17C363.52,182.7 363.59,184.24 363.65,185.77C363.71,187.31 363.8,188.84 363.87,190.38C363.94,191.92 364.02,193.45 364.08,194.99C364.14,196.52 364.18,198.06 364.23,199.59C364.28,201.13 364.31,202.66 364.36,204.2C364.4,205.73 364.44,207.27 364.5,208.8C364.56,210.34 364.63,211.87 364.73,213.41C364.83,214.94 364.96,216.48 365.11,218.01C365.26,219.55 365.44,221.09 365.64,222.62C365.84,224.16 366.07,225.69 366.31,227.22C366.55,228.76 366.8,230.29 367.06,231.83C367.32,233.36 367.6,234.9 367.85,236.43Q368.11,237.97 368.59,241.04Z" style="vector-effect: non-scaling-stroke; stroke-width: 2px; stroke: rgb(31, 119, 180); stroke-opacity: 1; fill: rgb(31, 119, 180); fill-opacity: 0.5;"/><path class="box" d="M39.51,193.61H44.55M39.51,208.45H44.55V177.59H39.51ZM42.03,208.45V242.75M42.03,177.59V133.86" style="vector-effect: non-scaling-stroke; stroke-width: 1.5px; stroke: rgb(0, 0, 0); stroke-opacity: 1; fill: rgb(31, 119, 180); fill-opacity: 0.5;"/><path class="box" d="M203.85,196.74H208.88M203.85,214.49H208.88V174.27H203.85ZM206.36,214.49V233.4M206.36,174.27V125.9" style="vector-effect: non-scaling-stroke; stroke-width: 1.5px; stroke: rgb(0, 0, 0); stroke-opacity: 1; fill: rgb(31, 119, 180); fill-opacity: 0.5;"/><path class="box" d="M368.18,183.83H373.21M368.18,210.36H373.21V167.48H368.18ZM370.7,210.36V241.04M370.7,167.48V118.84" style="vector-effect: non-scaling-stroke; stroke-width: 1.5px; stroke: rgb(0, 0, 0); stroke-opacity: 1; fill: rgb(31, 119, 180); fill-opacity: 0.5;"/><path class="mean" d="M39.51,187.42H44.55" style="fill: none; vector-effect: non-scaling-stroke; stroke-width: 1.5px; stroke-dasharray: 3px, 1.5px; stroke: rgb(255, 255, 255); stroke-opacity: 1;"/><path class="mean" d="M203.85,188.54H208.88" style="fill: none; vector-effect: non-scaling-stroke; stroke-width: 1.5px; stroke-dasharray: 3px, 1.5px; stroke: rgb(255, 255, 255); stroke-opacity: 1;"/><path class="mean" d="M368.18,183.82H373.21" style="fill: none; vector-effect: non-scaling-stroke; stroke-width: 1.5px; stroke-dasharray: 3px, 1.5px; stroke: rgb(255, 255, 255); stroke-opacity: 1;"/><g class="points"><path class="point" transform="translate(42.03,127.09)" d="M3,0A3,3 0 1,1 0,-3A3,3 0 0,1 3,0Z" style="opacity: 1; stroke-width: 1.5px; fill: rgb(31, 119, 180); fill-opacity: 1; stroke: rgb(0, 0, 0); stroke-opacity: 1;"/><path class="point" transform="translate(42.03,73.61)" d="M3,0A3,3 0 1,1 0,-3A3,3 0 0,1 3,0Z" style="opacity: 1; stroke-width: 1.5px; fill: rgb(31, 119, 180); fill-opacity: 1; stroke: rgb(0, 0, 0); stroke-opacity: 1;"/><path class="point" transform="translate(42.03,66.48)" d="M3,0A3,3 0 1,1 0,-3A3,3 0 0,1 3,0Z" style="opacity: 1; stroke-width: 1.5px; fill: rgb(31, 119, 180); fill-opacity: 1; stroke: rgb(0, 0, 0); stroke-opacity: 1;"/><path class="point" transform="translate(42.03,58.48)" d="M3,0A3,3 0 1,1 0,-3A3,3 0 0,1 3,0Z" style="opacity: 1; stroke-width: 1.5px; fill: rgb(31, 119, 180); fill-opacity: 1; stroke: rgb(0, 0, 0); stroke-opacity: 1;"/><path class="point" transform="translate(42.03,52.81)" d="M3,0A3,3 0 1,1 0,-3A3,3 0 0,1 3,0Z" style="opacity: 1; stroke-width: 1.5px; fill: rgb(31, 119, 180); fill-opacity: 1; stroke: rgb(0, 0, 0); stroke-opacity: 1;"/></g><g class="points"><path class="point" transform="translate(206.36,113.28)" d="M3,0A3,3 0 1,1 0,-3A3,3 0 0,1 3,0Z" style="opacity: 1; stroke-width: 1.5px; fill: rgb(31, 119, 180); fill-opacity: 1; stroke: rgb(0, 0, 0); stroke-opacity: 1;"/><path class="point" transform="translate(206.36,76.57)" d="M3,0A3,3 0 1,1 0,-3A3,3 0 0,1 3,0Z" style="opacity: 1; stroke-width: 1.5px; fill: rgb(31, 119, 180); fill-opacity: 1; stroke: rgb(0, 0, 0); stroke-opacity: 1;"/><path class="point" transform="translate(206.36,16)" d="M3,0A3,3 0 1,1 0,-3A3,3 0 0,1 3,0Z" style="opacity: 1; stroke-width: 1.5px; fill: rgb(31, 119, 180); fill-opacity: 1; stroke: rgb(0, 0, 0); stroke-opacity: 1;"/></g><g class="points"><path class="point" transform="translate(370.7,72.38)" d="M3,0A3,3 0 1,1 0,-3A3,3 0 0,1 3,0Z" style="opacity: 1; stroke-width: 1.5px; fill: rgb(31, 119, 180); fill-opacity: 1; stroke: rgb(0, 0, 0); stroke-opacity: 1;"/><path class="point" transform="translate(370.7,61.43)" d="M3,0A3,3 0 1,1 0,-3A3,3 0 0,1 3,0Z" style="opacity: 1; stroke-width: 1.5px; fill: rgb(31, 119, 180); fill-opacity: 1; stroke: rgb(0, 0, 0); stroke-opacity: 1;"/></g></g><g class="trace violins" style="opacity: 0.6;"><path class="violin" d="M77.41,281Q78.42,271.7 78.82,267.05C79.22,262.41 79.58,257.76 79.81,253.11C80.04,248.46 80.19,243.81 80.21,239.16C80.23,234.51 80.13,229.86 79.95,225.21C79.77,220.56 79.47,215.91 79.14,211.26C78.81,206.61 78.38,201.97 77.98,197.32C77.58,192.67 77.14,188.02 76.74,183.37C76.35,178.72 75.95,174.07 75.61,169.42C75.28,164.77 74.97,160.12 74.73,155.47C74.49,150.82 74.3,146.18 74.15,141.53C74,136.88 73.9,132.23 73.84,127.58C73.78,122.93 73.77,118.28 73.8,113.63C73.83,108.98 73.9,104.33 74.01,99.68C74.12,95.03 74.29,90.39 74.47,85.74C74.65,81.09 74.88,76.44 75.1,71.79C75.32,67.14 75.58,62.49 75.78,57.84C75.98,53.19 76.18,48.54 76.29,43.89C76.4,39.24 76.48,34.6 76.46,29.95Q76.44,25.3 76.18,16L65.39,16Q65.13,25.3 65.11,29.95C65.09,34.6 65.17,39.24 65.28,43.89C65.39,48.54 65.6,53.19 65.8,57.84C66,62.49 66.25,67.14 66.47,71.79C66.69,76.44 66.93,81.09 67.11,85.74C67.29,90.39 67.45,95.03 67.56,99.68C67.67,104.33 67.75,108.98 67.78,113.63C67.81,118.28 67.8,122.93 67.74,127.58C67.68,132.23 67.58,136.88 67.43,141.53C67.28,146.18 67.08,150.82 66.84,155.47C66.6,160.12 66.3,164.77 65.97,169.42C65.64,174.07 65.24,178.72 64.84,183.37C64.44,188.02 63.99,192.67 63.59,197.32C63.19,201.97 62.76,206.61 62.43,211.26C62.1,215.91 61.8,220.56 61.62,225.21C61.44,229.86 61.34,234.51 61.36,239.16C61.38,243.81 61.53,248.46 61.76,253.11C61.99,257.76 62.36,262.41 62.76,267.05Q63.16,271.7 64.17,281Z" style="vector-effect: non-scaling-stroke; stroke-width: 2px; stroke: rgb(255, 127, 14); stroke-opacity: 1; fill: rgb(255, 127, 14); fill-opacity: 0.5;"/><path class="violin" d="M241.82,281Q242.95,272.17 243.41,267.75C243.87,263.34 244.3,258.92 244.6,254.5C244.9,250.09 245.11,245.67 245.19,241.25C245.27,236.83 245.22,232.42 245.08,228C244.94,223.58 244.66,219.16 244.35,214.75C244.03,210.33 243.61,205.92 243.19,201.5C242.77,197.08 242.28,192.67 241.84,188.25C241.4,183.83 240.93,179.42 240.53,175C240.13,170.58 239.75,166.17 239.44,161.75C239.13,157.34 238.87,152.92 238.66,148.5C238.46,144.08 238.3,139.67 238.21,135.25C238.12,130.83 238.08,126.42 238.09,122C238.1,117.58 238.17,113.17 238.27,108.75C238.37,104.33 238.53,99.92 238.69,95.5C238.85,91.08 239.06,86.67 239.25,82.25C239.45,77.83 239.67,73.42 239.86,69C240.05,64.58 240.24,60.17 240.37,55.75C240.5,51.33 240.61,46.92 240.64,42.5C240.67,38.08 240.65,33.67 240.56,29.25Q240.47,24.83 240.11,16L230.13,16Q229.77,24.83 229.68,29.25C229.59,33.67 229.57,38.08 229.6,42.5C229.63,46.92 229.74,51.33 229.87,55.75C230,60.17 230.19,64.58 230.38,69C230.57,73.42 230.79,77.83 230.99,82.25C231.19,86.67 231.4,91.08 231.56,95.5C231.72,99.92 231.87,104.33 231.97,108.75C232.07,113.17 232.14,117.58 232.15,122C232.16,126.42 232.12,130.83 232.03,135.25C231.94,139.67 231.79,144.08 231.59,148.5C231.38,152.92 231.11,157.34 230.8,161.75C230.49,166.17 230.11,170.58 229.71,175C229.31,179.42 228.84,183.83 228.4,188.25C227.96,192.67 227.47,197.08 227.05,201.5C226.63,205.92 226.21,210.33 225.89,214.75C225.58,219.16 225.3,223.58 225.16,228C225.02,232.42 224.98,236.83 225.06,241.25C225.14,245.67 225.34,250.09 225.64,254.5C225.94,258.92 226.38,263.34 226.84,267.75Q227.31,272.17 228.43,281Z" style="vector-effect: non-scaling-stroke; stroke-width: 2px; stroke: rgb(255, 127, 14); stroke-opacity: 1; fill: rgb(255, 127, 14); fill-opacity: 0.5;"/><path class="violin" d="M406.59,281Q407.62,271.7 408.03,267.05C408.43,262.41 408.79,257.76 409.02,253.11C409.25,248.46 409.38,243.81 409.4,239.16C409.42,234.51 409.33,229.86 409.17,225.21C409.01,220.56 408.73,215.91 408.42,211.26C408.11,206.61 407.72,201.97 407.33,197.32C406.93,192.67 406.48,188.02 406.05,183.37C405.62,178.72 405.17,174.07 404.75,169.42C404.34,164.77 403.92,160.12 403.56,155.47C403.2,150.82 402.85,146.18 402.58,141.53C402.31,136.88 402.08,132.23 401.92,127.58C401.76,122.93 401.65,118.28 401.62,113.63C401.59,108.98 401.62,104.33 401.71,99.68C401.8,95.03 401.97,90.39 402.16,85.74C402.36,81.09 402.63,76.44 402.88,71.79C403.14,67.14 403.44,62.49 403.69,57.84C403.94,53.19 404.2,48.54 404.37,43.89C404.54,39.24 404.68,34.6 404.72,29.95Q404.76,25.3 404.61,16L394.3,16Q394.15,25.3 394.19,29.95C394.23,34.6 394.37,39.24 394.54,43.89C394.71,48.54 394.97,53.19 395.22,57.84C395.47,62.49 395.77,67.14 396.03,71.79C396.28,76.44 396.55,81.09 396.75,85.74C396.94,90.39 397.11,95.03 397.2,99.68C397.29,104.33 397.32,108.98 397.29,113.63C397.26,118.28 397.15,122.93 396.99,127.58C396.83,132.23 396.59,136.88 396.32,141.53C396.05,146.18 395.71,150.82 395.35,155.47C394.99,160.12 394.57,164.77 394.16,169.42C393.74,174.07 393.29,178.72 392.86,183.37C392.43,188.02 391.98,192.67 391.58,197.32C391.19,201.97 390.8,206.61 390.49,211.26C390.18,215.91 389.9,220.56 389.74,225.21C389.58,229.86 389.49,234.51 389.51,239.16C389.53,243.81 389.66,248.46 389.89,253.11C390.12,257.76 390.48,262.41 390.88,267.05Q391.29,271.7 392.32,281Z" style="vector-effect: non-scaling-stroke; stroke-width: 2px; stroke: rgb(255, 127, 14); stroke-opacity: 1; fill: rgb(255, 127, 14); fill-opacity: 0.5;"/><path class="box" d="M68.27,213.65H73.3M68.27,242.3H73.3V37.53H68.27ZM70.79,242.3V281M70.79,37.53V16" style="vector-effect: non-scaling-stroke; stroke-width: 1.5px; stroke: rgb(0, 0, 0); stroke-opacity: 1; fill: rgb(255, 127, 14); fill-opacity: 0.5;"/><path class="box" d="M232.6,210.53H237.64M232.6,246.04H237.64V67.72H232.6ZM235.12,246.04V281M235.12,67.72V16" style="vector-effect: non-scaling-stroke; stroke-width: 1.5px; stroke: rgb(0, 0, 0); stroke-opacity: 1; fill: rgb(255, 127, 14); fill-opacity: 0.5;"/><path class="box" d="M396.94,206.61H401.97M396.94,248.39H401.97V38.58H396.94ZM399.45,248.39V281M399.45,38.58V16" style="vector-effect: non-scaling-stroke; stroke-width: 1.5px; stroke: rgb(0, 0, 0); stroke-opacity: 1; fill: rgb(255, 127, 14); fill-opacity: 0.5;"/><path class="mean" d="M68.27,162.14H73.3" style="fill: none; vector-effect: non-scaling-stroke; stroke-width: 1.5px; stroke-dasharray: 3px, 1.5px; stroke: rgb(255, 255, 255); stroke-opacity: 1;"/><path class="mean" d="M232.6,165.64H237.64" style="fill: none; vector-effect: non-scaling-stroke; stroke-width: 1.5px; stroke-dasharray: 3px, 1.5px; stroke: rgb(255, 255, 255); stroke-opacity: 1;"/><path class="mean" d="M396.94,168.96H401.97" style="fill: none; vector-effect: non-scaling-stroke; stroke-width: 1.5px; stroke-dasharray: 3px, 1.5px; stroke: rgb(255, 255, 255); stroke-opacity: 1;"/><g class="points"/><g class="points"/><g class="points"/></g><g class="trace violins" style="opacity: 0.6;"><path class="violin" d="M103.55,273.64Q104.38,269.82 104.78,267.91C105.18,266 105.6,264.1 105.96,262.19C106.32,260.28 106.67,258.37 106.96,256.46C107.25,254.56 107.5,252.65 107.69,250.74C107.88,248.83 108.02,246.92 108.11,245.01C108.2,243.1 108.24,241.2 108.23,239.29C108.22,237.38 108.15,235.47 108.06,233.56C107.97,231.65 107.83,229.75 107.68,227.84C107.53,225.93 107.34,224.02 107.15,222.11C106.97,220.2 106.76,218.3 106.57,216.39C106.38,214.48 106.19,212.57 106.02,210.66C105.85,208.75 105.69,206.85 105.55,204.94C105.41,203.03 105.3,201.12 105.18,199.21C105.07,197.3 104.97,195.39 104.86,193.48C104.75,191.57 104.64,189.67 104.52,187.76C104.4,185.85 104.27,183.94 104.12,182.03C103.97,180.12 103.8,178.22 103.62,176.31C103.44,174.4 103.25,172.49 103.05,170.58C102.86,168.67 102.64,166.77 102.45,164.86C102.26,162.95 102.06,161.04 101.89,159.13C101.72,157.22 101.55,155.32 101.41,153.41C101.27,151.5 101.14,149.59 101.03,147.68C100.92,145.77 100.83,143.87 100.75,141.96C100.67,140.05 100.61,138.14 100.55,136.23C100.49,134.32 100.44,132.42 100.4,130.51C100.36,128.6 100.32,126.69 100.29,124.78C100.26,122.87 100.23,120.97 100.2,119.06C100.17,117.15 100.15,115.24 100.13,113.33C100.11,111.42 100.08,109.51 100.06,107.6C100.04,105.69 100.03,103.79 100.01,101.88C99.99,99.97 99.98,98.06 99.96,96.15C99.94,94.24 99.92,92.34 99.9,90.43C99.88,88.52 99.86,86.61 99.84,84.7C99.82,82.79 99.8,80.89 99.78,78.98C99.76,77.07 99.74,75.16 99.72,73.25C99.7,71.34 99.68,69.44 99.67,67.53C99.66,65.62 99.65,63.71 99.64,61.8C99.63,59.89 99.63,57.99 99.63,56.08C99.63,54.17 99.65,52.26 99.66,50.35C99.67,48.44 99.69,46.54 99.71,44.63C99.73,42.72 99.76,40.81 99.79,38.9C99.82,36.99 99.85,35.09 99.88,33.18C99.91,31.27 99.93,29.36 99.95,27.45C99.97,25.54 99.99,23.64 100,21.73Q100.01,19.82 100,16L99.09,16Q99.09,19.82 99.1,21.73C99.11,23.64 99.12,25.54 99.14,27.45C99.16,29.36 99.19,31.27 99.22,33.18C99.25,35.09 99.27,36.99 99.3,38.9C99.33,40.81 99.36,42.72 99.38,44.63C99.4,46.54 99.42,48.44 99.43,50.35C99.44,52.26 99.46,54.17 99.46,56.08C99.46,57.99 99.46,59.89 99.45,61.8C99.44,63.71 99.43,65.62 99.42,67.53C99.41,69.44 99.39,71.34 99.37,73.25C99.35,75.16 99.33,77.07 99.31,78.98C99.29,80.89 99.27,82.79 99.25,84.7C99.23,86.61 99.21,88.52 99.19,90.43C99.17,92.34 99.15,94.24 99.13,96.15C99.11,98.06 99.1,99.97 99.08,101.88C99.06,103.79 99.05,105.69 99.03,107.6C99.01,109.51 98.99,111.42 98.97,113.33C98.95,115.24 98.92,117.15 98.89,119.06C98.86,120.97 98.83,122.87 98.8,124.78C98.77,126.69 98.73,128.6 98.69,130.51C98.65,132.42 98.6,134.32 98.54,136.23C98.48,138.14 98.42,140.05 98.34,141.96C98.26,143.87 98.18,145.77 98.07,147.68C97.96,149.59 97.84,151.5 97.69,153.41C97.55,155.32 97.37,157.22 97.2,159.13C97.02,161.04 96.83,162.95 96.64,164.86C96.45,166.77 96.23,168.67 96.04,170.58C95.84,172.49 95.65,174.4 95.47,176.31C95.29,178.22 95.12,180.12 94.97,182.03C94.82,183.94 94.69,185.85 94.57,187.76C94.45,189.67 94.35,191.57 94.24,193.48C94.13,195.39 94.03,197.3 93.91,199.21C93.79,201.12 93.68,203.03 93.54,204.94C93.4,206.85 93.25,208.75 93.08,210.66C92.91,212.57 92.72,214.48 92.53,216.39C92.34,218.3 92.13,220.2 91.94,222.11C91.75,224.02 91.56,225.93 91.41,227.84C91.26,229.75 91.12,231.65 91.03,233.56C90.94,235.47 90.87,237.38 90.86,239.29C90.85,241.2 90.89,243.1 90.98,245.01C91.07,246.92 91.21,248.83 91.4,250.74C91.59,252.65 91.85,254.56 92.14,256.46C92.43,258.37 92.77,260.28 93.13,262.19C93.49,264.1 93.91,266 94.31,267.91Q94.71,269.82 95.54,273.64Z" style="vector-effect: non-scaling-stroke; stroke-width: 2px; stroke: rgb(44, 160, 44); stroke-opacity: 1; fill: rgb(44, 160, 44); fill-opacity: 0.5;"/><path class="violin" d="M268,277.9Q268.82,273.35 269.22,271.07C269.61,268.79 270.02,266.52 270.37,264.24C270.72,261.97 271.05,259.69 271.32,257.41C271.58,255.14 271.81,252.86 271.96,250.58C272.11,248.3 272.2,246.02 272.21,243.74C272.22,241.46 272.16,239.19 272.05,236.91C271.94,234.63 271.75,232.35 271.54,230.08C271.33,227.8 271.05,225.53 270.78,223.25C270.51,220.97 270.2,218.7 269.91,216.42C269.63,214.14 269.33,211.87 269.07,209.59C268.81,207.31 268.58,205.04 268.37,202.76C268.16,200.48 267.98,198.21 267.83,195.93C267.68,193.65 267.56,191.38 267.45,189.1C267.33,186.82 267.24,184.54 267.14,182.26C267.04,179.98 266.96,177.71 266.87,175.43C266.78,173.15 266.69,170.88 266.6,168.6C266.51,166.32 266.41,164.05 266.32,161.77C266.23,159.49 266.14,157.22 266.06,154.94C265.98,152.66 265.91,150.39 265.84,148.11C265.77,145.83 265.71,143.56 265.65,141.28C265.59,139 265.54,136.73 265.49,134.45C265.44,132.17 265.4,129.9 265.36,127.62C265.32,125.34 265.27,123.06 265.23,120.78C265.19,118.5 265.14,116.23 265.1,113.95C265.06,111.67 265.02,109.4 264.99,107.12C264.96,104.84 264.93,102.57 264.9,100.29C264.87,98.01 264.85,95.74 264.82,93.46C264.79,91.18 264.76,88.91 264.73,86.63C264.7,84.35 264.67,82.08 264.64,79.8C264.61,77.52 264.58,75.25 264.54,72.97Q264.5,70.69 264.42,66.14L263.34,66.14Q263.26,70.69 263.22,72.97C263.18,75.25 263.14,77.52 263.11,79.8C263.08,82.08 263.05,84.35 263.02,86.63C262.99,88.91 262.97,91.18 262.94,93.46C262.91,95.74 262.89,98.01 262.86,100.29C262.83,102.57 262.79,104.84 262.76,107.12C262.72,109.4 262.69,111.67 262.65,113.95C262.61,116.23 262.57,118.5 262.53,120.78C262.49,123.06 262.44,125.34 262.4,127.62C262.36,129.9 262.32,132.17 262.27,134.45C262.22,136.73 262.17,139 262.11,141.28C262.05,143.56 261.99,145.83 261.92,148.11C261.85,150.39 261.78,152.66 261.7,154.94C261.62,157.22 261.53,159.49 261.44,161.77C261.35,164.05 261.25,166.32 261.16,168.6C261.07,170.88 260.98,173.15 260.89,175.43C260.8,177.71 260.71,179.98 260.61,182.26C260.51,184.54 260.43,186.82 260.31,189.1C260.2,191.38 260.07,193.65 259.92,195.93C259.77,198.21 259.59,200.48 259.39,202.76C259.18,205.04 258.95,207.31 258.69,209.59C258.43,211.87 258.13,214.14 257.85,216.42C257.56,218.7 257.25,220.97 256.98,223.25C256.71,225.53 256.43,227.8 256.22,230.08C256.01,232.35 255.82,234.63 255.71,236.91C255.6,239.19 255.54,241.46 255.55,243.74C255.56,246.02 255.65,248.3 255.8,250.58C255.95,252.86 256.17,255.14 256.43,257.41C256.7,259.69 257.04,261.97 257.39,264.24C257.74,266.52 258.15,268.79 258.54,271.07Q258.93,273.35 259.75,277.9Z" style="vector-effect: non-scaling-stroke; stroke-width: 2px; stroke: rgb(44, 160, 44); stroke-opacity: 1; fill: rgb(44, 160, 44); fill-opacity: 0.5;"/><path class="violin" d="M431.62,279.44Q432.44,276.07 432.87,274.38C433.3,272.69 433.77,271 434.2,269.31C434.63,267.62 435.07,265.94 435.47,264.25C435.87,262.57 436.26,260.88 436.6,259.19C436.93,257.5 437.24,255.81 437.48,254.12C437.72,252.44 437.92,250.75 438.05,249.06C438.18,247.38 438.26,245.69 438.28,244C438.3,242.31 438.25,240.62 438.16,238.93C438.07,237.24 437.9,235.56 437.72,233.87C437.54,232.18 437.3,230.49 437.06,228.8C436.82,227.11 436.53,225.43 436.26,223.74C435.98,222.05 435.69,220.37 435.41,218.68C435.13,216.99 434.85,215.3 434.58,213.61C434.31,211.92 434.05,210.24 433.8,208.55C433.55,206.86 433.31,205.18 433.09,203.49C432.87,201.8 432.66,200.11 432.46,198.42C432.27,196.73 432.08,195.05 431.92,193.36C431.76,191.67 431.62,189.98 431.48,188.29C431.35,186.6 431.23,184.92 431.11,183.23C431,181.54 430.89,179.86 430.79,178.17C430.69,176.48 430.6,174.79 430.5,173.1C430.4,171.41 430.31,169.73 430.21,168.04C430.11,166.35 430.01,164.67 429.92,162.98C429.83,161.29 429.74,159.6 429.65,157.91C429.57,156.22 429.48,154.54 429.41,152.85C429.34,151.16 429.29,149.48 429.24,147.79C429.19,146.1 429.16,144.41 429.13,142.72C429.1,141.03 429.09,139.35 429.08,137.66C429.07,135.97 429.07,134.28 429.07,132.59C429.07,130.9 429.08,129.22 429.08,127.53C429.08,125.84 429.07,124.16 429.07,122.47C429.06,120.78 429.06,119.09 429.05,117.4C429.04,115.71 429.02,114.03 429,112.34C428.98,110.65 428.96,108.97 428.94,107.28C428.92,105.59 428.89,103.9 428.87,102.21C428.85,100.52 428.82,98.84 428.8,97.15C428.78,95.46 428.76,93.78 428.74,92.09C428.72,90.4 428.71,88.71 428.7,87.02C428.69,85.33 428.68,83.65 428.67,81.96C428.66,80.27 428.66,78.58 428.66,76.89C428.66,75.2 428.67,73.52 428.67,71.83C428.68,70.14 428.68,68.46 428.69,66.77C428.7,65.08 428.71,63.39 428.72,61.7C428.73,60.01 428.74,58.33 428.75,56.64C428.76,54.95 428.77,53.27 428.77,51.58C428.78,49.89 428.78,48.2 428.78,46.51C428.78,44.82 428.77,43.14 428.76,41.45Q428.75,39.76 428.71,36.38L427.72,36.38Q427.67,39.76 427.66,41.45C427.65,43.14 427.64,44.82 427.64,46.51C427.64,48.2 427.64,49.89 427.65,51.58C427.66,53.27 427.67,54.95 427.68,56.64C427.69,58.33 427.7,60.01 427.71,61.7C427.72,63.39 427.72,65.08 427.73,66.77C427.74,68.46 427.74,70.14 427.75,71.83C427.75,73.52 427.76,75.2 427.76,76.89C427.76,78.58 427.76,80.27 427.75,81.96C427.75,83.65 427.74,85.33 427.73,87.02C427.72,88.71 427.71,90.4 427.69,92.09C427.67,93.78 427.65,95.46 427.63,97.15C427.61,98.84 427.58,100.52 427.56,102.21C427.54,103.9 427.51,105.59 427.49,107.28C427.47,108.97 427.44,110.65 427.42,112.34C427.4,114.03 427.38,115.71 427.37,117.4C427.36,119.09 427.35,120.78 427.35,122.47C427.35,124.16 427.35,125.84 427.35,127.53C427.35,129.22 427.35,130.9 427.35,132.59C427.35,134.28 427.35,135.97 427.34,137.66C427.33,139.35 427.32,141.03 427.29,142.72C427.26,144.41 427.23,146.1 427.18,147.79C427.13,149.48 427.08,151.16 427.01,152.85C426.94,154.54 426.86,156.22 426.78,157.91C426.69,159.6 426.59,161.29 426.5,162.98C426.41,164.67 426.31,166.35 426.22,168.04C426.12,169.73 426.03,171.41 425.93,173.1C425.83,174.79 425.73,176.48 425.63,178.17C425.53,179.86 425.43,181.54 425.32,183.23C425.21,184.92 425.09,186.6 424.95,188.29C424.81,189.98 424.67,191.67 424.5,193.36C424.34,195.05 424.15,196.73 423.96,198.42C423.76,200.11 423.55,201.8 423.33,203.49C423.11,205.18 422.87,206.86 422.62,208.55C422.37,210.24 422.12,211.92 421.85,213.61C421.58,215.3 421.3,216.99 421.02,218.68C420.74,220.37 420.45,222.05 420.17,223.74C419.9,225.43 419.62,227.11 419.37,228.8C419.13,230.49 418.88,232.18 418.7,233.87C418.52,235.56 418.36,237.24 418.27,238.93C418.18,240.62 418.13,242.31 418.15,244C418.17,245.69 418.24,247.38 418.37,249.06C418.5,250.75 418.71,252.44 418.95,254.12C419.19,255.81 419.5,257.5 419.83,259.19C420.16,260.88 420.55,262.57 420.95,264.25C421.35,265.94 421.8,267.62 422.23,269.31C422.66,271 423.12,272.69 423.55,274.38Q423.98,276.07 424.8,279.44Z" style="vector-effect: non-scaling-stroke; stroke-width: 2px; stroke: rgb(44, 160, 44); stroke-opacity: 1; fill: rgb(44, 160, 44); fill-opacity: 0.5;"/><path class="box" d="M97.03,225.7H102.06M97.03,245.45H102.06V191.39H97.03ZM99.55,245.45V273.64M99.55,191.39V112.36" style="vector-effect: non-scaling-stroke; stroke-width: 1.5px; stroke: rgb(0, 0, 0); stroke-opacity: 1; fill: rgb(44, 160, 44); fill-opacity: 0.5;"/><path class="box" d="M261.36,232.96H266.4M261.36,252.2H266.4V188H261.36ZM263.88,252.2V277.9M263.88,188V99.43" style="vector-effect: non-scaling-stroke; stroke-width: 1.5px; stroke: rgb(0, 0, 0); stroke-opacity: 1; fill: rgb(44, 160, 44); fill-opacity: 0.5;"/><path class="box" d="M425.7,236.12H430.73M425.7,252.47H430.73V205.37H425.7ZM428.21,252.47V279.44M428.21,205.37V145.98" style="vector-effect: non-scaling-stroke; stroke-width: 1.5px; stroke: rgb(0, 0, 0); stroke-opacity: 1; fill: rgb(44, 160, 44); fill-opacity: 0.5;"/><path class="mean" d="M97.03,214.12H102.06" style="fill: none; vector-effect: non-scaling-stroke; stroke-width: 1.5px; stroke-dasharray: 3px, 1.5px; stroke: rgb(255, 255, 255); stroke-opacity: 1;"/><path class="mean" d="M261.36,215.89H266.4" style="fill: none; vector-effect: non-scaling-stroke; stroke-width: 1.5px; stroke-dasharray: 3px, 1.5px; stroke: rgb(255, 255, 255); stroke-opacity: 1;"/><path class="mean" d="M425.7,218.96H430.73" style="fill: none; vector-effect: non-scaling-stroke; stroke-width: 1.5px; stroke-dasharray: 3px, 1.5px; stroke: rgb(255, 255, 255); stroke-opacity: 1;"/><g class="points"><path class="point" transform="translate(99.55,89.61)" d="M3,0A3,3 0 1,1 0,-3A3,3 0 0,1 3,0Z" style="opacity: 1; stroke-width: 1.5px; fill: rgb(44, 160, 44); fill-opacity: 1; stroke: rgb(0, 0, 0); stroke-opacity: 1;"/><path class="point" transform="translate(99.55,21.5)" d="M3,0A3,3 0 1,1 0,-3A3,3 0 0,1 3,0Z" style="opacity: 1; stroke-width: 1.5px; fill: rgb(44, 160, 44); fill-opacity: 1; stroke: rgb(0, 0, 0); stroke-opacity: 1;"/><path class="point" transform="translate(99.55,16)" d="M3,0A3,3 0 1,1 0,-3A3,3 0 0,1 3,0Z" style="opacity: 1; stroke-width: 1.5px; fill: rgb(44, 160, 44); fill-opacity: 1; stroke: rgb(0, 0, 0); stroke-opacity: 1;"/></g><g class="points"><path class="point" transform="translate(263.88,86.21)" d="M3,0A3,3 0 1,1 0,-3A3,3 0 0,1 3,0Z" style="opacity: 1; stroke-width: 1.5px; fill: rgb(44, 160, 44); fill-opacity: 1; stroke: rgb(0, 0, 0); stroke-opacity: 1;"/><path class="point" transform="translate(263.88,81.75)" d="M3,0A3,3 0 1,1 0,-3A3,3 0 0,1 3,0Z" style="opacity: 1; stroke-width: 1.5px; fill: rgb(44, 160, 44); fill-opacity: 1; stroke: rgb(0, 0, 0); stroke-opacity: 1;"/><path class="point" transform="translate(263.88,66.14)" d="M3,0A3,3 0 1,1 0,-3A3,3 0 0,1 3,0Z" style="opacity: 1; stroke-width: 1.5px; fill: rgb(44, 160, 44); fill-opacity: 1; stroke: rgb(0, 0, 0); stroke-opacity: 1;"/></g><g class="points"><path class="point" transform="translate(428.21,128.58)" d="M3,0A3,3 0 1,1 0,-3A3,3 0 0,1 3,0Z" style="opacity: 1; stroke-width: 1.5px; fill: rgb(44, 160, 44); fill-opacity: 1; stroke: rgb(0, 0, 0); stroke-opacity: 1;"/><path class="point" transform="translate(428.21,122)" d="M3,0A3,3 0 1,1 0,-3A3,3 0 0,1 3,0Z" style="opacity: 1; stroke-width: 1.5px; fill: rgb(44, 160, 44); fill-opacity: 1; stroke: rgb(0, 0, 0); stroke-opacity: 1;"/><path class="point" transform="translate(428.21,111.4)" d="M3,0A3,3 0 1,1 0,-3A3,3 0 0,1 3,0Z" style="opacity: 1; stroke-width: 1.5px; fill: rgb(44, 160, 44); fill-opacity: 1; stroke: rgb(0, 0, 0); stroke-opacity: 1;"/><path class="point" transform="translate(428.21,93.79)" d="M3,0A3,3 0 1,1 0,-3A3,3 0 0,1 3,0Z" style="opacity: 1; stroke-width: 1.5px; fill: rgb(44, 160, 44); fill-opacity: 1; stroke: rgb(0, 0, 0); stroke-opacity: 1;"/><path class="point" transform="translate(428.21,69)" d="M3,0A3,3 0 1,1 0,-3A3,3 0 0,1 3,0Z" style="opacity: 1; stroke-width: 1.5px; fill: rgb(44, 160, 44); fill-opacity: 1; stroke: rgb(0, 0, 0); stroke-opacity: 1;"/><path class="point" transform="translate(428.21,47.44)" d="M3,0A3,3 0 1,1 0,-3A3,3 0 0,1 3,0Z" style="opacity: 1; stroke-width: 1.5px; fill: rgb(44, 160, 44); fill-opacity: 1; stroke: rgb(0, 0, 0); stroke-opacity: 1;"/><path class="point" transform="translate(428.21,36.38)" d="M3,0A3,3 0 1,1 0,-3A3,3 0 0,1 3,0Z" style="opacity: 1; stroke-width: 1.5px; fill: rgb(44, 160, 44); fill-opacity: 1; stroke: rgb(0, 0, 0); stroke-opacity: 1;"/></g></g><g class="trace violins" style="opacity: 0.6;"><path class="violin" d="M129.65,268.65Q130.07,264.99 130.33,263.16C130.59,261.33 130.88,259.49 131.19,257.66C131.5,255.83 131.85,254 132.19,252.17C132.53,250.34 132.9,248.51 133.24,246.68C133.58,244.85 133.93,243.02 134.24,241.19C134.54,239.36 134.84,237.53 135.07,235.69C135.3,233.86 135.5,232.03 135.63,230.2C135.76,228.37 135.84,226.54 135.86,224.71C135.88,222.88 135.84,221.05 135.77,219.22C135.7,217.39 135.57,215.55 135.43,213.72C135.29,211.89 135.11,210.06 134.94,208.23C134.77,206.4 134.59,204.57 134.43,202.74C134.28,200.91 134.13,199.08 134.01,197.25C133.89,195.42 133.79,193.59 133.69,191.76C133.59,189.93 133.52,188.09 133.43,186.26C133.34,184.43 133.25,182.6 133.14,180.77C133.02,178.94 132.89,177.11 132.74,175.28C132.59,173.45 132.4,171.62 132.22,169.79C132.04,167.96 131.83,166.12 131.64,164.29C131.45,162.46 131.24,160.63 131.06,158.8C130.88,156.97 130.71,155.14 130.56,153.31C130.41,151.48 130.28,149.65 130.17,147.82C130.06,145.99 129.98,144.15 129.9,142.32C129.82,140.49 129.76,138.66 129.7,136.83C129.64,135 129.59,133.17 129.54,131.34C129.49,129.51 129.43,127.68 129.38,125.85C129.32,124.02 129.27,122.18 129.21,120.35C129.15,118.52 129.09,116.69 129.03,114.86C128.97,113.03 128.92,111.2 128.86,109.37C128.8,107.54 128.74,105.71 128.69,103.88C128.64,102.05 128.6,100.22 128.56,98.39C128.52,96.56 128.49,94.72 128.46,92.89C128.43,91.06 128.41,89.23 128.39,87.4C128.37,85.57 128.36,83.74 128.35,81.91C128.34,80.08 128.34,78.25 128.33,76.42C128.32,74.59 128.31,72.75 128.31,70.92C128.31,69.09 128.31,67.26 128.31,65.43C128.31,63.6 128.31,61.77 128.31,59.94C128.31,58.11 128.32,56.28 128.32,54.45C128.32,52.62 128.32,50.78 128.33,48.95C128.33,47.12 128.34,45.29 128.35,43.46C128.36,41.63 128.37,39.8 128.38,37.97C128.39,36.14 128.41,34.31 128.42,32.48C128.43,30.65 128.45,28.81 128.46,26.98C128.47,25.15 128.48,23.32 128.49,21.49Q128.5,19.66 128.5,16L128.11,16Q128.11,19.66 128.12,21.49C128.13,23.32 128.14,25.15 128.15,26.98C128.16,28.81 128.18,30.65 128.19,32.48C128.2,34.31 128.21,36.14 128.22,37.97C128.23,39.8 128.25,41.63 128.26,43.46C128.27,45.29 128.28,47.12 128.28,48.95C128.29,50.78 128.29,52.62 128.29,54.45C128.29,56.28 128.3,58.11 128.3,59.94C128.3,61.77 128.3,63.6 128.3,65.43C128.3,67.26 128.29,69.09 128.29,70.92C128.29,72.75 128.29,74.59 128.28,76.42C128.28,78.25 128.27,80.08 128.26,81.91C128.25,83.74 128.24,85.57 128.22,87.4C128.2,89.23 128.18,91.06 128.15,92.89C128.12,94.72 128.09,96.56 128.05,98.39C128.01,100.22 127.97,102.05 127.92,103.88C127.87,105.71 127.81,107.54 127.75,109.37C127.69,111.2 127.63,113.03 127.57,114.86C127.51,116.69 127.45,118.52 127.39,120.35C127.33,122.18 127.27,124.02 127.22,125.85C127.17,127.68 127.12,129.51 127.07,131.34C127.02,133.17 126.97,135 126.91,136.83C126.85,138.66 126.79,140.49 126.71,142.32C126.63,144.15 126.55,145.99 126.44,147.82C126.33,149.65 126.2,151.48 126.05,153.31C125.9,155.14 125.73,156.97 125.55,158.8C125.37,160.63 125.16,162.46 124.97,164.29C124.78,166.12 124.57,167.96 124.39,169.79C124.21,171.62 124.02,173.45 123.87,175.28C123.72,177.11 123.59,178.94 123.47,180.77C123.36,182.6 123.27,184.43 123.18,186.26C123.09,188.09 123.01,189.93 122.91,191.76C122.81,193.59 122.72,195.42 122.6,197.25C122.48,199.08 122.32,200.91 122.17,202.74C122.01,204.57 121.84,206.4 121.67,208.23C121.51,210.06 121.32,211.89 121.18,213.72C121.04,215.55 120.91,217.39 120.84,219.22C120.77,221.05 120.73,222.88 120.75,224.71C120.77,226.54 120.85,228.37 120.98,230.2C121.11,232.03 121.31,233.86 121.54,235.69C121.77,237.53 122.07,239.36 122.37,241.19C122.68,243.02 123.03,244.85 123.37,246.68C123.71,248.51 124.08,250.34 124.42,252.17C124.76,254 125.11,255.83 125.42,257.66C125.73,259.49 126.02,261.33 126.28,263.16Q126.54,264.99 126.96,268.65Z" style="vector-effect: non-scaling-stroke; stroke-width: 2px; stroke: rgb(214, 39, 40); stroke-opacity: 1; fill: rgb(214, 39, 40); fill-opacity: 0.5;"/><path class="violin" d="M295.09,262.22Q295.68,258.8 296.01,257.1C296.34,255.39 296.7,253.68 297.06,251.98C297.42,250.27 297.8,248.58 298.16,246.87C298.52,245.17 298.88,243.46 299.2,241.75C299.51,240.05 299.82,238.34 300.05,236.63C300.28,234.93 300.48,233.22 300.6,231.51C300.72,229.81 300.78,228.1 300.78,226.39C300.78,224.69 300.7,222.98 300.59,221.28C300.48,219.57 300.3,217.87 300.12,216.16C299.94,214.45 299.71,212.75 299.5,211.04C299.29,209.33 299.06,207.63 298.86,205.92C298.66,204.22 298.46,202.52 298.29,200.81C298.12,199.11 297.96,197.4 297.82,195.69C297.68,193.98 297.56,192.28 297.43,190.57C297.31,188.86 297.19,187.16 297.07,185.45C296.95,183.74 296.82,182.04 296.69,180.33C296.56,178.63 296.41,176.92 296.27,175.22C296.12,173.51 295.97,171.81 295.82,170.1C295.67,168.39 295.52,166.69 295.37,164.98C295.23,163.27 295.08,161.57 294.95,159.86C294.82,158.15 294.71,156.45 294.61,154.74C294.51,153.04 294.41,151.33 294.33,149.63C294.25,147.92 294.18,146.22 294.12,144.51C294.06,142.8 294.01,141.1 293.96,139.39C293.91,137.68 293.87,135.98 293.82,134.27C293.78,132.56 293.73,130.86 293.69,129.15C293.65,127.45 293.61,125.74 293.57,124.04C293.53,122.33 293.49,120.63 293.45,118.92C293.41,117.21 293.36,115.51 293.32,113.8C293.27,112.09 293.22,110.39 293.18,108.68C293.14,106.97 293.1,105.27 293.06,103.56C293.02,101.86 292.98,100.15 292.95,98.45C292.92,96.74 292.9,95.04 292.88,93.33C292.86,91.62 292.85,89.92 292.84,88.21C292.83,86.5 292.84,84.8 292.84,83.09C292.84,81.39 292.85,79.68 292.85,77.98C292.86,76.27 292.86,74.57 292.87,72.86C292.87,71.15 292.88,69.45 292.88,67.74C292.88,66.03 292.88,64.33 292.88,62.62C292.88,60.91 292.87,59.21 292.87,57.5C292.87,55.8 292.87,54.09 292.87,52.39C292.87,50.68 292.88,48.98 292.88,47.27C292.88,45.56 292.87,43.86 292.87,42.15Q292.87,40.44 292.87,37.03L292.41,37.03Q292.4,40.44 292.4,42.15C292.4,43.86 292.4,45.56 292.4,47.27C292.4,48.98 292.4,50.68 292.4,52.39C292.4,54.09 292.4,55.8 292.4,57.5C292.4,59.21 292.4,60.91 292.4,62.62C292.4,64.33 292.4,66.03 292.4,67.74C292.4,69.45 292.41,71.15 292.41,72.86C292.42,74.57 292.42,76.27 292.43,77.98C292.43,79.68 292.44,81.39 292.44,83.09C292.44,84.8 292.44,86.5 292.43,88.21C292.42,89.92 292.42,91.62 292.4,93.33C292.38,95.04 292.36,96.74 292.33,98.45C292.3,100.15 292.26,101.86 292.22,103.56C292.18,105.27 292.13,106.97 292.09,108.68C292.05,110.39 292,112.09 291.96,113.8C291.92,115.51 291.87,117.21 291.83,118.92C291.79,120.63 291.74,122.33 291.7,124.04C291.66,125.74 291.62,127.45 291.58,129.15C291.54,130.86 291.5,132.56 291.46,134.27C291.42,135.98 291.37,137.68 291.32,139.39C291.27,141.1 291.21,142.8 291.15,144.51C291.09,146.22 291.02,147.92 290.94,149.63C290.86,151.33 290.77,153.04 290.67,154.74C290.57,156.45 290.45,158.15 290.32,159.86C290.19,161.57 290.05,163.27 289.91,164.98C289.77,166.69 289.61,168.39 289.46,170.1C289.31,171.81 289.16,173.51 289.01,175.22C288.87,176.92 288.72,178.63 288.59,180.33C288.46,182.04 288.33,183.74 288.21,185.45C288.09,187.16 287.97,188.86 287.85,190.57C287.72,192.28 287.6,193.98 287.46,195.69C287.32,197.4 287.16,199.11 286.99,200.81C286.82,202.52 286.62,204.22 286.42,205.92C286.22,207.63 285.99,209.33 285.78,211.04C285.57,212.75 285.34,214.45 285.16,216.16C284.98,217.87 284.79,219.57 284.68,221.28C284.57,222.98 284.49,224.69 284.49,226.39C284.49,228.1 284.55,229.81 284.67,231.51C284.79,233.22 284.99,234.93 285.22,236.63C285.46,238.34 285.76,240.05 286.08,241.75C286.4,243.46 286.77,245.17 287.12,246.87C287.48,248.58 287.85,250.28 288.21,251.98C288.57,253.69 288.93,255.39 289.26,257.1Q289.59,258.8 290.19,262.22Z" style="vector-effect: non-scaling-stroke; stroke-width: 2px; stroke: rgb(214, 39, 40); stroke-opacity: 1; fill: rgb(214, 39, 40); fill-opacity: 0.5;"/><path class="violin" d="M458.43,260.06Q458.82,257.84 459.05,256.73C459.28,255.62 459.54,254.51 459.81,253.4C460.08,252.29 460.38,251.17 460.68,250.06C460.98,248.95 461.31,247.84 461.63,246.73C461.95,245.62 462.29,244.5 462.62,243.39C462.95,242.28 463.29,241.17 463.61,240.06C463.93,238.95 464.24,237.83 464.54,236.72C464.83,235.61 465.13,234.5 465.38,233.39C465.63,232.28 465.86,231.17 466.05,230.06C466.24,228.95 466.4,227.83 466.53,226.72C466.66,225.61 466.75,224.5 466.83,223.39C466.91,222.28 466.96,221.16 466.99,220.05C467.02,218.94 467.04,217.83 467.04,216.72C467.04,215.61 467.02,214.49 466.98,213.38C466.94,212.27 466.88,211.16 466.79,210.05C466.69,208.94 466.57,207.83 466.41,206.72C466.25,205.61 466.05,204.49 465.82,203.38C465.59,202.27 465.31,201.16 465.02,200.05C464.73,198.93 464.4,197.82 464.06,196.71C463.72,195.6 463.35,194.49 463,193.38C462.65,192.27 462.29,191.15 461.95,190.04C461.61,188.93 461.27,187.82 460.97,186.71C460.67,185.6 460.39,184.49 460.14,183.38C459.89,182.27 459.67,181.16 459.48,180.04C459.29,178.93 459.14,177.82 459.01,176.71C458.88,175.6 458.79,174.48 458.71,173.37C458.63,172.26 458.58,171.15 458.54,170.04C458.5,168.93 458.49,167.82 458.48,166.71C458.47,165.6 458.48,164.48 458.5,163.37C458.52,162.26 458.54,161.15 458.57,160.04C458.6,158.93 458.63,157.81 458.67,156.7C458.71,155.59 458.75,154.48 458.79,153.37C458.83,152.26 458.86,151.14 458.89,150.03C458.92,148.92 458.94,147.81 458.95,146.7C458.96,145.59 458.97,144.48 458.97,143.37C458.97,142.26 458.95,141.14 458.92,140.03C458.89,138.92 458.86,137.81 458.81,136.7C458.76,135.59 458.7,134.47 458.63,133.36C458.56,132.25 458.47,131.14 458.39,130.03C458.3,128.92 458.21,127.8 458.12,126.69C458.03,125.58 457.93,124.47 457.84,123.36C457.75,122.25 457.66,121.14 457.59,120.03C457.51,118.92 457.45,117.8 457.39,116.69C457.33,115.58 457.28,114.47 457.25,113.36C457.21,112.25 457.19,111.13 457.18,110.02C457.17,108.91 457.17,107.8 457.17,106.69C457.17,105.58 457.18,104.46 457.19,103.35C457.2,102.24 457.23,101.13 457.24,100.02C457.25,98.91 457.26,97.8 457.27,96.69Q457.28,95.58 457.29,93.35L456.65,93.35Q456.66,95.58 456.67,96.69C456.68,97.8 456.69,98.91 456.7,100.02C456.71,101.13 456.74,102.24 456.75,103.35C456.76,104.46 456.77,105.58 456.77,106.69C456.77,107.8 456.77,108.91 456.76,110.02C456.75,111.13 456.73,112.25 456.69,113.36C456.66,114.47 456.61,115.58 456.55,116.69C456.49,117.8 456.43,118.92 456.35,120.03C456.28,121.14 456.19,122.25 456.1,123.36C456.01,124.47 455.91,125.58 455.82,126.69C455.73,127.8 455.63,128.92 455.55,130.03C455.47,131.14 455.39,132.25 455.32,133.36C455.25,134.47 455.18,135.59 455.13,136.7C455.08,137.81 455.05,138.92 455.02,140.03C454.99,141.14 454.97,142.26 454.97,143.37C454.97,144.48 454.98,145.59 454.99,146.7C455,147.81 455.03,148.92 455.06,150.03C455.09,151.14 455.12,152.26 455.16,153.37C455.19,154.48 455.24,155.59 455.27,156.7C455.31,157.81 455.34,158.93 455.37,160.04C455.4,161.15 455.42,162.26 455.44,163.37C455.46,164.48 455.47,165.6 455.46,166.71C455.45,167.82 455.44,168.93 455.4,170.04C455.36,171.15 455.31,172.26 455.23,173.37C455.15,174.48 455.06,175.6 454.93,176.71C454.8,177.82 454.65,178.93 454.46,180.04C454.27,181.16 454.05,182.27 453.8,183.38C453.55,184.49 453.27,185.6 452.97,186.71C452.67,187.82 452.33,188.93 451.99,190.04C451.65,191.15 451.29,192.27 450.94,193.38C450.59,194.49 450.22,195.6 449.88,196.71C449.54,197.82 449.21,198.93 448.92,200.05C448.63,201.16 448.35,202.27 448.12,203.38C447.89,204.49 447.69,205.61 447.53,206.72C447.37,207.83 447.25,208.94 447.15,210.05C447.06,211.16 447,212.27 446.96,213.38C446.92,214.49 446.91,215.61 446.91,216.72C446.91,217.83 446.92,218.94 446.95,220.05C446.98,221.16 447.03,222.28 447.11,223.39C447.19,224.5 447.28,225.61 447.41,226.72C447.54,227.83 447.7,228.95 447.89,230.06C448.08,231.17 448.31,232.28 448.56,233.39C448.81,234.5 449.1,235.61 449.4,236.72C449.7,237.83 450.02,238.95 450.34,240.06C450.66,241.17 450.99,242.28 451.32,243.39C451.65,244.5 451.99,245.62 452.31,246.73C452.63,247.84 452.96,248.95 453.26,250.06C453.56,251.17 453.86,252.29 454.13,253.4C454.4,254.51 454.66,255.62 454.89,256.73Q455.12,257.84 455.51,260.06Z" style="vector-effect: non-scaling-stroke; stroke-width: 2px; stroke: rgb(214, 39, 40); stroke-opacity: 1; fill: rgb(214, 39, 40); fill-opacity: 0.5;"/><path class="box" d="M125.79,212.93H130.82M125.79,231.02H130.82V179.99H125.79ZM128.3,231.02V268.65M128.3,179.99V113.46" style="vector-effect: non-scaling-stroke; stroke-width: 1.5px; stroke: rgb(0, 0, 0); stroke-opacity: 1; fill: rgb(214, 39, 40); fill-opacity: 0.5;"/><path class="box" d="M290.12,218.7H295.15M290.12,232.36H295.15V184.33H290.12ZM292.64,232.36V262.22M292.64,184.33V112.51" style="vector-effect: non-scaling-stroke; stroke-width: 1.5px; stroke: rgb(0, 0, 0); stroke-opacity: 1; fill: rgb(214, 39, 40); fill-opacity: 0.5;"/><path class="box" d="M454.45,213.18H459.49M454.45,228.53H459.49V197.24H454.45ZM456.97,228.53V260.06M456.97,197.24V151.2" style="vector-effect: non-scaling-stroke; stroke-width: 1.5px; stroke: rgb(0, 0, 0); stroke-opacity: 1; fill: rgb(214, 39, 40); fill-opacity: 0.5;"/><path class="mean" d="M125.79,203.27H130.82" style="fill: none; vector-effect: non-scaling-stroke; stroke-width: 1.5px; stroke-dasharray: 3px, 1.5px; stroke: rgb(255, 255, 255); stroke-opacity: 1;"/><path class="mean" d="M290.12,205.19H295.15" style="fill: none; vector-effect: non-scaling-stroke; stroke-width: 1.5px; stroke-dasharray: 3px, 1.5px; stroke: rgb(255, 255, 255); stroke-opacity: 1;"/><path class="mean" d="M454.45,207.1H459.49" style="fill: none; vector-effect: non-scaling-stroke; stroke-width: 1.5px; stroke-dasharray: 3px, 1.5px; stroke: rgb(255, 255, 255); stroke-opacity: 1;"/><g class="points"><path class="point" transform="translate(128.3,16)" d="M3,0A3,3 0 1,1 0,-3A3,3 0 0,1 3,0Z" style="opacity: 1; stroke-width: 1.5px; fill: rgb(214, 39, 40); fill-opacity: 1; stroke: rgb(0, 0, 0); stroke-opacity: 1;"/></g><g class="points"><path class="point" transform="translate(292.64,69.91)" d="M3,0A3,3 0 1,1 0,-3A3,3 0 0,1 3,0Z" style="opacity: 1; stroke-width: 1.5px; fill: rgb(214, 39, 40); fill-opacity: 1; stroke: rgb(0, 0, 0); stroke-opacity: 1;"/><path class="point" transform="translate(292.64,37.03)" d="M3,0A3,3 0 1,1 0,-3A3,3 0 0,1 3,0Z" style="opacity: 1; stroke-width: 1.5px; fill: rgb(214, 39, 40); fill-opacity: 1; stroke: rgb(0, 0, 0); stroke-opacity: 1;"/></g><g class="points"><path class="point" transform="translate(456.97,142.96)" d="M3,0A3,3 0 1,1 0,-3A3,3 0 0,1 3,0Z" style="opacity: 1; stroke-width: 1.5px; fill: rgb(214, 39, 40); fill-opacity: 1; stroke: rgb(0, 0, 0); stroke-opacity: 1;"/><path class="point" transform="translate(456.97,142.59)" d="M3,0A3,3 0 1,1 0,-3A3,3 0 0,1 3,0Z" style="opacity: 1; stroke-width: 1.5px; fill: rgb(214, 39, 40); fill-opacity: 1; stroke: rgb(0, 0, 0); stroke-opacity: 1;"/><path class="point" transform="translate(456.97,141.76)" d="M3,0A3,3 0 1,1 0,-3A3,3 0 0,1 3,0Z" style="opacity: 1; stroke-width: 1.5px; fill: rgb(214, 39, 40); fill-opacity: 1; stroke: rgb(0, 0, 0); stroke-opacity: 1;"/><path class="point" transform="translate(456.97,134.79)" d="M3,0A3,3 0 1,1 0,-3A3,3 0 0,1 3,0Z" style="opacity: 1; stroke-width: 1.5px; fill: rgb(214, 39, 40); fill-opacity: 1; stroke: rgb(0, 0, 0); stroke-opacity: 1;"/><path class="point" transform="translate(456.97,131.22)" d="M3,0A3,3 0 1,1 0,-3A3,3 0 0,1 3,0Z" style="opacity: 1; stroke-width: 1.5px; fill: rgb(214, 39, 40); fill-opacity: 1; stroke: rgb(0, 0, 0); stroke-opacity: 1;"/><path class="point" transform="translate(456.97,127.55)" d="M3,0A3,3 0 1,1 0,-3A3,3 0 0,1 3,0Z" style="opacity: 1; stroke-width: 1.5px; fill: rgb(214, 39, 40); fill-opacity: 1; stroke: rgb(0, 0, 0); stroke-opacity: 1;"/><path class="point" transform="translate(456.97,93.35)" d="M3,0A3,3 0 1,1 0,-3A3,3 0 0,1 3,0Z" style="opacity: 1; stroke-width: 1.5px; fill: rgb(214, 39, 40); fill-opacity: 1; stroke: rgb(0, 0, 0); stroke-opacity: 1;"/></g></g></g></g><g class="overplot"/><path class="xlines-above crisp" d="M0,0" style="fill: none;"/><path class="ylines-above crisp" d="M0,0" style="fill: none;"/><g class="overlines-above"/><g class="xaxislayer-above"><g class="xtick"><text text-anchor="middle" x="0" y="439" transform="translate(165.17000000000002,0)" style="font-family: 'Open Sans', verdana, arial, sans-serif; font-size: 18px; fill: rgb(68, 68, 68); fill-opacity: 1; white-space: pre;">Precision</text></g><g class="xtick"><text text-anchor="middle" x="0" y="439" transform="translate(329.5,0)" style="font-family: 'Open Sans', verdana, arial, sans-serif; font-size: 18px; fill: rgb(68, 68, 68); fill-opacity: 1; white-space: pre;">Recall</text></g><g class="xtick"><text text-anchor="middle" x="0" y="439" transform="translate(493.83,0)" style="font-family: 'Open Sans', verdana, arial, sans-serif; font-size: 18px; fill: rgb(68, 68, 68); fill-opacity: 1; white-space: pre;">F-measure</text></g></g><g class="yaxislayer-above"><g class="ytick"><text text-anchor="end" x="79" y="4.199999999999999" transform="translate(0,381)" style="font-family: 'Open Sans', verdana, arial, sans-serif; font-size: 12px; fill: rgb(68, 68, 68); fill-opacity: 1; white-space: pre;">0</text></g><g class="ytick"><text text-anchor="end" x="79" y="4.199999999999999" transform="translate(0,328)" style="font-family: 'Open Sans', verdana, arial, sans-serif; font-size: 12px; fill: rgb(68, 68, 68); fill-opacity: 1; white-space: pre;">0.2</text></g><g class="ytick"><text text-anchor="end" x="79" y="4.199999999999999" transform="translate(0,275)" style="font-family: 'Open Sans', verdana, arial, sans-serif; font-size: 12px; fill: rgb(68, 68, 68); fill-opacity: 1; white-space: pre;">0.4</text></g><g class="ytick"><text text-anchor="end" x="79" y="4.199999999999999" transform="translate(0,222)" style="font-family: 'Open Sans', verdana, arial, sans-serif; font-size: 12px; fill: rgb(68, 68, 68); fill-opacity: 1; white-space: pre;">0.6</text></g><g class="ytick"><text text-anchor="end" x="79" y="4.199999999999999" transform="translate(0,169)" style="font-family: 'Open Sans', verdana, arial, sans-serif; font-size: 12px; fill: rgb(68, 68, 68); fill-opacity: 1; white-space: pre;">0.8</text></g><g class="ytick"><text text-anchor="end" x="79" y="4.199999999999999" transform="translate(0,116)" style="font-family: 'Open Sans', verdana, arial, sans-serif; font-size: 12px; fill: rgb(68, 68, 68); fill-opacity: 1; white-space: pre;">1</text></g></g><g class="overaxes-above"/></g></g><g class="polarlayer"/><g class="ternarylayer"/><g class="geolayer"/><g class="pielayer"/><g class="glimages"/><defs id="topdefs-e74a2c"><g class="clips"/><clipPath id="legende74a2c"><rect width="99" height="86" x="0" y="0"/></clipPath></defs><g class="layer-above"><g class="imagelayer"/><g class="shapelayer"/></g><g class="infolayer"><g class="legend" pointer-events="all" transform="translate(588.98, 100)"><rect class="bg" shape-rendering="crispEdges" width="99" height="86" x="0" y="0" style="stroke: rgb(68, 68, 68); stroke-opacity: 1; fill: rgb(255, 255, 255); fill-opacity: 1; stroke-width: 0px;"/><g class="scrollbox" transform="translate(0, 0)" clip-path="url(#legende74a2c)"><g class="groups"><g class="traces" transform="translate(0, 14.5)" style="opacity: 1;"><text class="legendtext user-select-none" text-anchor="start" x="40" y="4.680000000000001" style="font-family: 'Open Sans', verdana, arial, sans-serif; font-size: 12px; fill: rgb(68, 68, 68); fill-opacity: 1; white-space: pre;">chew </text><rect class="legendtoggle" pointer-events="all" x="0" y="-9.5" width="139" height="19" style="cursor: pointer; fill: rgb(0, 0, 0); fill-opacity: 0;"/><g class="layers" style="opacity: 0.6;"><g class="legendfill"/><g class="legendlines"/><g class="legendsymbols"><g class="legendpoints"><path class="legendbox" d="M6,6H-6V-6H6Z" transform="translate(20,0)" style="stroke-width: 2px; fill: rgb(31, 119, 180); fill-opacity: 0.5; stroke: rgb(31, 119, 180); stroke-opacity: 1;"/></g></g></g></g><g class="traces" transform="translate(0, 33.5)" style="opacity: 1;"><text class="legendtext user-select-none" text-anchor="start" x="40" y="4.680000000000001" style="font-family: 'Open Sans', verdana, arial, sans-serif; font-size: 12px; fill: rgb(68, 68, 68); fill-opacity: 1; white-space: pre;">cnn mono</text><rect class="legendtoggle" pointer-events="all" x="0" y="-9.5" width="139" height="19" style="cursor: pointer; fill: rgb(0, 0, 0); fill-opacity: 0;"/><g class="layers" style="opacity: 0.6;"><g class="legendfill"/><g class="legendlines"/><g class="legendsymbols"><g class="legendpoints"><path class="legendbox" d="M6,6H-6V-6H6Z" transform="translate(20,0)" style="stroke-width: 2px; fill: rgb(255, 127, 14); fill-opacity: 0.5; stroke: rgb(255, 127, 14); stroke-opacity: 1;"/></g></g></g></g><g class="traces" transform="translate(0, 52.5)" style="opacity: 1;"><text class="legendtext user-select-none" text-anchor="start" x="40" y="4.680000000000001" style="font-family: 'Open Sans', verdana, arial, sans-serif; font-size: 12px; fill: rgb(68, 68, 68); fill-opacity: 1; white-space: pre;">cnn </text><rect class="legendtoggle" pointer-events="all" x="0" y="-9.5" width="139" height="19" style="cursor: pointer; fill: rgb(0, 0, 0); fill-opacity: 0;"/><g class="layers" style="opacity: 0.6;"><g class="legendfill"/><g class="legendlines"/><g class="legendsymbols"><g class="legendpoints"><path class="legendbox" d="M6,6H-6V-6H6Z" transform="translate(20,0)" style="stroke-width: 2px; fill: rgb(44, 160, 44); fill-opacity: 0.5; stroke: rgb(44, 160, 44); stroke-opacity: 1;"/></g></g></g></g><g class="traces" transform="translate(0, 71.5)" style="opacity: 1;"><text class="legendtext user-select-none" text-anchor="start" x="40" y="4.680000000000001" style="font-family: 'Open Sans', verdana, arial, sans-serif; font-size: 12px; fill: rgb(68, 68, 68); fill-opacity: 1; white-space: pre;">skyline </text><rect class="legendtoggle" pointer-events="all" x="0" y="-9.5" width="139" height="19" style="cursor: pointer; fill: rgb(0, 0, 0); fill-opacity: 0;"/><g class="layers" style="opacity: 0.6;"><g class="legendfill"/><g class="legendlines"/><g class="legendsymbols"><g class="legendpoints"><path class="legendbox" d="M6,6H-6V-6H6Z" transform="translate(20,0)" style="stroke-width: 2px; fill: rgb(214, 39, 40); fill-opacity: 0.5; stroke: rgb(214, 39, 40); stroke-opacity: 1;"/></g></g></g></g></g></g><rect class="scrollbar" rx="20" ry="3" width="0" height="0" x="0" y="0" style="fill: rgb(128, 139, 164); fill-opacity: 1;"/></g><g class="g-gtitle"><text class="gtitle" x="350" y="50" text-anchor="middle" dy="0em" style="font-family: 'Open Sans', verdana, arial, sans-serif; font-size: 17px; fill: rgb(68, 68, 68); opacity: 1; font-weight: normal; white-space: pre;">Pop crossvalidation</text></g><g class="g-xtitle"/><g class="g-ytitle"/><g class="annotation" data-index="0" style="opacity: 1;"><g class="annotation-text-g" transform="rotate(0,165.17000000000002,411)"><g class="cursor-pointer" transform="translate(125, 402)"><rect class="bg" x="0.5" y="0.5" width="79" height="17" style="stroke-width: 1px; stroke: rgb(0, 0, 0); stroke-opacity: 0; fill: rgb(0, 0, 0); fill-opacity: 0;"/><text class="annotation-text" text-anchor="middle" x="39.859375" y="13" style="font-family: 'Open Sans', verdana, arial, sans-serif; font-size: 12px; fill: rgb(68, 68, 68); fill-opacity: 1; white-space: pre;">p = 1.636E-35</text></g></g><g class="annotation-arrow-g" style="opacity: 1;"><path d="M165.17000000000002,402.5L165.17000000000002,381" style="stroke-width: 2px; stroke: rgb(68, 68, 68); stroke-opacity: 1; stroke-dasharray: 0px, 0px, 20.3px, 21.5px;"/><path d="M-2.4,-3V3L0.6,0Z" transform="translate(165.1699981689453,382.20001220703125)rotate(-90)scale(2)" style="fill: rgb(68, 68, 68); stroke-width: 0;"/></g></g><g class="annotation" data-index="1" style="opacity: 1;"><g class="annotation-text-g" transform="rotate(0,329.5,411)"><g class="cursor-pointer" transform="translate(290, 402)"><rect class="bg" x="0.5" y="0.5" width="78" height="17" style="stroke-width: 1px; stroke: rgb(0, 0, 0); stroke-opacity: 0; fill: rgb(0, 0, 0); fill-opacity: 0;"/><text class="annotation-text" text-anchor="middle" x="39.40625" y="13" style="font-family: 'Open Sans', verdana, arial, sans-serif; font-size: 12px; fill: rgb(68, 68, 68); fill-opacity: 1; white-space: pre;">p = 1.117E-23</text></g></g><g class="annotation-arrow-g" style="opacity: 1;"><path d="M329.5,402.5L329.5,381" style="stroke-width: 2px; stroke: rgb(68, 68, 68); stroke-opacity: 1; stroke-dasharray: 0px, 0px, 20.3px, 21.5px;"/><path d="M-2.4,-3V3L0.6,0Z" transform="translate(329.5,382.20001220703125)rotate(-90)scale(2)" style="fill: rgb(68, 68, 68); stroke-width: 0;"/></g></g><g class="annotation" data-index="2" style="opacity: 1;"><g class="annotation-text-g" transform="rotate(0,493.83,411)"><g class="cursor-pointer" transform="translate(454, 402)"><rect class="bg" x="0.5" y="0.5" width="79" height="17" style="stroke-width: 1px; stroke: rgb(0, 0, 0); stroke-opacity: 0; fill: rgb(0, 0, 0); fill-opacity: 0;"/><text class="annotation-text" text-anchor="middle" x="39.859375" y="13" style="font-family: 'Open Sans', verdana, arial, sans-serif; font-size: 12px; fill: rgb(68, 68, 68); fill-opacity: 1; white-space: pre;">p = 1.242E-16</text></g></g><g class="annotation-arrow-g" style="opacity: 1;"><path d="M493.83,402.5L493.83,381" style="stroke-width: 2px; stroke: rgb(68, 68, 68); stroke-opacity: 1; stroke-dasharray: 0px, 0px, 20.3px, 21.5px;"/><path d="M-2.4,-3V3L0.6,0Z" transform="translate(493.8299865722656,382.20001220703125)rotate(-90)scale(2)" style="fill: rgb(68, 68, 68); stroke-width: 0;"/></g></g></g></svg>